<svg xmlns="http://www.w3.org/2000/svg" viewBox="0 0 500 500"><ellipse cx="250" cy="338.22" rx="243.71" ry="136.02" fill="#f5f5f5"/><g fill="#e0e0e0"><path d="M70.11 402.72L44 388.05c-2.28-1.32-2.28-3.46 0-4.79l131-75.9a9.17 9.17 0 018.29 0L209.4 322c2.29 1.32 2.29 3.46 0 4.79l-131 75.9a9.15 9.15 0 01-8.29.03z"/><ellipse cx="233.71" cy="404.05" rx="63.74" ry="39.37"/><path d="M479.59 316.8l-106.72-61.61a8.18 8.18 0 00-7.37 0l-72.13 41.65a2.25 2.25 0 000 4.26l106.71 61.6a8.11 8.11 0 007.37 0l72.14-41.65a2.59 2.59 0 001.52-2.12c0-1.01-1.11-1.93-1.52-2.13zM376.94 402.46c-5.62-1.33-13.44-.37-21-.18 11.47-9.53 9.85-22.73-4.87-31.23-16.55-9.55-43.39-9.55-59.94 0s-16.55 25.05 0 34.61c16 9.26 41.75 9.55 58.38.85l1 .14c9.43 1.05 18.62-3 26.74 0s4.75 9.17 5.59 10.81 3.18.5 3.18-4.35-3.2-9.25-9.08-10.65z"/></g><path d="M63.67 324.64c-6.23-25.85-25.55-54.72-44.74-44.56s13.9 32.85 23.49 54.19c8.39 18.71 17.79 44.09 20 50.08L69.6 381c-.04-6.38-.6-34.13-5.93-56.36z" fill="#6f9639"/><path d="M63.67 324.64c-6.23-25.85-25.55-54.72-44.74-44.56s13.9 32.85 23.49 54.19c8.39 18.71 17.79 44.09 20 50.08L69.6 381c-.04-6.38-.6-34.13-5.93-56.36z" opacity=".15"/><path d="M64 378a.67.67 0 00.67-.67c-.17-50.29-21.38-81.53-39.48-93a.68.68 0 00-.93.21.67.67 0 00.21.92c17.82 11.28 38.69 42.11 38.86 91.86a.67.67 0 00.67.68z" fill="#fff"/><path d="M59.67 355.55c-14.83-30-35.54-33.18-43.2-26.37-6.12 5.43-1.52 13.7 4.18 17.23C28.07 351 53.29 363 61.79 384.64l5.6-2.63c-.2-3.87-1.39-13.64-7.72-26.46z" fill="#6f9639"/><path d="M64.27 380.94h.15a.71.71 0 00.55-.84c-4.9-24.33-28.08-41.22-39.69-43.84a.71.71 0 00-.31 1.38c11.28 2.55 33.83 19 38.61 42.74a.7.7 0 00.69.56z" fill="#fff"/><g><path d="M181.42 35L64.51 102.47a12.76 12.76 0 00-6.37 10.58v267.12c0 4.34 2.67 9.39 6 11.3s9 1.7 12.77-.47l116.48-67.24a15.07 15.07 0 006.8-11.77V45.8c0-4.33-2.68-9.39-6-11.3s-9.02-1.69-12.77.5z" fill="#37474f"/><path d="M75.26 391.77c-3.63 1.42-8.29 1.35-11.14-.3-3.3-1.9-6-7-6-11.3V113.05a12.12 12.12 0 011.72-5.82l11 6.22a13.21 13.21 0 00-3.16 7.92v264.31c-.02 5.22 3.32 7.69 7.58 6.09z" fill="#263238"/><path d="M73.65 111a13.3 13.3 0 00-6 10.38v264.31c0 5.85 4.15 8.25 9.22 5.32l116.49-67.25a15.07 15.07 0 006.8-11.77V45.8c0-4.32-3.06-6.08-6.8-3.92z" fill="#455a64"/><path d="M79.8 127.76l-6.46 3.73v241.24L79.8 369l109.5-63.21 6.46-3.73V60.82l-6.45 3.72z" fill="#37474f"/><path d="M187.58 296.65V65.53L79.8 127.76l-6.46 3.73v231.14l107.78-62.23c3.56-2.05 6.46-3.75 6.46-3.75z" fill="#6f9639"/><path d="M187.58 296.65V65.53L79.8 127.76l-6.46 3.73v231.14l107.78-62.23c3.56-2.05 6.46-3.75 6.46-3.75z" fill="#fff" opacity=".6"/><path d="M126 88.23l19.66-11.35c1.17-.68 2.12-.2 2.12 1.07a4.57 4.57 0 01-2.12 3.53L126 92.83c-1.17.67-2.13.19-2.13-1.08a4.55 4.55 0 012.13-3.52zM159.74 68.72c1.1-.63 2-.12 2 1.15a4.39 4.39 0 01-2 3.45c-1.1.64-2 .12-2-1.15a4.41 4.41 0 012-3.45zM167.71 64.13c1.1-.64 2-.12 2 1.15a4.41 4.41 0 01-2 3.45c-1.1.63-2 .12-2-1.15a4.39 4.39 0 012-3.45zM104 100.93c1.1-.64 2-.12 2 1.15a4.41 4.41 0 01-2 3.45c-1.1.64-2 .12-2-1.15a4.39 4.39 0 012-3.45zM111.94 96.33c1.1-.63 2-.12 2 1.15a4.39 4.39 0 01-2 3.45c-1.1.64-2 .12-2-1.15a4.42 4.42 0 012-3.45z"/><g><path d="M80.17 235.54a3.86 3.86 0 01-3.79-4.09v-53.74a6.59 6.59 0 01.93-3.25 6.47 6.47 0 012.33-2.4l38.94-22.45a4.5 4.5 0 012.22-.62 3.67 3.67 0 013.46 2.35 5.82 5.82 0 01.28 1.76v53.75a7 7 0 01-3.24 5.64l-38.91 22.43a6.15 6.15 0 01-.7.33 4.17 4.17 0 01-1.52.29z" opacity=".1"/><path d="M126.91 156a4.19 4.19 0 00-1.89-3.28l-1.55-.89a4.13 4.13 0 00-3.78 0L80.76 174.3a4.18 4.18 0 00-1.89 3.28v53.74a4.18 4.18 0 001.89 3.28l1.54.89a4.19 4.19 0 003.78 0L125 213a4.19 4.19 0 001.89-3.27z" fill="#fafafa"/><path d="M78.87 231.32a4.18 4.18 0 001.89 3.28l1.54.89a4.25 4.25 0 003.46.15c-.89.34-1.57-.17-1.57-1.25v-53.74a3.78 3.78 0 01.56-1.86l-5.33-3.08a3.94 3.94 0 00-.55 1.87z" fill="#e0e0e0"/><path d="M126.85 155.49c-.22-.81-1-1.06-1.83-.56l-38.94 22.45a3.78 3.78 0 00-1.33 1.41l-5.32-3.07a3.78 3.78 0 011.33-1.41l38.93-22.45a4.19 4.19 0 013.78 0l1.55.89a4.19 4.19 0 011.83 2.74z" fill="#f0f0f0"/><g fill="#6f9639"><path d="M94.56 223a.48.48 0 01-.23-.07.45.45 0 01-.23-.39v-28.1a.45.45 0 01.23-.39l22.21-12.83a.47.47 0 01.46 0 .46.46 0 01.23.4v28.08a.47.47 0 01-.23.4l-22.22 12.82a.47.47 0 01-.22.08zm.44-28.29v27l21.3-12.3v-27z"/><path d="M103.72 217.69a.46.46 0 01-.46-.45v-28l-4-5.76L95 194.61a.46.46 0 01-.59.26.45.45 0 01-.26-.59l4.6-11.88a.45.45 0 01.37-.29.46.46 0 01.43.19l4.57 6.59a.5.5 0 01.08.26v28.09a.46.46 0 01-.48.45z"/><path d="M103.72 189.61a.44.44 0 01-.37-.2l-4.57-6.59a.45.45 0 01-.07-.36.46.46 0 01.22-.29l13.07-7.55a.45.45 0 01.6.13l4.57 6.59a.47.47 0 01.07.36.45.45 0 01-.22.3L104 189.55a.46.46 0 01-.28.06zm-3.91-6.9l4 5.84 12.28-7.1-4-5.83z"/><path d="M99.15 183a.45.45 0 01-.45-.46v-3.07a.46.46 0 01.23-.4l13.07-7.53a.47.47 0 01.46 0 .48.48 0 01.23.4V175a.46.46 0 11-.92 0v-2.28l-12.16 7v2.81a.45.45 0 01-.46.47zM106.72 210.74l.89-2.56.06-.13a.26.26 0 01.14-.15l.31-.18a.1.1 0 01.09 0 .11.11 0 010 .1v4a.27.27 0 010 .14.18.18 0 01-.09.1l-.37.22h-.09a.11.11 0 010-.1v-2.42l-.6 1.74s0 .09-.07.14a.23.23 0 01-.11.11l-.24.14a.09.09 0 01-.11 0l-.06-.06-.61-1.05v2.43a.39.39 0 010 .14.45.45 0 01-.09.1l-.38.22a.08.08 0 01-.09 0 .13.13 0 010-.1v-4a.39.39 0 010-.14.45.45 0 01.09-.1l.32-.18h.13l.07.06zM109.1 211.49a.1.1 0 01-.09 0 .15.15 0 010-.1v-4a.43.43 0 010-.14.3.3 0 01.09-.1l.38-.22a.06.06 0 01.08 0 .11.11 0 010 .1v4a.35.35 0 01-.12.24zM112.49 208.76h.09a.11.11 0 010 .1v.44a.27.27 0 010 .14.22.22 0 01-.09.1l-2 1.17a.06.06 0 01-.08 0v-4.09a.25.25 0 010-.14.21.21 0 01.08-.1l.38-.22a.08.08 0 01.09 0 .13.13 0 010 .1v3.4zM115.54 207.52a.25.25 0 010 .14.18.18 0 01-.09.1l-.44.26a.17.17 0 01-.15 0h-.06l-1.1-1v1.62a.31.31 0 010 .13.35.35 0 01-.09.11l-.38.21a.07.07 0 01-.09 0 .11.11 0 010-.09v-4a.37.37 0 010-.14.3.3 0 01.09-.1l.38-.22a.08.08 0 01.09 0 .13.13 0 010 .1v1.46l1-2.08a.38.38 0 01.09-.15.43.43 0 01.12-.11l.42-.24a.1.1 0 01.09 0 .12.12 0 010 .1.26.26 0 010 .11l-1.25 2.54z"/></g></g><g><path d="M134.1 204.4a3.86 3.86 0 01-3.79-4.09v-53.74a6.59 6.59 0 01.93-3.25 6.4 6.4 0 012.33-2.4l38.94-22.45a4.37 4.37 0 012.21-.63 3.66 3.66 0 013.46 2.35 6 6 0 01.28 1.76v53.74a7 7 0 01-3.24 5.64l-39 22.45a7 7 0 01-.69.33 4.19 4.19 0 01-1.43.29z" opacity=".1"/><path d="M181 124.85a4.17 4.17 0 00-1.9-3.28l-1.54-.89a4.13 4.13 0 00-3.78 0l-38.93 22.44a4.17 4.17 0 00-1.9 3.28v53.74a4.19 4.19 0 001.9 3.28l1.54.89a4.19 4.19 0 003.78 0l38.93-22.45a4.17 4.17 0 001.9-3.28z" fill="#fafafa"/><path d="M132.91 200.14a4.19 4.19 0 001.9 3.28l1.54.89a4.25 4.25 0 003.46.15c-.89.34-1.57-.17-1.57-1.25v-53.74a3.87 3.87 0 01.55-1.86l-5.32-3.08a4 4 0 00-.56 1.87z" fill="#e0e0e0"/><path d="M180.89 124.31c-.22-.81-.95-1.06-1.82-.56l-38.94 22.45a3.7 3.7 0 00-1.33 1.41l-5.33-3.07a3.88 3.88 0 011.34-1.41l38.92-22.45a4.22 4.22 0 013.79 0l1.55.89a4.15 4.15 0 011.82 2.74z" fill="#f0f0f0"/><g fill="#6f9639"><path d="M153.3 188.5c-2.19 0-4.24-1.2-6.08-3.56-5.28-6.78-2.43-21.53 3.49-26.41 4-3.28 6.09-2.82 7.54-1.85a9.54 9.54 0 003.22-2.94 15.74 15.74 0 017.15-5.55 3.8 3.8 0 014.29 1c2.92 3.06 3.61 11.91-.29 21.43-5.54 13.5-11.17 14.11-12.53 14.06-.67.83-3.29 3.78-6.72 3.82zm2.7-31.61c-1.11 0-2.58.58-4.71 2.34-5.51 4.55-8.27 18.83-3.35 25.15 1.68 2.15 3.54 3.22 5.42 3.21 3.45-.05 6.13-3.62 6.16-3.66a.49.49 0 01.46-.18c.05 0 5.9.87 11.79-13.48 3.77-9.17 3.2-17.6.48-20.45a2.91 2.91 0 00-3.32-.77 14.79 14.79 0 00-6.76 5.27 11.38 11.38 0 01-3.1 3l.17.15c.72.6 1.2 1 1.79.88.82-.12 2.16-1.15 3.19-3.11a.45.45 0 11.8.43c-1 2-2.54 3.38-3.85 3.58a3.17 3.17 0 01-2.52-1.08 4 4 0 00-2.65-1.28z"/><path d="M161.28 159.12a.45.45 0 01-.46-.43c-.25-6.13 3.47-15.51 7.1-17.94a.45.45 0 11.5.76c-3.36 2.25-6.92 11.38-6.69 17.14a.45.45 0 01-.43.47z"/><path d="M159.86 153.13h-.07a2.13 2.13 0 01-1.8-1.22c-1.14-2.12-.55-5.61-.53-5.76a.54.54 0 01.27-.37c.11-.06 2.7-1.49 4.56-.19 1.67 1.17 1.29 4.13.29 5.74a3.49 3.49 0 01-2.72 1.8zm-1.38-6.53c-.1.81-.34 3.31.46 4.8a1.06 1.06 0 00.89.65 2.43 2.43 0 001.84-1.29c.84-1.35 1-3.57 0-4.29s-2.6-.14-3.19.13z"/></g></g><g><path d="M80.17 309a3.86 3.86 0 01-3.79-4.08v-53.76a6.61 6.61 0 01.93-3.25 6.47 6.47 0 012.33-2.4l38.94-22.45a4.5 4.5 0 012.22-.62 3.67 3.67 0 013.46 2.35 5.82 5.82 0 01.28 1.76v53.75a7 7 0 01-3.24 5.64l-38.91 22.43a6.15 6.15 0 01-.7.33 4.17 4.17 0 01-1.52.3z" opacity=".1"/><path d="M126.91 229.45a4.19 4.19 0 00-1.89-3.27l-1.55-.89a4.13 4.13 0 00-3.78 0l-38.93 22.44a4.16 4.16 0 00-1.89 3.27v53.74a4.18 4.18 0 001.89 3.26l1.54.89a4.19 4.19 0 003.78 0L125 286.47a4.19 4.19 0 001.89-3.28z" fill="#fafafa"/><path d="M78.87 304.75a4.18 4.18 0 001.89 3.25l1.54.89a4.25 4.25 0 003.46.15c-.89.34-1.57-.17-1.57-1.25v-53.71a3.78 3.78 0 01.56-1.86l-5.33-3.08a3.94 3.94 0 00-.55 1.87z" fill="#e0e0e0"/><path d="M126.85 228.92c-.22-.81-1-1.06-1.83-.56l-38.94 22.45a3.78 3.78 0 00-1.33 1.41l-5.32-3.07a3.78 3.78 0 011.33-1.41l38.93-22.45a4.19 4.19 0 013.78 0l1.55.89a4.19 4.19 0 011.83 2.74z" fill="#f0f0f0"/><g fill="#6f9639"><path d="M98.15 281.93a.4.4 0 01-.24-.07.45.45 0 01-.22-.4c.34-19.94 14.19-38.36 25.42-40.31a.46.46 0 01.36.08.52.52 0 01.18.33c0 .44.74 10.91-10.27 25.83-7.93 10.74-14.73 14.34-15 14.49a.54.54 0 01-.23.05zm24.6-39.78c-10.65 2.33-23.45 19.62-24.12 38.51 1.93-1.2 7.66-5.2 14-13.81 9.45-12.79 10.11-22.42 10.12-24.7z"/><path d="M117.92 259.91c-4.68-.29-7.15-4.34-6.78-11.13a.45.45 0 01.48-.43.46.46 0 01.43.48c-.34 6.21 1.83 9.92 5.93 10.16a.46.46 0 01.42.49.45.45 0 01-.48.43zM89.64 287.91a3.74 3.74 0 01-2.59-1 .46.46 0 01-.09-.55c3.37-6.38 8.41-8.94 11.44-8.12a.46.46 0 01.32.56.44.44 0 01-.56.32c-2.67-.72-7.18 1.82-10.22 7.34a3.08 3.08 0 002.29.45c2.51-.35 5.75-2.8 7.53-5.72a.46.46 0 01.78.48c-1.91 3.12-5.43 5.76-8.19 6.15a5.78 5.78 0 01-.71.09z"/><path d="M99.89 295.39a.59.59 0 01-.25-.07c-3.56-2.32-3.65-8.94-1.91-14a.45.45 0 01.57-.29.46.46 0 01.29.58c-1.59 4.58-1.52 10.39 1.14 12.63 2.56-5.29 2-12 .12-13.71a.44.44 0 010-.64.45.45 0 01.64 0c2.38 2.24 2.77 9.73-.17 15.29a.46.46 0 01-.29.22zM112.92 263.76c-2.84-.11-4.87-3.9-5-7.37a.46.46 0 01.44-.47.44.44 0 01.47.44c.1 3 1.88 6.4 4.11 6.49a.46.46 0 010 .91zM109.4 267.83h-.07c-1.81-.29-3.82-3.59-4.13-6a.46.46 0 11.91-.12c.28 2.17 2.1 5 3.37 5.19a.46.46 0 01-.08.91zM106.2 271.82h-.08c-1.51-.27-3.28-3.23-3.55-4.88a.45.45 0 01.38-.52.44.44 0 01.52.37c.26 1.57 1.88 4 2.81 4.13a.46.46 0 01-.08.91zM102.71 275.54h-.1a3.47 3.47 0 01-2.35-2.53.46.46 0 01.34-.55.46.46 0 01.55.34 2.62 2.62 0 001.65 1.85.46.46 0 01.35.54.45.45 0 01-.44.35zM116.08 251.65a1.16 1.16 0 01-.57-.15 1.62 1.62 0 01-.68-1.46 3.62 3.62 0 011.54-2.92 1.29 1.29 0 011.32-.06 1.59 1.59 0 01.69 1.46 3.6 3.6 0 01-1.55 2.91 1.6 1.6 0 01-.75.22zm1-3.83a.56.56 0 00-.29.1 2.69 2.69 0 00-1.09 2.12c0 .39.12.61.23.67s.3 0 .4-.07a2.71 2.71 0 001.09-2.12c0-.4-.12-.61-.23-.67a.2.2 0 00-.07-.03zM102.15 263.63a.47.47 0 01-.42-.27c-.61-1.36-3.43-.64-3.46-.64a.45.45 0 01-.45-.13.42.42 0 01-.1-.45c.82-2.44 5.57-7.8 9.38-8.52a.45.45 0 01.53.36.44.44 0 01-.36.53c-3.1.59-7 4.73-8.35 7.16 1.13-.15 3-.14 3.65 1.32a.45.45 0 01-.23.6.43.43 0 01-.19.04z"/></g></g><g><path d="M134.1 277.73a3.86 3.86 0 01-3.79-4.09V219.9a6.59 6.59 0 01.93-3.25 6.4 6.4 0 012.33-2.4l38.94-22.45a4.36 4.36 0 012.21-.62 3.66 3.66 0 013.46 2.34 6.15 6.15 0 01.28 1.76V249a7 7 0 01-3.24 5.64l-39 22.45a7.24 7.24 0 01-.69.34 4.4 4.4 0 01-1.43.3z" opacity=".1"/><path d="M181 198.27a4.17 4.17 0 00-1.9-3.27l-1.54-.89a4.13 4.13 0 00-3.78 0l-38.93 22.44a4.17 4.17 0 00-1.9 3.28v53.74a4.2 4.2 0 001.9 3.28l1.54.89a4.19 4.19 0 003.78 0l38.93-22.45A4.17 4.17 0 00181 252z" fill="#fafafa"/><path d="M132.91 273.57a4.2 4.2 0 001.9 3.28l1.54.89a4.25 4.25 0 003.46.15c-.89.33-1.57-.17-1.57-1.25V222.9a3.87 3.87 0 01.55-1.86l-5.32-3.04a3.92 3.92 0 00-.56 1.87z" fill="#e0e0e0"/><path d="M180.89 197.74c-.22-.81-.95-1.06-1.82-.56l-38.94 22.45a3.7 3.7 0 00-1.33 1.37l-5.33-3a3.91 3.91 0 011.34-1.42l38.92-22.44a4.22 4.22 0 013.79 0l1.55.89a4.15 4.15 0 011.82 2.71z" fill="#f0f0f0"/><g fill="#6f9639"><path d="M149.81 254.46a12.51 12.51 0 01-5.94-1.44.44.44 0 01-.2-.59l15.13-33a.42.42 0 01.33-.26.44.44 0 01.41.13l15.14 15.53a.45.45 0 01.06.55c-4.28 7.22-9.71 13-15.3 16.19a19.51 19.51 0 01-9.63 2.89zm-5.13-2.05c4 2 9.09 1.38 14.3-1.63 5.38-3.1 10.62-8.62 14.8-15.57l-14.43-14.8z"/><path d="M148.58 258.89a14 14 0 01-6.66-1.62.44.44 0 01-.2-.59l17.08-37.25a.42.42 0 01.33-.26.44.44 0 01.41.13l17.08 17.52a.47.47 0 01.06.56c-4.81 8.13-10.94 14.61-17.24 18.25a22 22 0 01-10.86 3.26zm-5.85-2.23c4.57 2.24 10.32 1.6 16.25-1.82 6.1-3.52 12-9.77 16.74-17.63l-16.37-16.8z"/><path d="M142.13 257.32a.43.43 0 01-.19 0 .45.45 0 01-.22-.6l17.08-37.25a.42.42 0 01.33-.26.44.44 0 01.41.13l17.08 17.52a.46.46 0 010 .65.45.45 0 01-.64 0l-16.62-17.05-16.8 36.65a.48.48 0 01-.43.21z"/><path d="M158.89 229.89a.67.67 0 01-.45-.16c-.49-.41-.37-1.62.34-3.61a.47.47 0 01.38-.3.46.46 0 01.44.22 4 4 0 01.62 2.65 1.62 1.62 0 01-.78 1 1.07 1.07 0 01-.55.2zm.18-.8zm.21-1.5a6.24 6.24 0 00-.23 1.3.73.73 0 00.29-.42 1.92 1.92 0 00-.06-.88zM158.89 246.54a.72.72 0 01-.45-.16c-.49-.41-.37-1.63.34-3.61a.46.46 0 01.38-.3.44.44 0 01.44.21 4.08 4.08 0 01.62 2.66 1.65 1.65 0 01-.78 1 1.17 1.17 0 01-.55.2zm.18-.81zm.21-1.5a6.35 6.35 0 00-.23 1.3.7.7 0 00.29-.42 1.92 1.92 0 00-.06-.88zM167.64 239.34a.56.56 0 01-.25-.05c-.71-.27-.78-1.74-.72-2.94a.47.47 0 01.19-.34.43.43 0 01.38-.07c.14 0 1.37.37 1.68 1.28a1.63 1.63 0 01-.4 1.57 1.2 1.2 0 01-.88.55zm.14-.86zm-.21-1.43a5.34 5.34 0 00.14 1.28l.1-.11c.22-.29.3-.52.24-.7a1 1 0 00-.48-.47zM150.32 249.3h-.1a.82.82 0 01-.7-.47c-.4-.87.85-2.78 1.4-3.56a.46.46 0 01.83.24c0 .44.12 2.71-.7 3.5a1 1 0 01-.73.29zm.46-2.07a2.68 2.68 0 00-.43 1.22c0-.06 0-.07.07-.11a2.17 2.17 0 00.36-1.11zM154.9 240.22a.74.74 0 01-.63-.31c-.49-.69.28-2.38 1-3.68a.48.48 0 01.47-.23.46.46 0 01.38.36c.05.23.47 2.3-.2 3.29a1.21 1.21 0 01-.83.55.71.71 0 01-.19.02zm.13-.81zm.36-1.33a4.3 4.3 0 00-.37 1.2.33.33 0 00.15-.14 2 2 0 00.22-1.06zM162.94 235.64a.59.59 0 01-.31-.08c-.55-.29-.66-1.38-.34-3.26a.47.47 0 01.27-.34.45.45 0 01.42 0 2.88 2.88 0 011.33 1.81 1.7 1.7 0 01-.59 1.44 1.16 1.16 0 01-.78.43zm.18-.84zm0-1.53a6.11 6.11 0 000 1.34.87.87 0 00.32-.69 1.23 1.23 0 00-.36-.65z"/></g></g><g><path d="M101.65 337.06a3.85 3.85 0 01-3.79-4.06v-20.8a6.94 6.94 0 013.26-5.65l60.52-34.81a4.41 4.41 0 012.22-.63 3.66 3.66 0 013.45 2.35h.05a6.09 6.09 0 01.28 1.76V296a6.94 6.94 0 01-3.24 5.64l-60.54 34.82a7 7 0 01-.69.33 4.17 4.17 0 01-1.52.27z" opacity=".1"/><path d="M170 278.13a4.19 4.19 0 00-1.9-3.28l-1.54-.89a4.19 4.19 0 00-3.78 0l-60.51 34.81a4.19 4.19 0 00-1.9 3.28v20.77a4.19 4.19 0 001.9 3.28l1.54.89a4.19 4.19 0 003.78 0l60.52-34.81a4.2 4.2 0 001.89-3.28z" fill="#6f9639"/><path d="M170 278.13a4.19 4.19 0 00-1.9-3.28l-1.54-.89a4.19 4.19 0 00-3.78 0l-60.51 34.81a4.19 4.19 0 00-1.9 3.28v20.77a4.19 4.19 0 001.9 3.28l1.54.89a4.19 4.19 0 003.78 0l60.52-34.81a4.2 4.2 0 001.89-3.28z" opacity=".15"/><path d="M100.34 332.82a4.19 4.19 0 001.9 3.28l1.54.89a4.25 4.25 0 003.46.15c-.89.34-1.57-.17-1.57-1.25v-20.76a3.88 3.88 0 01.55-1.87l-5.32-3.07a3.89 3.89 0 00-.56 1.86z" opacity=".3"/><path d="M169.91 277.59c-.23-.8-1-1.06-1.83-.55l-60.52 34.81a3.7 3.7 0 00-1.33 1.41l-5.33-3.07a3.88 3.88 0 011.34-1.41L162.75 274a4.19 4.19 0 013.78 0l1.55.9a4.2 4.2 0 011.83 2.69z" opacity=".15"/><path d="M111.58 328.38a.17.17 0 01-.22 0 .38.38 0 01-.1-.3V316.2a.88.88 0 01.1-.4.6.6 0 01.22-.28l3.85-2.22a2.61 2.61 0 011.34-.43 1.21 1.21 0 01.88.37 2.06 2.06 0 01.47 1 5.28 5.28 0 01.15 1.28 5.8 5.8 0 01-.08 1 5 5 0 01-.19.78 3.52 3.52 0 01-.22.59 3.25 3.25 0 01-.18.37 1.28 1.28 0 01.65.78 4.78 4.78 0 01.18 1.46 8.35 8.35 0 01-.14 1.55 6.94 6.94 0 01-.47 1.55 6.09 6.09 0 01-.85 1.4 4.7 4.7 0 01-1.29 1.08zm4.47-11.54a.84.84 0 00-.19-.65c-.12-.12-.3-.11-.54 0l-1.85 1.07v2.1l1.85-1.07a1.31 1.31 0 00.54-.6 1.92 1.92 0 00.19-.85zm-2.58 7.61l2-1.14a1.46 1.46 0 00.57-.65 2.19 2.19 0 00.22-.93.9.9 0 00-.22-.67c-.14-.13-.33-.13-.57 0l-2 1.14zM126.61 306.85a.17.17 0 01.22 0 .39.39 0 01.1.3v7.33a10.81 10.81 0 01-.26 2.39 9.39 9.39 0 01-.75 2.07 7.32 7.32 0 01-1.15 1.66 6.3 6.3 0 01-1.47 1.19 3.66 3.66 0 01-1.48.52 1.6 1.6 0 01-1.14-.34 2.44 2.44 0 01-.74-1.21 6.84 6.84 0 01-.27-2.09v-7.33a1 1 0 01.1-.41.66.66 0 01.23-.28l1.56-.9a.18.18 0 01.23 0 .4.4 0 01.09.29v7.26a2.45 2.45 0 00.35 1.52c.24.28.59.29 1.07 0a2.47 2.47 0 001.07-1.24 5 5 0 00.35-1.93v-7.26a.85.85 0 01.1-.4.6.6 0 01.22-.28zM132.88 315.59a1 1 0 01-.09.4.55.55 0 01-.23.28l-1.56.9a.18.18 0 01-.23 0 .41.41 0 01-.09-.3V313l-2.76-6.22a.46.46 0 010-.21.8.8 0 01.08-.33.46.46 0 01.18-.22l1.64-1c.16-.09.28-.1.36 0a.59.59 0 01.14.19l1.5 3.65 1.52-5.39a2.41 2.41 0 01.14-.36.85.85 0 01.36-.39l1.64-.94a.14.14 0 01.18 0 .33.33 0 01.08.24 1.12 1.12 0 01-.05.27l-2.76 9.4zM144.34 309.47q-.21.12-.33 0a.59.59 0 01-.16-.17l-2.73-4.7v6.21a.88.88 0 01-.1.4.65.65 0 01-.22.28l-1.57.9c-.09.05-.16.05-.22 0a.37.37 0 01-.1-.29v-11.86a.85.85 0 01.1-.4.54.54 0 01.22-.28l1.24-.72c.14-.07.25-.08.33 0a.59.59 0 01.16.16l2.73 4.71v-6.21a1 1 0 01.1-.41.57.57 0 01.23-.27l1.56-.9a.17.17 0 01.23 0 .4.4 0 01.09.29v11.87a1 1 0 01-.09.41.63.63 0 01-.23.27zM147.3 299.7a10.3 10.3 0 01.29-2.11 9.19 9.19 0 01.73-2 8.78 8.78 0 011.14-1.73 6 6 0 011.56-1.29 3.14 3.14 0 011.55-.5 1.68 1.68 0 011.15.4 2.44 2.44 0 01.73 1.16 6.53 6.53 0 01.3 1.77V298.67a11.06 11.06 0 01-.3 2.11 9.47 9.47 0 01-.73 2 7.78 7.78 0 01-1.15 1.73 6.34 6.34 0 01-1.57 1.29 3.23 3.23 0 01-1.56.51 1.69 1.69 0 01-1.14-.4 2.64 2.64 0 01-.73-1.17 6.18 6.18 0 01-.29-1.77v-1.61c0-.61 0-1.13.02-1.66zm5.24.15v-.75-.83-.81-.7a3.33 3.33 0 00-.13-.77 1.19 1.19 0 00-.28-.5.71.71 0 00-.46-.19 1.36 1.36 0 00-.65.21 2.36 2.36 0 00-.64.54 2.79 2.79 0 00-.46.71 3.79 3.79 0 00-.29.84 4.53 4.53 0 00-.12.91v3.09a2.05 2.05 0 00.41 1.29c.24.26.61.25 1.1 0a2.61 2.61 0 001.1-1.24 5.16 5.16 0 00.42-1.8zM161.82 293.22l.77-6.65a1.19 1.19 0 01.14-.47.87.87 0 01.22-.24l1.57-.9a.14.14 0 01.18 0 .29.29 0 01.08.24 1 1 0 010 .16l-1.54 12.5a1.64 1.64 0 01-.19.58 1 1 0 01-.41.46l-1 .57c-.16.09-.29.09-.38 0a.6.6 0 01-.21-.35l-.9-3.64-.89 4.67a2.39 2.39 0 01-.21.6 1 1 0 01-.39.44l-1 .58a.36.36 0 01-.41 0 .52.52 0 01-.19-.37l-1.54-10.72a.76.76 0 010-.14.8.8 0 01.08-.33.54.54 0 01.18-.23l1.57-.9a.25.25 0 01.22 0c.08 0 .12.13.15.3l.76 5.77.7-3.73c0-.09.06-.23.11-.39a.72.72 0 01.3-.38l1.12-.64q.21-.13.3 0a1 1 0 01.11.27z" fill="#fafafa"/></g><g><path fill="#6f9639" d="M73.34 131.49l25.97 36.42 122.43-70.68-25.99-36.41-122.41 70.67z"/><path fill="#fafafa" d="M84.45 125.07l11.13-6.43 25.98 36.42-11.13 6.42-25.98-36.41zM106.72 112.22l11.13-6.43 25.99 36.42-11.13 6.42-25.99-36.41zM129 99.37l11.13-6.43 25.98 36.41-11.13 6.43L129 99.37zM151.27 86.52l11.13-6.43 25.98 36.41-11.13 6.43-25.98-36.41zM173.54 73.67l11.13-6.43 25.98 36.41-11.13 6.43-25.98-36.41z"/><path d="M110.43 161.48c0 3.55 2.49 5 5.57 3.21a12.3 12.3 0 005.56-9.63zM132.69 148.63c0 3.55 2.49 5 5.56 3.21a12.31 12.31 0 005.57-9.63zM154.94 135.78c0 3.55 2.49 5 5.57 3.22a12.31 12.31 0 005.56-9.64zM177.2 122.93c0 3.55 2.49 5 5.56 3.22a12.31 12.31 0 005.56-9.64zM199.45 110.09c0 3.54 2.49 5 5.56 3.21a12.3 12.3 0 005.57-9.64z" fill="#e0e0e0"/><path d="M99.31 167.9c0 3.55 2.49 5 5.56 3.22a12.31 12.31 0 005.56-9.64zM121.56 155.06c0 3.54 2.49 5 5.56 3.21a12.3 12.3 0 005.57-9.64zM143.81 142.21c0 3.55 2.5 5 5.57 3.21a12.3 12.3 0 005.56-9.64zM166.07 129.36c0 3.55 2.49 5 5.56 3.21a12.28 12.28 0 005.57-9.64zM188.32 116.51c0 3.55 2.49 5 5.57 3.21a12.3 12.3 0 005.56-9.63zM210.58 103.66c0 3.55 2.49 5 5.56 3.21a12.28 12.28 0 005.56-9.63z" fill="#6f9639"/><g opacity=".15"><path d="M99.31 167.9c0 3.55 2.49 5 5.56 3.22a12.31 12.31 0 005.56-9.64zM121.56 155.06c0 3.54 2.49 5 5.56 3.21a12.3 12.3 0 005.57-9.64zM143.81 142.21c0 3.55 2.5 5 5.57 3.21a12.3 12.3 0 005.56-9.64zM166.07 129.36c0 3.55 2.49 5 5.56 3.21a12.28 12.28 0 005.57-9.64zM188.32 116.51c0 3.55 2.49 5 5.57 3.21a12.3 12.3 0 005.56-9.63zM210.58 103.66c0 3.55 2.49 5 5.56 3.21a12.28 12.28 0 005.56-9.63z"/></g><path fill="#6f9639" d="M99.31 167.9l-25.97-19.27v-17.14l25.97 36.41z"/><path opacity=".2" d="M99.31 167.9l-25.97-19.27v-17.14l25.97 36.41z"/></g></g><g><path fill="#6f9639" d="M310.43 297.72l93.33 53.89 58.77-33.93-93.34-53.9-58.76 33.94z"/><path opacity=".5" d="M310.43 297.72l93.33 53.89 58.77-33.93-93.34-53.9-58.76 33.94z"/><path d="M453.55 311.52l-78.88-45.58a7.92 7.92 0 00-7.19 0l-27.73 16a38 38 0 00-20.81 3.8c-9.7 5.18-11.06 13.45-3 18.47 7.72 4.82 21.34 4.87 31 .25l59.39 34.31a7.92 7.92 0 007.19 0l40-23.1c2.02-1.15 2.02-3.01.03-4.15z" opacity=".15"/><path fill="#6f9639" d="M369.19 179.96v83.82l-58.76 33.94-13.84-75.84 72.6-41.92z"/><path opacity=".4" d="M296.59 221.88l72.6-41.92v83.82l-58.76 33.94-13.84-75.84"/><path fill="#6f9639" d="M476.36 241.84l-13.83 75.84-93.34-53.9v-83.82l107.17 61.88z"/><path opacity=".3" d="M476.36 241.84l-13.83 75.84-93.34-53.9v-83.82l107.17 61.88z"/><path d="M481.11 241.84h-4.75L369.19 180l-72.6 41.92 1.07.61-5.82-.61a2.62 2.62 0 011.53-2.13l72.13-41.69a8.18 8.18 0 017.37 0l106.72 61.61c.41.22 1.52 1.12 1.52 2.13z" fill="#455a64"/><path d="M422.45 148.76l-2.54-4.6a6.12 6.12 0 015.66.05h-.05a4.78 4.78 0 012 4.9c-2.78 11.55-12.52 52.82-12.75 53.23l-4.25-2.48z" fill="#6f9639"/><path d="M422.45 148.76l-2.54-4.6a6.12 6.12 0 015.66.05h-.05a4.78 4.78 0 012 4.9c-2.78 11.55-12.52 52.82-12.75 53.23l-4.25-2.48z" opacity=".25"/><path d="M429.28 146.41a7.48 7.48 0 013.17 4.83l9.41 66.68-4.73-2.73-9.9-65.59-3.52-3.12a6.21 6.21 0 015.57-.07zM345.36 187.25l1.52 5.38 75.57-43.87-2.54-4.6-74.55 43.09z" fill="#6f9639"/><path opacity=".25" d="M345.36 187.25l1.52 5.38 75.57-43.87-2.54-4.6-74.55 43.09z"/><path fill="#6f9639" d="M423.71 146.48l3.52 3.12-77.56 45.2-2.79-4.33 76.83-43.99z"/><path d="M348.61 259.54c10.36 6 27.15 6 37.51 0s10.36-15.68 0-21.66-27.15-6-37.51 0-10.36 15.68 0 21.66z" opacity=".05"/><path d="M392.39 248.56v-44.72h-44.75v44.72c-.19 3.44 2 6.92 6.53 9.55 8.74 5.05 22.92 5.05 31.67 0 4.58-2.63 6.74-6.11 6.55-9.55z" fill="#ebebeb"/><path d="M354.2 213c8.74 5.05 22.92 5.05 31.67 0s8.74-13.23 0-18.28-22.93-5-31.67 0-8.75 13.21 0 18.28z" fill="#fafafa"/><path d="M355.16 212.24c8.21 4.63 21.53 4.63 29.74 0s8.21-12.16 0-16.8-21.53-4.63-29.74 0-8.16 12.16 0 16.8z" fill="#ebebeb"/><path d="M384.9 197.62c-8.21-4.64-21.53-4.64-29.74 0-3.61 2-5.63 4.64-6.06 7.31.43 2.66 2.45 5.26 6.06 7.31 8.21 4.63 21.53 4.63 29.74 0 3.62-2.05 5.63-4.65 6.07-7.31-.44-2.67-2.45-5.27-6.07-7.31z" fill="#f5f5f5"/><path d="M347.64 241c0 3.33 2.15 6.67 6.56 9.21 8.74 5 22.92 5 31.67 0 4.37-2.53 6.56-5.83 6.56-9.14v-29.94c0 3.31-2.19 6.62-6.56 9.14-8.75 5-22.93 5-31.67 0-4.41-2.54-6.59-5.88-6.56-9.21z" fill="#6f9639"/><path d="M347.64 241c0 3.33 2.15 6.67 6.56 9.21 8.74 5 22.92 5 31.67 0 4.37-2.53 6.56-5.83 6.56-9.14v-29.94c0 3.31-2.19 6.62-6.56 9.14-8.75 5-22.93 5-31.67 0-4.41-2.54-6.59-5.88-6.56-9.21z" fill="#fff" opacity=".5"/><path d="M379.2 260.76c-8.23 2.12-18.24 1.26-25-2.66-4.55-2.61-6.71-6.09-6.53-9.55v-44.71c0 3.31 2.2 6.62 6.57 9.15a18.92 18.92 0 002.16 1.08V254c-.04 3.74 12.44 8.18 22.8 6.76z" opacity=".05"/><path d="M375.14 211.82l-2.37-1.38c-1.93-1.11-2.45-2.62-1.15-3.36s3.9-.45 5.83.66l2.37 1.37c1.93 1.12 2.45 2.62 1.15 3.37s-3.9.45-5.83-.66z" fill="#e0e0e0"/><ellipse cx="373.93" cy="208.42" rx="1.8" ry="1.04" fill="#f5f5f5"/><path d="M377.37 211.7a2.86 2.86 0 002.55 0 .78.78 0 000-1.48 2.86 2.86 0 00-2.55 0 .78.78 0 000 1.48z" fill="#f5f5f5"/><path d="M423.66 275.4c4-24.65 11.55-55.89 26.7-79.19s29.37-26.22 33.21-8.38-10 68-19.45 88.79c-24.84 54.79-44.89 26.22-40.46-1.22z" fill="#f0997a"/><path d="M478.68 190.08s-.46.22-1.29.56-2 .79-3.36 1.28c-.68.27-1.43.54-2.21.81s-1.59.61-2.44.88l-5.24 1.95-2.63 1c-.86.35-1.74.66-2.56 1l-2.4 1c-.76.33-1.49.63-2.18.89-1.33.58-2.51 1-3.33 1.33s-1.33.46-1.33.46.3-.42.87-1.11a23.4 23.4 0 012.58-2.64c.58-.49 1.21-1 1.92-1.53a23.15 23.15 0 012.28-1.52 29 29 0 012.58-1.42c.89-.47 1.84-.82 2.78-1.22s1.91-.69 2.88-.94 1.93-.46 2.86-.67a30.71 30.71 0 015.16-.54 21.9 21.9 0 015.06.43zM456.92 279.66s-.47.23-1.29.56-2 .8-3.36 1.29c-.69.26-1.43.53-2.21.8s-1.59.61-2.45.88l-5.23 2-2.63 1c-.87.35-1.74.65-2.56 1l-2.41 1c-.75.33-1.48.63-2.17.89-1.34.58-2.52 1-3.34 1.33s-1.32.46-1.32.46.29-.42.86-1.11a22.86 22.86 0 012.59-2.63c.58-.49 1.2-1 1.91-1.54a25.27 25.27 0 012.29-1.59c.82-.48 1.66-1 2.57-1.42s1.84-.82 2.78-1.21 1.92-.69 2.89-1 1.93-.45 2.85-.66a29.7 29.7 0 015.16-.54 21.66 21.66 0 015.07.49zM477.89 205.33s-.59.29-1.61.72-2.42 1.06-4.12 1.76c-3.39 1.45-7.9 3.15-12.4 4.83l-12.45 4.51-4.21 1.51c-1 .38-1.66.56-1.66.56s.37-.53 1.1-1.38a13 13 0 011.39-1.46 19.57 19.57 0 012-1.73A42.4 42.4 0 01458 208a47.48 47.48 0 0113.52-3 29.41 29.41 0 014.62 0c1.11.19 1.75.33 1.75.33zM472.41 223.54s-.58.34-1.6.82-2.38 1.18-4.06 2c-3.36 1.54-7.82 3.34-12.29 5l-3.36 1.2c-1.08.43-2.2.76-3.25 1.15l-5.85 1.92-4.32 1.37c-1.06.33-1.72.47-1.72.47A16.35 16.35 0 01437 236a12.2 12.2 0 011.34-1.54 21.48 21.48 0 011.92-1.83 39.71 39.71 0 0112.11-6.91 43.8 43.8 0 0113.6-2.75 28.79 28.79 0 014.67.24c1.12.15 1.77.33 1.77.33zM461.39 261.38s-.52.3-1.43.73-2.15 1.06-3.66 1.77c-3 1.38-7 3-11 4.49l-3 1.09c-1 .38-2 .68-2.93 1l-5.27 1.75-3.86 1.19c-1 .3-1.55.43-1.55.43s.31-.5.94-1.31a11.46 11.46 0 011.21-1.39 18.34 18.34 0 011.72-1.64 36 36 0 0110.88-6.21 39.34 39.34 0 0112.22-2.47 27 27 0 014.2.21c.95.2 1.53.36 1.53.36zM467.65 242.14s-.57.34-1.59.82-2.39 1.17-4.07 2c-3.35 1.54-7.81 3.34-12.29 5l-3.35 1.2c-1.09.43-2.21.76-3.26 1.15l-5.86 1.94-4.3 1.33c-1.06.34-1.73.48-1.73.48s.35-.56 1.05-1.46a13.24 13.24 0 011.35-1.6 21.22 21.22 0 011.91-1.83 40 40 0 0112.11-6.91 43.85 43.85 0 0113.6-2.75 28.92 28.92 0 014.68.24 17.49 17.49 0 011.75.39z" fill="#ffbda7" opacity=".8"/><ellipse cx="411.31" cy="290.12" rx="24.68" ry="14.25" opacity=".1"/><path d="M419.31 174.27v-20.48l-6.63.27-6.62-.27v20.48a33.09 33.09 0 01-8.36 22.17c-3.34 3.72-6.45 9.72-6.6 19.25v69c0 4.65 4.56 9.38 13.56 11.57a33.81 33.81 0 0016.06 0c9-2.2 13.5-6.92 13.54-11.57v-69c-.15-9.53-3.25-15.53-6.59-19.25a33 33 0 01-8.36-22.17z" fill="#6f9639"/><path d="M419.31 174.27v-20.48l-6.63.27-6.62-.27v20.48a33.09 33.09 0 01-8.36 22.17c-3.34 3.72-6.45 9.72-6.6 19.25v69c0 4.65 4.56 9.38 13.56 11.57a33.81 33.81 0 0016.06 0c9-2.2 13.5-6.92 13.54-11.57v-69c-.15-9.53-3.25-15.53-6.59-19.25a33 33 0 01-8.36-22.17z" opacity=".5"/><path d="M419.32 151.52a1 1 0 000-.17 3.2 3.2 0 00-1.92-2.86 10.4 10.4 0 00-9.38 0 3.91 3.91 0 00-1.71 1.76.93.93 0 00-.1.2.61.61 0 000 .13 1.29 1.29 0 00-.1.44v10a3.29 3.29 0 001.94 2.73 10.4 10.4 0 009.38 0 3.53 3.53 0 001.88-2.3.86.86 0 00.07-.21z" fill="#37474f"/><path d="M417.37 153.91a10.34 10.34 0 01-9.38 0c-2.6-1.49-2.6-3.92 0-5.42a10.4 10.4 0 019.38 0c2.63 1.51 2.63 3.93 0 5.42z" fill="#455a64"/><path d="M434.26 217.8v37.55c0 3.21-2.1 6.39-6.32 8.81-6.62 3.82-16.53 4.64-24.54 2.42V229c8 2.23 17.92 1.42 24.54-2.42 4.22-2.39 6.32-5.58 6.32-8.78z" fill="#fff"/><path d="M320.57 254.26c-4.2.67-11.5 2-15.13 11.87-4.14 11.27 2.43 24.1 11 28.93 10.78 6.07 26.6 4.9 35-4.5 9.33-10.4 8.3-28.23.5-35.28s-18.37-3.76-21.06-2.28c-3.99 2.21-7.03.74-10.31 1.26z" fill="#f28f8f"/><path d="M345.45 289c-10.35 7.1-25.5 6.74-35.26.72a22.55 22.55 0 006.26 5.38c10.78 6.07 26.6 4.9 35-4.5 7.08-7.89 8.18-20 4.91-28.52.7 2.36.48 19.08-10.91 26.92z" opacity=".1"/><path d="M316.56 258.46c-2.75.05-6.47 2.86-8.16 6.79-2.11 4.87-1.78 11.42-.5 16.08 2.58 9.39 12.33 13.47 13.14 12.57s-6.53-6.47-3.79-16.35c2.75-10.03 3.82-19.15-.69-19.09z" fill="#fff" opacity=".2"/><path d="M314.61 260.22c-2.68 1.22-5.45 6-6 9.22s.1 5.32.57 5.65c.83.58 5.92-5.5 7.5-8.16 2.32-3.78 2.26-8.68-2.07-6.71z" fill="#fff" opacity=".2"/><path d="M325.8 262c-1.61-1-3.06-1.49-3.62.37s3.67 4.25 7.92 2.53 5.47-4.73 5.23-6.16c0 0-1.66 3.33-4.56 4a7.32 7.32 0 01-4.97-.74z" fill="#b16668"/><path d="M330 263.77a41.12 41.12 0 00-3.2-11.77c-2.55-5.41-6.44-9-7.43-9.32a11.94 11.94 0 00-4.87-.23c-2.24.25-4.76 2-3.94 2.82s4.12 1.11 8.42 4.38 8.77 10 9.2 14.29a1.75 1.75 0 001.82-.17z" fill="#37474f"/><path d="M319.19 242.64l-.22-.06a12.83 12.83 0 00-4.44-.11 6.07 6.07 0 00-4 2c-.12.34.42.73 2.45.81a12.46 12.46 0 005.85-1.15c.85-.38 1.11-1.13.36-1.49z" fill="#455a64"/><path d="M326.35 257c-2.28-4.87-8.07-8.55-11.93-10a22.75 22.75 0 014.56 2.71c4.3 3.28 8.77 10 9.2 14.29a1.75 1.75 0 001.8-.18s-.15-1.53-.6-3.73c.09 2.03-.93 1.4-3.03-3.09z" opacity=".1"/><path d="M328 255.07a10.63 10.63 0 009.4-4.82c2.68-4.38.13-9.47.13-9.47a9.89 9.89 0 00-8.35 3.57c-2.44 3.05-2.27 8.45-1.18 10.72z" fill="#6f9639"/><path d="M328 255.07a10.63 10.63 0 009.4-4.82c2.68-4.38.13-9.47.13-9.47a9.89 9.89 0 00-8.35 3.57c-2.44 3.05-2.27 8.45-1.18 10.72z" opacity=".3"/><path d="M337.56 240.78a9.89 9.89 0 00-8.35 3.57c-2.47 3.05-2.3 8.45-1.18 10.72 1.73-8.07 9.53-14.29 9.53-14.29z" fill="#6f9639"/><g><path d="M311.38 265.53c8 5 22.43 4.88 32.18-.31s11.11-13.45 3-18.47-22.49-4.88-32.18.31-11.03 13.45-3 18.47z" opacity=".15"/><path d="M316.66 217.61c-4.2.67-11.51 2-15.14 11.87-4.13 11.26 2.44 24.1 11 28.93 10.78 6.07 26.6 4.9 35-4.51 9.33-10.4 8.29-28.22.5-35.27s-18.37-3.76-21.06-2.29c-3.96 2.22-7.03.75-10.3 1.27z" fill="#f28f8f"/><path d="M341.54 252.31c-10.35 7.1-25.5 6.73-35.26.71a22.31 22.31 0 006.26 5.39c10.78 6.07 26.6 4.9 35-4.51 7.08-7.88 8.18-20 4.91-28.51.7 2.4.48 19.11-10.91 26.92z" opacity=".1"/><path d="M312.65 221.81c-2.75 0-6.47 2.86-8.17 6.79-2.11 4.87-1.77 11.42-.49 16.08 2.58 9.39 12.33 13.47 13.14 12.57s-6.53-6.47-3.8-16.35c2.78-10.03 3.83-19.16-.68-19.09z" fill="#fff" opacity=".2"/><path d="M310.7 223.57c-2.69 1.22-5.46 6-6 9.21s.11 5.33.57 5.65c.84.59 5.93-5.5 7.51-8.16 2.27-3.77 2.22-8.67-2.08-6.7z" fill="#fff" opacity=".2"/><path d="M321.88 225.34c-1.6-1-3.05-1.49-3.62.37s3.68 4.25 7.92 2.53 5.48-4.73 5.24-6.16c0 0-1.66 3.32-4.56 4a7.41 7.41 0 01-4.98-.74z" fill="#b16668"/><path d="M326.07 227.12a41.23 41.23 0 00-3.18-11.77c-2.55-5.4-6.44-9-7.44-9.31a11.83 11.83 0 00-4.86-.24c-2.24.26-4.77 2-3.95 2.83s4.13 1.11 8.43 4.38 8.76 10 9.2 14.29a1.75 1.75 0 001.8-.18z" fill="#37474f"/><path d="M315.28 206l-.23-.07a13.05 13.05 0 00-4.44-.12 6.09 6.09 0 00-4 2c-.12.34.41.73 2.45.81a12.61 12.61 0 005.85-1.15c.86-.37 1.09-1.18.37-1.47z" fill="#455a64"/><path d="M322.44 220.34c-2.28-4.88-8.07-8.55-11.93-10a22.75 22.75 0 014.56 2.71c4.29 3.27 8.76 10 9.2 14.29a1.75 1.75 0 001.8-.18s-.15-1.53-.61-3.73c.1 2.03-.92 1.41-3.02-3.09z" opacity=".1"/><path d="M324.12 218.41a10.59 10.59 0 009.4-4.82c2.68-4.38.13-9.46.13-9.46a9.89 9.89 0 00-8.35 3.57c-2.47 3.05-2.3 8.45-1.18 10.71z" fill="#6f9639"/><path d="M324.12 218.41a10.59 10.59 0 009.4-4.82c2.68-4.38.13-9.46.13-9.46a9.89 9.89 0 00-8.35 3.57c-2.47 3.05-2.3 8.45-1.18 10.71z" opacity=".3"/><path d="M333.65 204.13a9.89 9.89 0 00-8.35 3.57c-2.47 3.05-2.3 8.45-1.18 10.71 1.72-8.08 9.53-14.28 9.53-14.28z" fill="#6f9639"/></g><g><path d="M356.06 282.48c0 6.38-5.18 13.58-11.56 13.58s-11.5-7.2-11.5-13.58a11.56 11.56 0 0123.11 0z" fill="#6f9639"/><path d="M356.06 282.48c0 6.38-5.18 13.58-11.56 13.58s-11.5-7.2-11.5-13.58a11.56 11.56 0 0123.11 0z" opacity=".6"/><path d="M376.77 294.45c0 6.38-5.17 13.58-11.55 13.58s-11.55-7.2-11.55-13.58a11.55 11.55 0 1123.1 0z" fill="#6f9639"/><path d="M376.77 294.45c0 6.38-5.17 13.58-11.55 13.58s-11.55-7.2-11.55-13.58a11.55 11.55 0 1123.1 0z" opacity=".6"/><path d="M397.48 306.42c0 6.38-5.17 13.58-11.55 13.58s-11.55-7.2-11.55-13.58a11.55 11.55 0 0123.1 0z" fill="#6f9639"/><path d="M397.48 306.42c0 6.38-5.17 13.58-11.55 13.58s-11.55-7.2-11.55-13.58a11.55 11.55 0 0123.1 0z" opacity=".6"/><path d="M418.2 318.41c0 6.38-5.17 13.58-11.55 13.58s-11.56-7.2-11.56-13.58a11.56 11.56 0 0123.11 0z" fill="#6f9639"/><path d="M418.2 318.41c0 6.38-5.17 13.58-11.55 13.58s-11.56-7.2-11.56-13.58a11.56 11.56 0 0123.11 0z" opacity=".6"/><path d="M441.06 305c0 6.38-5.17 13.58-11.55 13.58S418 311.37 418 305a11.56 11.56 0 0123.11 0z" fill="#6f9639"/><path d="M441.06 305c0 6.38-5.17 13.58-11.55 13.58S418 311.37 418 305a11.56 11.56 0 0123.11 0z" opacity=".6"/><path d="M454.05 298a2.56 2.56 0 00-1.52-2.13l-80.94-46.76a8.11 8.11 0 00-7.37 0l-41.07 23.71a2.58 2.58 0 00-1.52 2.13v4a2.58 2.58 0 001.52 2.13l80.94 46.77a8.2 8.2 0 007.38 0l41.06-23.71a2.56 2.56 0 001.52-2.13z" fill="#6f9639"/><path d="M454.05 298a2.56 2.56 0 00-1.52-2.13l-80.94-46.76a8.11 8.11 0 00-7.37 0l-41.07 23.71a2.58 2.58 0 00-1.52 2.13v4a2.58 2.58 0 001.52 2.13l80.94 46.77a8.2 8.2 0 007.38 0l41.06-23.71a2.56 2.56 0 001.52-2.13z" opacity=".2"/><path d="M407.85 324.74v4a7.67 7.67 0 01-3.75-.89l-80.94-46.76a2.57 2.57 0 01-1.53-2.13v-4a2.61 2.61 0 001.53 2.13l80.94 46.77a7.72 7.72 0 003.75.88z" opacity=".1"/><path d="M323.15 272.83l41.07-23.71a8.11 8.11 0 017.37 0l80.94 46.76c2 1.18 2 3.09 0 4.26l-41.06 23.71a8.14 8.14 0 01-7.38 0l-80.94-46.76c-2.03-1.18-2.03-3.09 0-4.26z" fill="#6f9639"/><path d="M414.64 315.16c4.41-2.55 4.42-6.67 0-9.2s-11.55-2.53-16 0-4.46 6.66 0 9.2a17.72 17.72 0 0016 0zM437.5 302c4.41-2.55 4.42-6.67 0-9.21s-11.55-2.53-16 0-4.46 6.66 0 9.2 11.59 2.51 16 .01zM393.92 303.19c4.41-2.55 4.43-6.67 0-9.2s-11.55-2.53-16 0-4.46 6.66 0 9.2 11.59 2.55 16 0zM416.78 290c4.41-2.54 4.43-6.66 0-9.2s-11.55-2.53-16 0-4.46 6.66 0 9.21a17.7 17.7 0 0016-.01zM373.21 291.22c4.41-2.55 4.43-6.67 0-9.2s-11.55-2.53-16 0-4.46 6.66 0 9.2 11.59 2.55 16 0zM396.07 278c4.41-2.54 4.43-6.66 0-9.2s-11.56-2.53-16 0-4.46 6.66 0 9.2 11.59 2.56 16 0zM352.49 279.25c4.41-2.55 4.43-6.67 0-9.2s-11.55-2.54-16 0-4.46 6.66 0 9.2a17.73 17.73 0 0016 0zM375.35 266c4.42-2.54 4.43-6.66 0-9.2s-11.55-2.53-16 0-4.46 6.66 0 9.2 11.59 2.59 16 0z" opacity=".1"/><path d="M440.23 297.16v.55a10.38 10.38 0 01-.36 2.23 7.78 7.78 0 01-2.37 2c-4.41 2.56-11.57 2.56-16 0a7.6 7.6 0 01-2.35-2 10.16 10.16 0 01-.38-2.28v-.55-.54c0-.48 0-1 .09-1.42a21.55 21.55 0 016.19-13.15 6.3 6.3 0 018.9 0 21.32 21.32 0 016.16 13.1c.05.52.09 1 .11 1.54.01.15.01.36.01.52zM419.52 285.18a4.7 4.7 0 010 .54 9.28 9.28 0 01-.36 2.24 7.61 7.61 0 01-2.36 2 17.68 17.68 0 01-16 0 7.6 7.6 0 01-2.35-2 9.7 9.7 0 01-.38-2.29v-.54-.55c0-.47 0-.95.09-1.41a21.48 21.48 0 016.18-13.17 6.29 6.29 0 018.89 0 21.31 21.31 0 016.17 13.1c.05.51.08 1 .1 1.53a4.87 4.87 0 01.02.55zM417.37 310.37v.54a10.18 10.18 0 01-.36 2.23 7.51 7.51 0 01-2.37 2c-4.41 2.56-11.57 2.56-16 0a7.72 7.72 0 01-2.35-2 10.24 10.24 0 01-.38-2.29v-.54-.55c0-.47 0-.95.09-1.41a21.53 21.53 0 016.18-13.22 6.3 6.3 0 018.9 0 21.3 21.3 0 016.16 13.1c.05.51.09 1 .11 1.53.02.24.02.42.02.61zM396.66 298.38a4.87 4.87 0 010 .55 9.2 9.2 0 01-.36 2.23 7.73 7.73 0 01-2.36 2 17.65 17.65 0 01-16 0 7.65 7.65 0 01-2.36-2 10.15 10.15 0 01-.37-2.28v-.55-.54c0-.48 0-1 .09-1.42a21.5 21.5 0 016.18-13.22 6.29 6.29 0 018.89 0 21.33 21.33 0 016.17 13.1c0 .52.08 1 .1 1.54a4.78 4.78 0 01.02.59zM398.81 273.19a4.87 4.87 0 010 .55 10.18 10.18 0 01-.36 2.23 7.64 7.64 0 01-2.37 2c-4.41 2.56-11.57 2.56-16 0a7.72 7.72 0 01-2.35-2 10.15 10.15 0 01-.37-2.28v-.55-.54c0-.48 0-.95.08-1.41a21.46 21.46 0 016.19-13.19 6.29 6.29 0 018.89 0 21.33 21.33 0 016.17 13.1c.05.51.08 1 .1 1.53a4.78 4.78 0 01.02.56zM378.09 261.21a4.87 4.87 0 010 .55 9.79 9.79 0 01-.35 2.23 7.78 7.78 0 01-2.37 2c-4.41 2.55-11.57 2.55-16 0a7.58 7.58 0 01-2.35-2 10.16 10.16 0 01-.38-2.28v-.55-.54c0-.48 0-1 .09-1.42a21.5 21.5 0 016.18-13.2 6.29 6.29 0 018.89 0 21.33 21.33 0 016.17 13.1c0 .51.09 1 .1 1.54a4.7 4.7 0 01.02.57zM376 286.43a4.78 4.78 0 010 .54 9.61 9.61 0 01-.35 2.23 7.51 7.51 0 01-2.37 2c-4.41 2.56-11.57 2.56-16 0a7.6 7.6 0 01-2.35-2 10.16 10.16 0 01-.38-2.28v-.54-.55c0-.48 0-.95.09-1.41a21.45 21.45 0 016.18-13.22 6.29 6.29 0 018.89 0 21.28 21.28 0 016.17 13.1c.05.51.09 1 .1 1.53a4.87 4.87 0 01.02.6zM355.24 274.45a4.87 4.87 0 010 .55 9.12 9.12 0 01-.36 2.23 7.66 7.66 0 01-2.37 2c-4.41 2.56-11.56 2.56-16 0a7.72 7.72 0 01-2.35-2 10.15 10.15 0 01-.37-2.28v-.55-.54c0-.48 0-1 .08-1.42a21.57 21.57 0 016.19-13.22 6.29 6.29 0 018.89 0 21.33 21.33 0 016.17 13.11c.05.51.08 1 .1 1.53a4.78 4.78 0 01.02.59z" fill="#fafafa"/></g><path d="M403.77 283.75l-107.18-61.87 6.22 67.36a18.26 18.26 0 008.07 12.76l85.52 49.38c3.66 2.12 9.42 2.32 13.5.59l.31-.12.18-.09a7.56 7.56 0 00.75-.38l50.93-29.41a18.29 18.29 0 008.08-12.74l6.21-67.36zm-74 11.95a5.16 5.16 0 01-.5 2.36 5.19 5.19 0 01-2.29-.74l-2.78-1.6a12.26 12.26 0 01-5.53-9.58V261.8a5.37 5.37 0 01.49-2.37 5.24 5.24 0 012.31.75l2.77 1.61a12.19 12.19 0 015.53 9.58zm27.65 16a5.31 5.31 0 01-.49 2.37 5.16 5.16 0 01-2.3-.75l-2.77-1.6a12.22 12.22 0 01-5.53-9.57v-24.38a5.45 5.45 0 01.48-2.37 5 5 0 012.31.75l2.78 1.61a12.17 12.17 0 015.52 9.57zm27.66 16a5.23 5.23 0 01-.5 2.37 5.32 5.32 0 01-2.29-.74l-2.78-1.6a12.26 12.26 0 01-5.53-9.58v-24.42a5.29 5.29 0 01.49-2.36 5.11 5.11 0 012.31.75l2.77 1.6a12.22 12.22 0 015.53 9.58zm47.06-8.75a12.26 12.26 0 01-5.53 9.58l-2.78 1.6a5.19 5.19 0 01-2.29.74 5.16 5.16 0 01-.5-2.36v-24.4a12.19 12.19 0 015.53-9.58l2.77-1.61a5.08 5.08 0 012.31-.74 5.29 5.29 0 01.49 2.36zm24.2-14a12.21 12.21 0 01-5.54 9.57l-2.76 1.6a5.11 5.11 0 01-2.31.75 5.31 5.31 0 01-.49-2.37v-24.37a12.22 12.22 0 015.53-9.57l2.77-1.6a4.92 4.92 0 012.3-.75 5.13 5.13 0 01.5 2.36z" fill="#6f9639"/><path d="M403.77 283.75l-107.18-61.87 6.22 67.36a18.26 18.26 0 008.07 12.76l85.52 49.38c3.66 2.12 9.42 2.32 13.5.59l.31-.12.18-.09a7.56 7.56 0 00.75-.38l50.93-29.41a18.29 18.29 0 008.08-12.74l6.21-67.36zm-74 11.95a5.16 5.16 0 01-.5 2.36 5.19 5.19 0 01-2.29-.74l-2.78-1.6a12.26 12.26 0 01-5.53-9.58V261.8a5.37 5.37 0 01.49-2.37 5.24 5.24 0 012.31.75l2.77 1.61a12.19 12.19 0 015.53 9.58zm27.65 16a5.31 5.31 0 01-.49 2.37 5.16 5.16 0 01-2.3-.75l-2.77-1.6a12.22 12.22 0 01-5.53-9.57v-24.38a5.45 5.45 0 01.48-2.37 5 5 0 012.31.75l2.78 1.61a12.17 12.17 0 015.52 9.57zm27.66 16a5.23 5.23 0 01-.5 2.37 5.32 5.32 0 01-2.29-.74l-2.78-1.6a12.26 12.26 0 01-5.53-9.58v-24.42a5.29 5.29 0 01.49-2.36 5.11 5.11 0 012.31.75l2.77 1.6a12.22 12.22 0 015.53 9.58zm47.06-8.75a12.26 12.26 0 01-5.53 9.58l-2.78 1.6a5.19 5.19 0 01-2.29.74 5.16 5.16 0 01-.5-2.36v-24.4a12.19 12.19 0 015.53-9.58l2.77-1.61a5.08 5.08 0 012.31-.74 5.29 5.29 0 01.49 2.36zm24.2-14a12.21 12.21 0 01-5.54 9.57l-2.76 1.6a5.11 5.11 0 01-2.31.75 5.31 5.31 0 01-.49-2.37v-24.37a12.22 12.22 0 015.53-9.57l2.77-1.6a4.92 4.92 0 012.3-.75 5.13 5.13 0 01.5 2.36z" fill="#fff" opacity=".45"/><path d="M403.77 283.75v63.34c0 4.19 2.65 6.17 6.13 4.85l.31-.12.18-.09a7.56 7.56 0 00.75-.38l50.93-29.41a18.29 18.29 0 008.08-12.74l6.21-67.36zm28.38 35.13a12.26 12.26 0 01-5.53 9.58l-2.78 1.6a5.19 5.19 0 01-2.29.74 5.16 5.16 0 01-.5-2.36v-24.33a12.19 12.19 0 015.53-9.58l2.77-1.61a5.08 5.08 0 012.31-.74 5.29 5.29 0 01.49 2.36zm24.2-14a12.21 12.21 0 01-5.54 9.57l-2.76 1.6a5.11 5.11 0 01-2.31.75 5.31 5.31 0 01-.49-2.37v-24.3a12.22 12.22 0 015.53-9.57l2.77-1.6a4.92 4.92 0 012.3-.75 5.13 5.13 0 01.5 2.36z" fill="#fff" opacity=".4"/><path d="M434.87 296.12v24.34a12.19 12.19 0 01-5.52 9.57l-2.77 1.6c-2.24 1.29-4.16.87-5-.83a5.19 5.19 0 002.29-.74l2.78-1.6a12.26 12.26 0 005.53-9.58v-24.34a5.29 5.29 0 00-.49-2.36c1.87-.1 3.18 1.37 3.18 3.94zM459.08 282.15v24.33a12.24 12.24 0 01-5.53 9.58l-2.77 1.6c-2.24 1.29-4.16.87-5-.83a5.11 5.11 0 002.31-.75l2.76-1.6a12.21 12.21 0 005.54-9.57v-24.34a5.13 5.13 0 00-.5-2.36c1.87-.09 3.19 1.37 3.19 3.94z" fill="#455a64"/><path d="M481.12 241.84v8a2.6 2.6 0 01-1.53 2.13l-72.14 41.63a7.61 7.61 0 01-3.68.88v-8a7.5 7.5 0 003.68-.88l72.14-41.6a2.47 2.47 0 001.51-2.27.34.34 0 01.02.11z" fill="#37474f"/><path d="M403.77 286.49v8a7.62 7.62 0 01-3.69-.88L293.37 232a2.6 2.6 0 01-1.53-2.13v-8-.16a2.52 2.52 0 001.52 2.29l106.71 61.6a7.51 7.51 0 003.7.89z" fill="#263238"/><path d="M481.11 241.84a2.59 2.59 0 01-1.52 2.12l-72.14 41.65a8.11 8.11 0 01-7.37 0L293.37 224a2.6 2.6 0 01-1.53-2.13h4.75l72.6 41.9 34.58 20 72.59-41.91z" fill="#455a64"/><path d="M371.27 295.31v24.34a12.25 12.25 0 005.52 9.58l2.78 1.6c2.23 1.28 4.15.86 5-.83a5.08 5.08 0 01-2.3-.75l-2.78-1.6a12.22 12.22 0 01-5.53-9.57v-24.34a5.31 5.31 0 01.49-2.37c-1.86-.09-3.18 1.37-3.18 3.94zM343.61 279.34v24.34a12.22 12.22 0 005.52 9.58l2.78 1.6c2.24 1.28 4.15.87 5-.83a5.12 5.12 0 01-2.3-.75l-2.77-1.6a12.21 12.21 0 01-5.54-9.57v-24.34a5.17 5.17 0 01.5-2.37c-1.87-.09-3.19 1.37-3.19 3.94zM316 263.38v24.34a12.2 12.2 0 005.53 9.57l2.77 1.6c2.24 1.29 4.16.87 5-.82a5.43 5.43 0 01-2.3-.75l-2.77-1.6a12.22 12.22 0 01-5.53-9.58V261.8a5.29 5.29 0 01.49-2.36c-1.92-.1-3.19 1.37-3.19 3.94z" fill="#37474f"/><path d="M327.36 243.63v.69c0 2.68.55 4 2.88 5.34 1.22.7 1.88-.18 1.88-1.6v-1.69z" fill="#6f9639"/><path d="M327.36 243.63v.69c0 2.68.55 4 2.88 5.34 1.22.7 1.88-.18 1.88-1.6v-1.69z" opacity=".25"/><path d="M341.75 192.1a8.75 8.75 0 013.61-4.85l1.52 5.38-14.77 53.74-4.75-2.75z" fill="#6f9639"/><path d="M341.75 192.1a8.75 8.75 0 013.61-4.85l1.52 5.38-14.77 53.74-4.75-2.75z" opacity=".25"/><path d="M347 190.39l2.66 4.41 10 67.5-5.5-3.17-9.67-63.78a5.38 5.38 0 012.51-4.96z" fill="#6f9639"/><path d="M354.2 259.13v.69c0 2.68.41 4.56 2.73 5.89a1.85 1.85 0 002.77-1.6v-1.81z" fill="#6f9639"/></g><g><path d="M286.36 317.37s-3.89-1.42-4.89-1.35-2.57.62-2.91 2c0 0 2.46 2.35 5.4 2.13s2.4-2.78 2.4-2.78zM315.19 312.37c2.3-7.32 2.24-12.2.65-15-1.07-1.88-4.4-2.63-5.81-2.75s-1.9 1-.61 2.24.82 2.46.12 4a33.55 33.55 0 01-3 5z" fill="#263238"/><path d="M285.71 317.33a11.19 11.19 0 01-2.22.22 8 8 0 01-3.62-1.14 4.48 4.48 0 01-1.73-2.09 5.39 5.39 0 01-.16-2.12 5.77 5.77 0 01.24-1.7 6.45 6.45 0 013.08-3.27c2.91-1.76 6-.23 10.3.52 3.26.56 9.52-4.6 17.18-1.84 7.46 2.69 7.55 10.71 9.05 17.14 2.45 10.49 4.33 7.87 10.53 18.4 5 8.47 6.73 7 12.33 15.26 2.77 4.11 8.23 11.35 11 20.35 3.46 11.11-.72 19.28-7.9 23.47-6.36 3.7-9.79 5-18.62 4.34-4.93-.35-7.87-2.45-9.83-3.58-4 2.29-12.48-3.88-15.48-6.18-5.61-4.3-2.47-8.15 2.47-7a27.2 27.2 0 015.75 2 59.59 59.59 0 01-4.2-11.11c-1.09-4.65-.45-8.57 1.32-9.57a33.11 33.11 0 01-2.3-2.61c-.36 4.16-1.8 16.46-2.09 17.42-.39 1.28-3 3.75-5.38 3.1s-7.37-2.88-8.1-5c-1-2.86 1.87-3.3 6.79-2v-.11c-.14-5.21-.66-12.79-.72-18 0-3.11-.07-6.9-.26-9.42a49.44 49.44 0 01-.18-5c.09-4.21.6-8.79.56-10.78-.07-3.07-.49-6.27-2.74-8.45s-5.16-3.28-7.76-4.86a18.37 18.37 0 01-2.69-1.94c-.78-.71-2.33-2.54-1.77-3.71a6.73 6.73 0 004.58 1 5.23 5.23 0 002.71-1.26c.07-.07.15-.15.13-.25a.24.24 0 00-.27-.23z" fill="#455a64"/><path d="M343.58 394.73a3.64 3.64 0 00-1.14 3.83s2.11 3.4 12 4.49c9.42 1.05 18.61-3 26.73 0s4.75 9.17 5.6 10.81 3.17.5 3.17-4.35-3.26-9.25-9.13-10.65-14.17-.28-22-.15c-8 .13-9.93-3.13-11.2-4.44-1.5-1.52-2.97-.54-4.03.46z" fill="#37474f"/><path d="M281.94 308.56l.1-.12c.13-.17.19-.37.33-.53a1.76 1.76 0 01.84-.39c.45-.13.88-.36.71-.89a.5.5 0 00-.32-.28 3.9 3.9 0 00-1.51-.46 3.85 3.85 0 00-1.8.57 6.53 6.53 0 00-2.65 2.47c-.29.59.44 2.39.44 2.39a1.81 1.81 0 01.15-.82c.35-1 2-1.22 2.92-1.51a2.1 2.1 0 00.79-.43z" fill="#263238"/><path d="M319.58 328.73l-2.14 1.41s-4.2 4.91-13.59 5.33a73.59 73.59 0 01-10.1-.11 1.48 1.48 0 01.41-.73c1.92-2.13 2.48-7.57 0-9.34s-7.66.26-12.15-2.29l1 .65c2.6 1.58 5.55 2.71 7.76 4.86 1.85 1.79 2.46 4.28 2.65 6.82h-.21a2 2 0 00.26.77v.88c0 .52 0 1.18-.07 2l2.1.32a33.21 33.21 0 0026.1-7.1 14.86 14.86 0 01-2.02-3.47z" fill="#37474f"/><path d="M303.49 312.9c-1.51 1.48-3.6 3.38-5.17 5.19-1.34 1.53-2.37.4-3.49-6.66-1-6.05-1.51-7-2.56-7.36-.79-.26-2.17-.09-2.43-.66-.48-1.08 1.19-3.12 5.1-3.76 5.94-.98 10.92 10.94 8.55 13.25z" fill="#263238"/><path d="M318.51 325.68c.2.62.29.95.29.95s-2.85 4.06-12.5 6-13.16.49-13.16.49a10.29 10.29 0 00-.37-1.39s-.49.37-.3 2.62c.13 1.62.35 2.31 1.22 2.51 2.72.62 8.16.56 13.48-.63 8.2-1.84 12.25-5 13-5.76s.49-1.4-.21-3.05-1.06-1.86-1.45-1.74z" fill="#6f9639"/><path d="M305.2 369.46c2.82-1.64 9.42-.26 15.37 7.07 0 0-.25-4.64-5.87-7.9s-9.7-2.16-11.21-1.08zM306.24 389.27c1.16.45 1.87.81 1.87.81 1.49 3 3.46 6.36 3.46 6.36s-3.99-3.65-5.33-7.17zM298.5 388.33a4.84 4.84 0 011.15-.36 4.61 4.61 0 011 .41 4.9 4.9 0 01.87.62c.11.09.69.65.5.79s-.13 0-.18 0a8.88 8.88 0 00-2.42-1.22 7.63 7.63 0 00-.92-.24zM297.08 389.77a2.06 2.06 0 01.34-.59c1.42.25 3 .71 3.32 2 0 0 0 .21-.09.16a10.26 10.26 0 00-1.84-1.07 7.8 7.8 0 00-1.73-.5zM287.66 380.2a2.47 2.47 0 011.1-.46h.22a3.08 3.08 0 011.56.83v.12a7 7 0 00-2.26-.52 3.88 3.88 0 00-.62.03zM287.16 381.14a1.48 1.48 0 01.2-.59 4 4 0 01.5.08c.52.13 1.19.37 1.31 1 0 0 0 .11-.05.09a11.17 11.17 0 00-1.51-.51c-.15-.06-.3-.06-.45-.07z" fill="#37474f"/></g><g><path d="M256.43 190c7.39-.5 12.1.48 15.76 9 4.65 10.78 10.61 31 12.2 37.67.74 3.13.73 5.76-2.36 9.3-6.61 7.55-15.31 16.36-15.31 16.36L262 245.8l5.75-8.46-6.93-18.76z" fill="#ffa8a7"/><path d="M267.76 237.34a34.74 34.74 0 004 5.58 9.23 9.23 0 01-4.9-4.22z" fill="#f28f8f"/><path d="M191.27 416.64a7.22 7.22 0 00-.09 3.87c.37.78 2.69 3.34 7.43 4.27s11.24 0 14-.17 11.61.9 14.4 1.28c4.4.6 7.78-.37 9.42-2a3 3 0 00.66-2.32 11.51 11.51 0 00-.47-3.13z" fill="#37474f"/><path d="M235.93 413.88c.09.37.17.73.24 1.1a18.61 18.61 0 01.41 5.71 5.2 5.2 0 01-3.38 2.55c-3.31 1.05-5.83.88-9.5.19a67.47 67.47 0 00-11.14-.69c-2.89.2-6.86.75-9.75.49a23.59 23.59 0 01-7.17-1.46c-1.93-.83-3.89-1.89-4.36-3.87-.57-4.17 1.18-6 3.17-7.18s4.78-1.08 7.79-1.28c2.72-.18 4.7-.18 7.12-.37a34.11 34.11 0 006.14-1.17c1.82-.58 3.78-2.59 4.56-2.68 0 0 12.11-.09 13.27 0 1.33.11 1.74 4.26 1.91 5.16.13.7.15 1.46.34 2.14.12.48.24.9.35 1.36z" fill="#6f9639"/><path d="M235.93 413.88c.09.37.17.73.24 1.1a18.61 18.61 0 01.41 5.71 5.2 5.2 0 01-3.38 2.55c-3.31 1.05-5.83.88-9.5.19a67.47 67.47 0 00-11.14-.69c-2.89.2-6.86.75-9.75.49a23.59 23.59 0 01-7.17-1.46c-1.93-.83-3.89-1.89-4.36-3.87-.57-4.17 1.18-6 3.17-7.18s4.78-1.08 7.79-1.28c2.72-.18 4.7-.18 7.12-.37a34.11 34.11 0 006.14-1.17c1.82-.58 3.78-2.59 4.56-2.68 0 0 12.11-.09 13.27 0 1.33.11 1.74 4.26 1.91 5.16.13.7.15 1.46.34 2.14.12.48.24.9.35 1.36z" opacity=".4"/><path d="M198.61 422.67c-.38-3-.88-9.53 4.65-13.29h.71a13.76 13.76 0 00-7.66 0c-4.43 1.18-6.4 4.76-5.29 8.55-.02-.04.98 3.62 7.59 4.74z" fill="#fafafa"/><path d="M240.34 350.06c-.39 6.92-6.83 54.13-7.39 56.66-.34 1.51-2.25 3.12-7.22 2.95-3.49-.11-6.24.18-6.1-2.56l-3.51-59.95z" fill="#ffa8a7"/><path d="M241.49 378c-.18 2.12-.46 4 .41 6.38 1.24 3.36 3.88 4.9 5.43 6.22a45.19 45.19 0 014.51 5.2c1.51 1.84 1.84 3 4.2 5 1.47 1.21 5.58 2.21 8.11 1.14 2-.84 2.66-1.51 2.54-4.54s-9.79-4.07-9.79-4.07z" fill="#37474f"/><path d="M265.44 388.36c.82.29 1 1.79 1.15 4.76.1 2.24 1.09 5.53-2.16 6.95-2.63 1.14-6.82.38-8.6-1.74a106.4 106.4 0 00-6.86-8.19c-2.74-2.8-5.6-3.74-6.81-9.33-.79-3.6-.17-5.09 2.37-6.12 3.5-1.42 9 3.22 11.74 3.94 2.36.63 8.34 9.43 9.17 9.73z" fill="#6f9639"/><path d="M265.44 388.36c.82.29 1 1.79 1.15 4.76.1 2.24 1.09 5.53-2.16 6.95-2.63 1.14-6.82.38-8.6-1.74a106.4 106.4 0 00-6.86-8.19c-2.74-2.8-5.6-3.74-6.81-9.33-.79-3.6-.17-5.09 2.37-6.12 3.5-1.42 9 3.22 11.74 3.94 2.36.63 8.34 9.43 9.17 9.73z" opacity=".4"/><path d="M269.68 335.18c.46 18.94-2.52 38-3.9 54.34-.24 1.61-8.31 4.91-11 .21-.16-.35-7.53-53.67-7.53-53.67z" fill="#ffa8a7"/><path d="M243.76 384.94s.27-6.45 9.31-7.53l-.16-1.14a7.77 7.77 0 00-3.53-2c-3.14-.81-5.62 0-7.27 2s.02 7.38 1.65 8.67z" fill="#fafafa"/><path d="M269.26 323s-.52-13.26-.2-27.52c.2-8.95.38-14.08 0-20.34a143.2 143.2 0 00-2.51-20.83s-49.61-9.46-50.21 8.35c-.73 21.34-1.42 63.66-1.47 69.24s.3 9.31.87 21.18c7.9 1.93 19.07.72 25.3-1.61.22-6 .36-9.39.36-9.39l2.44-38.22s.63 7.48 1.06 15.31.3 9.72 1.51 24.16c5 2.31 19.74 2.16 23.7-2.19a156.85 156.85 0 00-.85-18.14z" fill="#37474f"/><path d="M215.09 302.42c7 1.66 18.62 1.23 18.62 1.23s-.16 25.09-1.45 28.38-16.19 2.75-18 0c.02-13.41.83-29.61.83-29.61zM262 279s-6.47 8.89-14.27 12.22l-2.92 26-.95-13 1.8-15.72s9.88-4.31 16.34-9.5z" fill="#263238"/><path fill="#ffa8a7" d="M236.28 182.83l.11 16.26 16.43-.17.27-18.88-16.81 2.79z"/><path d="M269.64 198.21c-1.35-4.43-6-8.07-11.94-8.25h-4.75c-.67 2.74-9.46 4-16.62 2.33-2.16.57-10.59 2.14-12.39 2.74-5.15 1.71-6.19 6.94-7 23.74 0 0-1.36 27.88-.83 48.81 9 4.78 23.84 4.71 33.8 3.7 15.64-1.58 18.67-7.29 18.67-7.29a172.54 172.54 0 01-.69-21.75c.19-6.83 2.16-14.07 2.77-21.82.9-11.56-.1-19.17-1.02-22.21z" fill="#6f9639"/><path d="M269.64 198.21c-1.35-4.43-6-8.07-11.94-8.25h-4.75c-.67 2.74-9.46 4-16.62 2.33-2.16.57-10.59 2.14-12.39 2.74-5.15 1.71-6.19 6.94-7 23.74 0 0-1.36 27.88-.83 48.81 9 4.78 23.84 4.71 33.8 3.7 15.64-1.58 18.67-7.29 18.67-7.29a172.54 172.54 0 01-.69-21.75c.19-6.83 2.16-14.07 2.77-21.82.9-11.56-.1-19.17-1.02-22.21z" opacity=".3"/><path d="M224 162s-4.36 6.58-3.95 7.17 3.82 1 3.82 1z" fill="#f28f8f"/><path d="M235.8 141c-7.82 1.31-10.71 6-11.86 19.6a121 121 0 00-.06 13.15c.5 5.93 1.61 7.42 2.8 8.75s8.37 1.73 11.61 1c4.06-.94 13.24-3.77 17.75-10.07 5.31-7.42 6-16.68 1.88-22.15-9.54-12.84-18.92-10.85-22.12-10.28z" fill="#ffa8a7"/><path d="M226.68 182.47c.9 1 6.26 1.53 9.61 1.27v-1.93a25 25 0 01-9.61.66z" fill="#f28f8f"/><path d="M230.28 153a7.07 7.07 0 004.43 7.54A9.61 9.61 0 00234 164a2.9 2.9 0 00.3 1.7 1.09 1.09 0 002 .05 14.57 14.57 0 011.75-2.75 5.32 5.32 0 013.4-1.71c4.89-.33 5.24 6.07 3.18 8.63-3.37 4.19-6 1.15-6 1.15s-.84 5.28 4.72 10.52a8.28 8.28 0 004.38 1.57c1.41.18 3.94.37 5.28-.38 2.73-4.43 8.53-11.84 10.6-15.75 2-3.76 4.33-8.13 3.32-12.51a7.19 7.19 0 00-3.27-4.64 9.54 9.54 0 001-3.93c-.08-2.41-2.52-4.46-4.9-3.39a4.29 4.29 0 00-6.85-4.57 4.15 4.15 0 00-8.06-1.87 5.69 5.69 0 00-10 .85 8.15 8.15 0 00-5.59-1.21 5.79 5.79 0 00-4.42 3.42 4.52 4.52 0 001.4 5.23c-1.79.1-3.18 2.48-3.19 4.28.03 1.38.95 6 7.23 4.31z" fill="#263238"/><path d="M167.85 208.43c1.26 2.37 15.2 27.88 19.25 31.74 2.89 2.75 7.35 4.62 12 .65 8.62-7.4 22-19.07 22-19.07 10.28-8.14 11.7-22.95 7-27.7-2.42.13-9.82.68-14.61 6.28-9.82 11.46-20.29 23.23-20.29 23.23-2.57-3.4-4.86-6.08-7.63-9.94-2.21-3.09-5.66-6.32-5.8-10.34-.07-2.1.69-4.19 1-6.25.42-2.68.79-5.33 1.23-8a2.14 2.14 0 00-.14-1.58 1.6 1.6 0 00-2.18-.07 5.71 5.71 0 00-1.53 2.26c-.41.92-.83 1.83-1.25 2.74-.19.43-.48.92-.95.93-1.48 0-1.72-3.12-2.1-4.09a16.23 16.23 0 01-.73-3.94c-.22-1.6-.43-3.2-.64-4.79-.06-.46-.17-1-.59-1.21s-1.12.18-1.48.63a6.27 6.27 0 00-1.2 2.49c-.49 2.12.12 4.52-1 6.41a12.44 12.44 0 01-1.62 1.94 22.09 22.09 0 00-1.91 2.61c-1 1.54-1.64 2.8-1.16 4.63a48.45 48.45 0 004.33 10.44z" fill="#ffa8a7"/><path d="M193.14 223.56c-2.63 2.88-4.18 8.59-4.18 8.59s-.28-6.05 2.79-10.4z" fill="#f28f8f"/></g></svg>