<svg xmlns="http://www.w3.org/2000/svg" viewBox="0 0 500 500"><defs><clipPath id="a"><path d="M258.66 183.31a55.71 55.71 0 01-6.66 22.78c-6.45 12.14-3.41 35.11-.19 34s22.79-14.09 25.45-21.48 2.08-18.41 6.83-30.17 7.78-18.44 7.78-18.44-28.28 12.93-33.21 13.31z" fill="#d9d9d9" stroke="#263238" stroke-linecap="round" stroke-linejoin="round"/></clipPath><clipPath id="b"><path d="M271 101.89a48.37 48.37 0 00-16.51 18.6c-6.07 12.34-5.69 28.66-5.69 28.66s.57 18.22-.38 25.43 8 12.34 12.14 12.53 17.08-8.35 23.16-10.82 7.78-2.85 13.66-8.73 15.95-23.73 16.52-33.78-1.15-21.78-9.9-28.85-20.48-9.3-33-3.04z" fill="#d9d9d9" stroke="#263238" stroke-linecap="round" stroke-linejoin="round"/></clipPath><clipPath id="c"><path d="M295.67 269.48s5.31 13.47 9.11 18 14 11.95 22.58 17.65 10.25 18.41 8.92 23.15-5.31 8.54-14.23 6.08-16.14-13.1-23.54-24.11-12.33-19.17-12.9-19.74 10.06-21.03 10.06-21.03z" fill="#d9d9d9" stroke="#263238" stroke-linecap="round" stroke-linejoin="round"/></clipPath><clipPath id="d"><path d="M301.36 416s4.95 1.81 15.19-2.17c14.59-5.66 37.86-24.83 37.86-24.83a95.55 95.55 0 01-34 0c-18.81-3.38-28.93-8.44-28.93-8.44l-19.78 28.23z" fill="#fff" stroke="#263238" stroke-linecap="round" stroke-linejoin="round"/></clipPath><clipPath id="e"><path d="M317.76 365.87s7.9-1.27 3.56 10.55-18.51 22.24-20.2 30.68.24 8.92.24 8.92l-24.59-5.3s1.93-18.33 15.43-32.31 25.56-12.54 25.56-12.54z" fill="#fff" stroke="#263238" stroke-linecap="round" stroke-linejoin="round"/></clipPath><clipPath id="f"><path d="M269.77 424s4.1-1 8.2-7 13.26-25.08 20.74-35.21 19.05-15.91 19.05-15.91l-58.6-6.51s-23.87 26.76-32.07 36.17-9.16 18.08-3.37 20.25 24.11 4.34 28.93 5.07 13.02 3.84 17.12 3.14z" fill="#fff" stroke="#263238" stroke-linecap="round" stroke-linejoin="round"/></clipPath><clipPath id="g"><path d="M287.38 356s4.82 0 2.17 7.72-18.33 28-23.39 41.71 3.61 18.57 3.61 18.57-1.93 2.89-30.14-3.13-46.29-6.76-48-11.58 9.4-17.84 13.5-28.21 14.47-34.72 14.47-34.72 41 8 49.67 8.68 18.11.96 18.11.96z" fill="#fff" stroke="#263238" stroke-linecap="round" stroke-linejoin="round"/></clipPath><clipPath id="h"><path d="M256.75 386.6s0 1.93 7.24-6.75S287.38 356 287.38 356l-74.51-16.15s-21.22 21.92-23.87 25.29-4.59 4.34 2.41 7.48 42 7 49.43 8.92 15.91 5.06 15.91 5.06z" fill="#fff" stroke="#263238" stroke-linecap="round" stroke-linejoin="round"/></clipPath><clipPath id="i"><path d="M285.42 263s-1.66 5.43-4.07 23.52-6 38.82-10.85 54.25-14.23 37.86-14.95 40.75a5.94 5.94 0 001.2 5.06s-9.4-1.44-35.93-4.34-52.56-15.91-51.84-17.6 18.09-18.81 28-41 25.32-77.89 25.32-77.89 31.35 14.71 40.75 15.68 22.37 1.57 22.37 1.57z" fill="#fff" stroke="#263238" stroke-linecap="round" stroke-linejoin="round"/></clipPath><clipPath id="j"><path d="M285.42 263s-4.37 12.34-9.3 27.52a277.24 277.24 0 00-7.79 30.37s-3.41-1.9-28.84-10.63-57.32-19.36-57.32-19.36 23.91-28.09 29-41.56 7.78-11 19.55-6.45 28.09 12.9 37.57 13.85 17.13 4.39 17.13 6.26z" fill="#fff" stroke="#263238" stroke-linecap="round" stroke-linejoin="round"/></clipPath><clipPath id="k"><path d="M193.37 189.2s1.14 19.35 1.14 20.11-31.32 33.41-38.53 41-7.4 13.85-5.7 18.6 7.6 11.58 12.91 12.33 11.2-4.55 16.51-16.32 24.3-47.26 26.38-51.05 7-7.21 7-7.21 5.12-2.66 7.4-6.46 6.64-11.38 11.38-15 7-4.56 4.94-5.69-8.73 1.32-10.63 2.65-6.07 4.75-6.07 4.75-3.61-5.32-3.8-9.87.95-11.06-1.7-9.73-7.07 11.13-12.72 16.37c-5.29 4.95-8.51 2.67-8.51 5.52z" fill="#d9d9d9" stroke="#263238" stroke-linecap="round" stroke-linejoin="round"/></clipPath></defs><path d="M165.31 113.34s-60.68 35-88.69 85-21.23 111.5 20.06 155.03 113.68 33 176.66 58.33 129.83 15.2 154.37-48.12-20.52-83.64-32.95-154.39-85.65-171-229.45-95.85z" fill="#6f9639"/><path d="M165.31 113.34s-60.68 35-88.69 85-21.23 111.5 20.06 155.03 113.68 33 176.66 58.33 129.83 15.2 154.37-48.12-20.52-83.64-32.95-154.39-85.65-171-229.45-95.85z" fill="#fff" opacity=".7"/><path fill="#b5b5b5" d="M155.26 134.91h60.5v80.67h-60.5z"/><path fill="#6f9639" d="M160.8 142.3h49.41v65.88H160.8z"/><path fill="#fff" opacity=".5" d="M160.8 142.3h49.41v65.88H160.8z"/><path fill="#b5b5b5" d="M88.7 181.97h51.43v68.57H88.7z"/><path fill="#6f9639" d="M93.42 188.25h42v56h-42z"/><path fill="#fff" opacity=".5" d="M93.42 188.25h42v56h-42z"/><path d="M300.68 337.65h126.53V134.79H300.68zm66-48.78h55.53V284H366.7v-45.32h55.53v-4.92H366.7v-44.33h55.53v-4.92H366.7v-44.8h55.89v193H366.7zM305.3 139.71h56.78v44.8H305.3zm0 49.72h56.78v44.33H305.3zm0 49.25h56.78V284H305.3zm0 50.19h56.78v43.86H305.3zm121.48-158.73a63.51 63.51 0 00-126.49 0l-.3 3.32h127.09zm-120-2.76A57 57 0 01321.13 97l35.68 30.35zm53.1-5.38l-34.39-29.25a57.25 57.25 0 0134.39-14.15zM366 78.53a57.28 57.28 0 0133 12l-33 31zm2.69 48.85l34.91-32.8a57.1 57.1 0 0116.77 32.8z" fill="#b5b5b5"/><path d="M253.91 198.31s-19.17 1.13-29.42.94-17.65-2.65-20.3 1.9-3 2.66-7.41 10.82-45.11 45.48-45.95 51.36c-1.33 9.28 8.28 15.91 13.59 17.24s34.15-27.52 34.15-27.52-2.93 47-3.87 66.34-1.52 76.11-1.52 76.11h98.31s-1.9-45.93-1.71-55.23 11-55 11-55-.76 18 1.71 25.24 18.86 23.91 28.35 20.49 4.67-17.83 3.53-27.89-1.14-39.1-1.14-58.27 1.14-23-5.5-25.24-19.55-4.93-29.42-8.73-25.24-8.16-27.9-9.11-16.5-3.45-16.5-3.45z" fill="#263238" stroke="#263238" stroke-linecap="round" stroke-linejoin="round"/><path fill="none" stroke="#263238" stroke-linecap="round" stroke-linejoin="round" d="M75.77 395.5h348.46"/><path d="M259.79 192.42s-6.26-.38-11.57 5.7-18 26.95-19.93 29.6 1.71 1.33 5.31.95 14.43-1.9 16.89-.95 12.72 2.09 16.9 6.65 13.47 14.8 14.8 12.14 4.55-14.8 6.07-23 2.66-16.32-3.6-24.49-24.87-6.6-24.87-6.6z" fill="#6f9639" stroke="#263238" stroke-linecap="round" stroke-linejoin="round"/><path d="M258.66 183.31a55.71 55.71 0 01-6.66 22.78c-6.45 12.14-3.41 35.11-.19 34s22.79-14.09 25.45-21.48 2.08-18.41 6.83-30.17 7.78-18.44 7.78-18.44-28.28 12.93-33.21 13.31z" fill="#d9d9d9"/><g clip-path="url(#a)"><path d="M258.66 183.31a49.63 49.63 0 01-2.37 12.49 27 27 0 008.63 1.07c10.28 0 11.34-1.77 11.34-1.77s-2.13 15.24-4.61 22.68c-1.43 4.31-3.46 9.09-4.92 12.36 4.9-3.93 9.35-8.26 10.53-11.53 2.65-7.4 2.08-18.41 6.83-30.17s7.78-18.44 7.78-18.44-28.28 12.93-33.21 13.31z" opacity=".15"/></g><path d="M258.66 183.31a55.71 55.71 0 01-6.66 22.78c-6.45 12.14-3.41 35.11-.19 34s22.79-14.09 25.45-21.48 2.08-18.41 6.83-30.17 7.78-18.44 7.78-18.44-28.28 12.93-33.21 13.31z" fill="none" stroke="#263238" stroke-linecap="round" stroke-linejoin="round"/><path d="M271 101.89a48.37 48.37 0 00-16.51 18.6c-6.07 12.34-5.69 28.66-5.69 28.66s.57 18.22-.38 25.43 8 12.34 12.14 12.53 17.08-8.35 23.16-10.82 7.78-2.85 13.66-8.73 15.95-23.73 16.52-33.78-1.15-21.78-9.9-28.85-20.48-9.3-33-3.04z" fill="#d9d9d9"/><g clip-path="url(#b)"><path d="M256.3 185.87a12 12 0 004.25 1.24c4.18.19 17.08-8.35 23.16-10.82s7.78-2.85 13.66-8.73 15.95-23.73 16.52-33.78a46.37 46.37 0 00-1.89-16.84 27.75 27.75 0 00-12 8.69c-7.09 8.86 0 16-6 25.52s-15.61 14.85-22.7 22.33-5.39 12.2-15 12.39z" opacity=".15"/></g><path d="M271 101.89a48.37 48.37 0 00-16.51 18.6c-6.07 12.34-5.69 28.66-5.69 28.66s.57 18.22-.38 25.43 8 12.34 12.14 12.53 17.08-8.35 23.16-10.82 7.78-2.85 13.66-8.73 15.95-23.73 16.52-33.78-1.15-21.78-9.9-28.85-20.48-9.3-33-3.04z" fill="none" stroke="#263238" stroke-linecap="round" stroke-linejoin="round"/><path d="M263.59 143.93s-2.66 1.33-2.66 2.85 1.9 1.89 1.9 1.89m2.09-4.17s-2.66 3-1.33 4.93 5.31.57 5.31.57-.19.95 2.09 1.14 3.61-2.66 2.28-4.55l-1.33-1.9" fill="none" stroke="#263238" stroke-linecap="round" stroke-linejoin="round"/><path d="M266.87 134.17c-.46 1.37-1.36 2.31-2 2.09s-.82-1.51-.37-2.88 1.35-2.31 2-2.09.82 1.51.37 2.88z" fill="#263238" stroke="#263238" stroke-linecap="round" stroke-linejoin="round"/><path d="M267.2 131.78a2.84 2.84 0 00-3.8-1.52c-2.66 1.14-4 7.79-1.14 9.11" fill="none" stroke="#263238" stroke-linecap="round" stroke-linejoin="round"/><path d="M282.81 138.72c-.46 1.38-1.36 2.31-2 2.1s-.82-1.51-.37-2.88 1.36-2.31 2-2.09.82 1.5.37 2.87z" fill="#263238" stroke="#263238" stroke-linecap="round" stroke-linejoin="round"/><path d="M283.14 136.34a2.83 2.83 0 00-3.8-1.52c-2.65 1.14-4 7.78-1.14 9.11m-19.35 17.37c-1.14-.57-6.08-3.61-5.89-5.51s2.09-4.55 4-2.85 6.83 5.32 6.83 5.32 2.85 3.42 8.16 1" fill="none" stroke="#263238" stroke-linecap="round" stroke-linejoin="round"/><path d="M259.23 125.61s2.46-4.74 5.88-5.12 5.12 3.42 5.12 4m7.97 3.59s3.42 4.18 11 4.56" fill="none" stroke="#263238" stroke-linecap="round" stroke-linejoin="round" stroke-width="4"/><path d="M313.89 133.78c.56-10.06-1.14-21.83-9.87-28.85s-20.5-9.3-33-3c0 0-.92.55-2.36 1.64a23 23 0 0015.84 8.8c11.76 1.33 15.56-1 19 1.52s4.36 9.3 1.89 11.57-8.35 2.09-8.73 5.51 5.51 11.58 4.75 14.23-2.28 4.37-1.14 5.51 4.37-.38 5.12-.76.36 4.22-1.86 9.57c4.94-7.93 9.96-18.73 10.36-25.74z" fill="#263238" stroke="#263238" stroke-linecap="round" stroke-linejoin="round"/><path d="M297.94 154.65s4.75-6.26 8.16-6.26 5.13 5.5 3.23 10.63-5.31 7.78-9.49 8.16-4.55-1.71-4.17-3" fill="#d9d9d9" stroke="#263238" stroke-linecap="round" stroke-linejoin="round"/><path d="M295.67 269.48s5.31 13.47 9.11 18 14 11.95 22.58 17.65 10.25 18.41 8.92 23.15-5.31 8.54-14.23 6.08-16.14-13.1-23.54-24.11-12.33-19.17-12.9-19.74 10.06-21.03 10.06-21.03z" fill="#d9d9d9"/><g clip-path="url(#c)"><path d="M336.28 328.31c1.33-4.74-.38-17.46-8.92-23.15s-18.79-13.1-22.58-17.65-9.11-18-9.11-18S285 290 285.61 290.54s5.5 8.73 12.9 19.74l.26.39 5.14-7.83s27.64 21.27 28.35 26.23a20.53 20.53 0 010 4.83 9.1 9.1 0 004.02-5.59z" opacity=".15"/></g><path d="M295.67 269.48s5.31 13.47 9.11 18 14 11.95 22.58 17.65 10.25 18.41 8.92 23.15-5.31 8.54-14.23 6.08-16.14-13.1-23.54-24.11-12.33-19.17-12.9-19.74 10.06-21.03 10.06-21.03z" fill="none" stroke="#263238" stroke-linecap="round" stroke-linejoin="round"/><path d="M301.36 416s4.95 1.81 15.19-2.17c14.59-5.66 37.86-24.83 37.86-24.83a95.55 95.55 0 01-34 0c-18.81-3.38-28.93-8.44-28.93-8.44l-19.78 28.23z" fill="#fff"/><g clip-path="url(#d)"><path d="M301.36 416s4.95 1.81 15.19-2.17c14.59-5.66 37.86-24.83 37.86-24.83a95.55 95.55 0 01-34 0c-18.81-3.38-28.93-8.44-28.93-8.44l-19.78 28.23z" fill="#6f9639"/><path d="M301.36 416s4.95 1.81 15.19-2.17c14.59-5.66 37.86-24.83 37.86-24.83a95.55 95.55 0 01-34 0c-18.81-3.38-28.93-8.44-28.93-8.44l-19.78 28.23z" fill="#fff" opacity=".5"/></g><path d="M301.36 416s4.95 1.81 15.19-2.17c14.59-5.66 37.86-24.83 37.86-24.83a95.55 95.55 0 01-34 0c-18.81-3.38-28.93-8.44-28.93-8.44l-19.78 28.23z" fill="none" stroke="#263238" stroke-linecap="round" stroke-linejoin="round"/><path fill="#fff" stroke="#263238" stroke-linecap="round" stroke-linejoin="round" d="M274.62 405.88l38.08 6.39m5.28-3.33l-37.8-6.95m41.69 3.61l-32.52-5.84m38.08 1.67l-30.85-5.83m32.8 2.22l-29.19-5"/><path d="M317.76 365.87s7.9-1.27 3.56 10.55-18.51 22.24-20.2 30.68.24 8.92.24 8.92l-24.59-5.3s1.93-18.33 15.43-32.31 25.56-12.54 25.56-12.54z" fill="#fff"/><g clip-path="url(#e)"><path d="M317.76 365.87s7.9-1.27 3.56 10.55-18.51 22.24-20.2 30.68.24 8.92.24 8.92l-24.59-5.3s1.93-18.33 15.43-32.31 25.56-12.54 25.56-12.54z" opacity=".15"/></g><path d="M317.76 365.87s7.9-1.27 3.56 10.55-18.51 22.24-20.2 30.68.24 8.92.24 8.92l-24.59-5.3s1.93-18.33 15.43-32.31 25.56-12.54 25.56-12.54z" fill="none" stroke="#263238" stroke-linecap="round" stroke-linejoin="round"/><path d="M269.77 424s4.1-1 8.2-7 13.26-25.08 20.74-35.21 19.05-15.91 19.05-15.91l-58.6-6.51s-23.87 26.76-32.07 36.17-9.16 18.08-3.37 20.25 24.11 4.34 28.93 5.07 13.02 3.84 17.12 3.14z" fill="#fff"/><g clip-path="url(#f)"><path d="M269.77 424s4.1-1 8.2-7 13.26-25.08 20.74-35.21 19.05-15.91 19.05-15.91l-58.6-6.51s-23.87 26.76-32.07 36.17-9.16 18.08-3.37 20.25 24.11 4.34 28.93 5.07 13.02 3.84 17.12 3.14z" fill="#6f9639"/><path d="M269.77 424s4.1-1 8.2-7 13.26-25.08 20.74-35.21 19.05-15.91 19.05-15.91l-58.6-6.51s-23.87 26.76-32.07 36.17-9.16 18.08-3.37 20.25 24.11 4.34 28.93 5.07 13.02 3.84 17.12 3.14z" fill="#fff" opacity=".5"/></g><path d="M269.77 424s4.1-1 8.2-7 13.26-25.08 20.74-35.21 19.05-15.91 19.05-15.91l-58.6-6.51s-23.87 26.76-32.07 36.17-9.16 18.08-3.37 20.25 24.11 4.34 28.93 5.07 13.02 3.84 17.12 3.14zm3.63-8.3l-52.68-11.2m56 4.57l-52.69-11.21m56.84 3.74l-52.69-11.2m57.26 2.07l-52.69-11.2m57.66 2.07l-52.68-11.2m56.83 3.74l-52.69-11.2m58.92 5.39l-52.69-11.2" fill="none" stroke="#263238" stroke-linecap="round" stroke-linejoin="round"/><path d="M287.38 356s4.82 0 2.17 7.72-18.33 28-23.39 41.71 3.61 18.57 3.61 18.57-1.93 2.89-30.14-3.13-46.29-6.76-48-11.58 9.4-17.84 13.5-28.21 14.47-34.72 14.47-34.72 41 8 49.67 8.68 18.11.96 18.11.96z" fill="#fff"/><g clip-path="url(#g)"><path d="M287.38 356s-9.41-.24-18.09-1-49.67-8.68-49.67-8.68-10.37 24.35-14.47 34.72a78.69 78.69 0 01-5.79 11l66 15.91c.22-.82.49-1.67.82-2.56 5.06-13.74 20.73-34 23.39-41.71s-2.19-7.68-2.19-7.68z" opacity=".15"/></g><path d="M287.38 356s4.82 0 2.17 7.72-18.33 28-23.39 41.71 3.61 18.57 3.61 18.57-1.93 2.89-30.14-3.13-46.29-6.76-48-11.58 9.4-17.84 13.5-28.21 14.47-34.72 14.47-34.72 41 8 49.67 8.68 18.11.96 18.11.96z" fill="none" stroke="#263238" stroke-linecap="round" stroke-linejoin="round"/><path d="M256.75 386.6s0 1.93 7.24-6.75S287.38 356 287.38 356l-74.51-16.15s-21.22 21.92-23.87 25.29-4.59 4.34 2.41 7.48 42 7 49.43 8.92 15.91 5.06 15.91 5.06z" fill="#fff"/><g clip-path="url(#h)"><path d="M256.75 386.6s0 1.93 7.24-6.75S287.38 356 287.38 356l-74.51-16.15s-21.22 21.92-23.87 25.29-4.59 4.34 2.41 7.48 42 7 49.43 8.92 15.91 5.06 15.91 5.06z" fill="#6f9639"/><path d="M256.75 386.6s0 1.93 7.24-6.75S287.38 356 287.38 356l-74.51-16.15s-21.22 21.92-23.87 25.29-4.59 4.34 2.41 7.48 42 7 49.43 8.92 15.91 5.06 15.91 5.06z" fill="#fff" opacity=".5"/></g><path d="M256.75 386.6s0 1.93 7.24-6.75S287.38 356 287.38 356l-74.51-16.15s-21.22 21.92-23.87 25.29-4.59 4.34 2.41 7.48 42 7 49.43 8.92 15.91 5.06 15.91 5.06zm5.64-7.68s-45-5.28-57.54-7.79m61.43.56s-26.69-2.78-37.81-5m43.65-2.51s-32.8-5.83-41.14-8.06m46.42 2.23l-39.2-9.18" fill="none" stroke="#263238" stroke-linecap="round" stroke-linejoin="round"/><path d="M285.42 263s-1.66 5.43-4.07 23.52-6 38.82-10.85 54.25-14.23 37.86-14.95 40.75a5.94 5.94 0 001.2 5.06s-9.4-1.44-35.93-4.34-52.56-15.91-51.84-17.6 18.09-18.81 28-41 25.32-77.89 25.32-77.89 31.35 14.71 40.75 15.68 22.37 1.57 22.37 1.57z" fill="#fff"/><g clip-path="url(#i)"><path d="M281.35 286.54c2.41-18.09 4.07-23.52 4.07-23.52s-13-.6-22.4-1.56-40.75-15.68-40.75-15.68-11.05 39.89-20.44 65.6L273 332.1a405.61 405.61 0 008.35-45.56z" opacity=".15"/></g><path d="M285.42 263s-1.66 5.43-4.07 23.52-6 38.82-10.85 54.25-14.23 37.86-14.95 40.75a5.94 5.94 0 001.2 5.06s-9.4-1.44-35.93-4.34-52.56-15.91-51.84-17.6 18.09-18.81 28-41 25.32-77.89 25.32-77.89 31.35 14.71 40.75 15.68 22.37 1.57 22.37 1.57z" fill="none" stroke="#263238" stroke-linecap="round" stroke-linejoin="round"/><path d="M291.68 252.21s4.74 1.13 6.07 8.54 1.14 25.81.57 28.09S282 293.2 275.17 294s-3.23-1.71-.19-12.53 6.26-18.79 7.78-21.06 4.74-10.48 8.92-8.2z" fill="#d9d9d9" stroke="#263238" stroke-linecap="round" stroke-linejoin="round"/><path d="M286.54 260.67s1.25 26.48 1.77 29.41-17.37 4.26-17.37 4.26l11-30.84" opacity=".15"/><path d="M286.93 300s-6.45 4.56-8.73 5.7-14.42-3.8-14.8-5.51 2.09-1.33 5.5-1 9.3 1.33 11.77.38 6.83-1.81 6.26.43z" fill="#d9d9d9" stroke="#263238" stroke-linecap="round" stroke-linejoin="round"/><path d="M295.29 292.06s-2.09 5.7-4.75 7.4-13.47 3.42-18.22 3-8.73-3.42-7.59-5.12-.19-.76 6.26-1.71 14.43-1.52 17.84-2.66a19 19 0 016.46-.91z" fill="#d9d9d9" stroke="#263238" stroke-linecap="round" stroke-linejoin="round"/><path d="M295.85 280.86s-7.21 3.8-13.09 6.46a60.08 60.08 0 01-5.9 2.19 62.1 62.1 0 01-7.2.46c-4.17 0-6.64-.37-6.64 1.33 0 2.6 4.55 4 6.48 4.53 6.71 1.92 14.62-.43 21.38-1.54a14.15 14.15 0 004.22-1.29c3.51-1.71 4.17-5.88 3.6-8.35l-.23-.3" fill="#d9d9d9" stroke="#263238" stroke-linecap="round" stroke-linejoin="round"/><path d="M285.42 263s-4.37 12.34-9.3 27.52a277.24 277.24 0 00-7.79 30.37s-3.41-1.9-28.84-10.63-57.32-19.36-57.32-19.36 23.91-28.09 29-41.56 7.78-11 19.55-6.45 28.09 12.9 37.57 13.85 17.13 4.39 17.13 6.26z" fill="#fff"/><g clip-path="url(#j)"><path d="M285.42 263s-4.37 12.34-9.3 27.52a277.24 277.24 0 00-7.79 30.37s-3.41-1.9-28.84-10.63-57.32-19.36-57.32-19.36 23.91-28.09 29-41.56 7.78-11 19.55-6.45 28.09 12.9 37.57 13.85 17.13 4.39 17.13 6.26z" fill="#6f9639"/><path d="M285.42 263s-4.37 12.34-9.3 27.52a277.24 277.24 0 00-7.79 30.37s-3.41-1.9-28.84-10.63-57.32-19.36-57.32-19.36 23.91-28.09 29-41.56 7.78-11 19.55-6.45 28.09 12.9 37.57 13.85 17.13 4.39 17.13 6.26z" fill="#fff" opacity=".5"/></g><path d="M285.42 263s-4.37 12.34-9.3 27.52a277.24 277.24 0 00-7.79 30.37s-3.41-1.9-28.84-10.63-57.32-19.36-57.32-19.36 23.91-28.09 29-41.56 7.78-11 19.55-6.45 28.09 12.9 37.57 13.85 17.13 4.39 17.13 6.26zm-18.59 40.31l-63.65-21.96m66.32 14.48l-61.32-21.15m63.94 13.62l-59.49-20.57m61.71 11.4l-55.59-18.91m57.26 10.29l-51.71-18.35" fill="none" stroke="#263238" stroke-linecap="round" stroke-linejoin="round"/><ellipse cx="199.84" cy="280.38" rx="2.5" ry="1.81" fill="none" stroke="#263238" stroke-linecap="round" stroke-linejoin="round"/><ellipse cx="205.12" cy="273.71" rx="2.5" ry="1.81" fill="none" stroke="#263238" stroke-linecap="round" stroke-linejoin="round"/><ellipse cx="209.29" cy="267.45" rx="2.5" ry="1.81" fill="none" stroke="#263238" stroke-linecap="round" stroke-linejoin="round"/><ellipse cx="213.74" cy="258.83" rx="2.5" ry="1.81" fill="none" stroke="#263238" stroke-linecap="round" stroke-linejoin="round"/><path d="M222.08 250.5c0-1-1.12-1.81-2.5-1.81s-2.5.81-2.5 1.81 1.12 1.8 2.5 1.8 2.5-.81 2.5-1.8z" fill="none" stroke="#263238" stroke-linecap="round" stroke-linejoin="round"/><path d="M290.92 258.09s-5.88 10.25-9.68 11.77-14.8-.19-14-2.66 6.26-3.23 9.87-8 6.83-11 10.24-10.06 5.89 4.93 6.08 6.26" fill="#d9d9d9" stroke="#263238" stroke-linecap="round" stroke-linejoin="round"/><path d="M193.37 189.2s1.14 19.35 1.14 20.11-31.32 33.41-38.53 41-7.4 13.85-5.7 18.6 7.6 11.58 12.91 12.33 11.2-4.55 16.51-16.32 24.3-47.26 26.38-51.05 7-7.21 7-7.21 5.12-2.66 7.4-6.46 6.64-11.38 11.38-15 7-4.56 4.94-5.69-8.73 1.32-10.63 2.65-6.07 4.75-6.07 4.75-3.61-5.32-3.8-9.87.95-11.06-1.7-9.73-7.07 11.13-12.72 16.37c-5.29 4.95-8.51 2.67-8.51 5.52z" fill="#d9d9d9"/><g clip-path="url(#k)"><path d="M236.83 179.52c-2.09-1.14-8.73 1.32-10.63 2.65s-6.07 4.75-6.07 4.75-3.61-5.32-3.8-9.87.95-11.06-1.7-9.73-7.07 11.13-12.72 16.37a14 14 0 01-5.15 3.2l-.95 4s3.9 2.49 3.9 5.68 5 4.25 5.31 7.44-2.12 6.73-3.9 8.86-30.48 51.74-37.92 57.77c-3.11 2.51-7.2 2.74-10.91 2.16 2.62 3.95 6.92 7.93 10.9 8.49 5.31.76 11.2-4.55 16.51-16.32s24.3-47.26 26.38-51.05 7-7.21 7-7.21 5.12-2.66 7.4-6.46 6.64-11.38 11.38-15 7.06-4.6 4.97-5.73z" opacity=".15"/></g><path d="M193.37 189.2s1.14 19.35 1.14 20.11-31.32 33.41-38.53 41-7.4 13.85-5.7 18.6 7.6 11.58 12.91 12.33 11.2-4.55 16.51-16.32 24.3-47.26 26.38-51.05 7-7.21 7-7.21 5.12-2.66 7.4-6.46 6.64-11.38 11.38-15 7-4.56 4.94-5.69-8.73 1.32-10.63 2.65-6.07 4.75-6.07 4.75-3.61-5.32-3.8-9.87.95-11.06-1.7-9.73-7.07 11.13-12.72 16.37c-5.29 4.95-8.51 2.67-8.51 5.52z" fill="none" stroke="#263238" stroke-linecap="round" stroke-linejoin="round"/><path d="M251.82 168.32l.09.15a2.19 2.19 0 01-.85 3l-36.08 20L208 193l4.77-5.49 36.08-20a2.19 2.19 0 012.97.81z" fill="#6f9639" stroke="#263238" stroke-linecap="round" stroke-linejoin="round"/><path fill="#fff" stroke="#263238" stroke-linecap="round" stroke-linejoin="round" d="M214.98 191.47l.26-.15-2.22-3.97-.26.14-4.76 5.49 6.98-1.51zm32.36-17.94l3.72-2.08a2.19 2.19 0 00.85-3l-.09-.15a2.19 2.19 0 00-3-.85l-3.72 2.08z"/><path fill="#fff" stroke="#263238" stroke-linecap="round" stroke-linejoin="round" d="M243.625 170.395l1.99-1.112 2.223 3.982-1.99 1.111zM208 192.98l3.29-.72-1.05-1.87-2.24 2.59z"/><path d="M201.91 193.75s-.57 4.56-4.18 4.74" fill="none" stroke="#263238" stroke-linecap="round" stroke-linejoin="round"/><path d="M212.15 171s6.64 10.63 8.92 12.72 5.12 1.71 5.69-.19-3.22-5.88-4.74-11-2.09-6.64-5.13-5.88-4.55 2.48-4.74 4.35z" fill="#d9d9d9" stroke="#263238" stroke-linecap="round" stroke-linejoin="round"/><path d="M222.78 184.64s-11.95-6.07-14.61-9.11-5.69.95-6.26 3 8.73 5.88 13.09 7.4 7 2.09 8.35.57-.57-1.86-.57-1.86z" fill="#d9d9d9" stroke="#263238" stroke-linecap="round" stroke-linejoin="round"/><path d="M202.67 180.27s-4 1.33-4.75 3 1.33 2.85 5.13 5.13 9.87 3 11.38 2.27 1.71-2.27-.38-3-9.67-6.26-11.38-7.4z" fill="#d9d9d9" stroke="#263238" stroke-linecap="round" stroke-linejoin="round"/><path d="M199.25 186.16s-4.36-1.14-5.69 1.33.19 4 4.74 5.31 11.39 2.28 11.58-.19-3.61-2.85-6.83-4.17-3.8-2.28-3.8-2.28z" fill="#d9d9d9" stroke="#263238" stroke-linecap="round" stroke-linejoin="round"/><g><path d="M92.47 347.58s-2.18-7.1-8.56-9.65c-4.43-1.78-9.52-1.31-14.11-.51-8.55 1.48-16 4.88-24.12 7.79 0 0 3.46-1.28 17.66 5.64 5.23 2.55 11.21 4.53 17.19 4.39 4.81-.1 12.17-1.47 11.94-7.66zm.77-20.86s0-7.43-5.4-11.71c-3.73-3-8.75-4-13.37-4.57-8.62-1-16.74.05-25.34.49 0 0 3.68-.22 15.28 10.51 4.27 3.95 9.42 7.57 15.19 9.17 4.63 1.28 12.07 2.1 13.64-3.89zm14.68 27.58s-5.79-4.65-5.81-11.51c0-4.77 2.29-9.34 4.73-13.31 4.53-7.4 10.44-13.08 16.13-19.54 0 0-2.46 2.74-1.26 18.49.44 5.8.07 12.09-2.26 17.6-1.87 4.43-5.86 10.77-11.53 8.27zm20.52 11.41s-.82-7.39 4-12.26c3.36-3.38 8.22-5 12.75-6.08 8.44-2 16.63-1.88 25.23-2.44 0 0-3.68.21-14 12.2-3.79 4.42-8.49 8.61-14 10.87-4.42 1.81-11.73 3.48-13.98-2.29z" fill="#6f9639"/><path d="M127.09 339.39s-7.36-1-10.9-6.89c-2.46-4.09-2.82-9.19-2.77-13.85.09-8.68 2.24-16.59 3.8-25 0 0-.7 3.61 8.42 16.51 3.35 4.76 6.27 10.34 7.1 16.26.67 4.71.5 12.2-5.65 12.97zm21.18-13.22s5.3 5.22 12.12 4.43c4.73-.54 9-3.37 12.66-6.25 6.82-5.36 11.77-11.9 17.53-18.3 0 0-2.44 2.76-18.22 3.41-5.82.24-12 1.34-17.22 4.3-4.14 2.37-10.01 7.07-6.87 12.41z" fill="#6f9639"/><path d="M142.14 321s7.4.74 12.22-4.14c3.35-3.39 4.9-8.27 5.95-12.81 1.95-8.46 1.71-16.65 2.18-25.25 0 0-.17 3.68-12.06 14.08-4.38 3.84-8.52 8.58-10.72 14.14-1.71 4.49-3.36 11.81 2.43 13.98z" fill="#6f9639"/><path fill="none" stroke="#263238" stroke-linecap="round" stroke-linejoin="round" d="M115.76 392.96L103 361.56l-14.72-36.31m30.42 62.31l12.76-43.67 13.73-26.98m-21.58 53.48l12.75-7.36m-4.9-19.14l-6.38-14.23m14.36.07l15.57-6.94m-49.56 44.65l5.4-21.59m-12.55 5.18l-12.47-6.65"/><path fill="#263238" stroke="#263238" stroke-linecap="round" stroke-linejoin="round" d="M128.49 408.66h-23.01l-4.93-26.01h32.87l-4.93 26.01z"/></g></svg>