<svg xmlns="http://www.w3.org/2000/svg" viewBox="0 0 500 500"><path d="M262.42 116.82a20.06 20.06 0 003.2-1.46 12.58 12.58 0 005.67-7.93 13.48 13.48 0 00.28-3.41 18.69 18.69 0 00-.74-3.72c-.69-2.59-1.44-5.41-2.25-8.42l-5.46-20.54-6.6-24.9c-.59-2.24-1.19-4.51-1.81-6.83a12.56 12.56 0 00-3.28-6.15 12.11 12.11 0 00-6.28-3.39 14.38 14.38 0 00-7.39.67L172.25 48a12.17 12.17 0 00-6.89 4.86 11.9 11.9 0 00-2.05 8.06 28.25 28.25 0 00.94 4.19c.37 1.41.73 2.81 1.1 4.2q1.1 4.18 2.17 8.29c2.87 11 5.63 21.53 8.27 31.61q2 7.56 3.84 14.72a13.89 13.89 0 002.93 6.38 12.09 12.09 0 005.63 3.71c4.38 1.54 8.73-.55 12.88-1.45l12-3.11 36.11-9.32 9.83-2.49 2.56-.62c.58-.14.88-.18.88-.18s-.28.11-.85.27l-2.54.72-9.79 2.66-36 9.62-12 3.17-6.36 1.67a12.93 12.93 0 01-13-4.12 14.64 14.64 0 01-3.13-6.7q-1.89-7.14-3.88-14.71c-2.65-10.07-5.44-20.63-8.32-31.59l-2.18-8.29q-.56-2.08-1.11-4.2a28.83 28.83 0 01-1-4.33 12.89 12.89 0 012.21-8.71A13.15 13.15 0 01172 47l65.52-17.16a15.29 15.29 0 017.79-.66 13 13 0 016.69 3.69 13.46 13.46 0 013.47 6.54c.6 2.31 1.2 4.59 1.78 6.83 2.33 9 4.5 17.3 6.48 24.93s3.76 14.51 5.33 20.57q1.17 4.55 2.18 8.44A20.36 20.36 0 01272 104a13.33 13.33 0 01-.34 3.52 12.65 12.65 0 01-5.93 8 10.92 10.92 0 01-2.42 1.06c-.59.18-.89.24-.89.24z" fill="#e0e0e0"/><path d="M236.08 91.22a3.58 3.58 0 01-.61.21l-1.76.5-6.56 1.81-22 5.92h-.18l-.08-.17-1.52-3.49-10.65-25.52.16.07-5.88 1.5-1.57.38-.55.11a2.94 2.94 0 01.53-.18l1.55-.45 5.86-1.62h.12v.11l10.79 25.47 1.48 3.53-.25-.13 22.08-5.78 6.59-1.68 1.78-.43a4.2 4.2 0 01.67-.16z" fill="#e0e0e0"/><path d="M202.45 93.26s.05 0 .15-.06l.45-.14 1.77-.5 6.62-1.82 22.88-6.15-.15.22c-.34-4-.71-8.39-1.1-12.91-.19-2.32-.39-4.6-.57-6.78l.27.19-27 7.08-8 2.06-2.16.54-.56.12h-.2l.19-.06.55-.17 2.15-.61 8-2.18 27-7.22.24-.07v.25c.18 2.18.37 4.46.57 6.78.38 4.52.74 8.88 1.08 12.92v.17h-.17l-22.92 6-6.65 1.7-1.79.44-.46.11zM215 105.81s-.11-.26-.37-.69a3.18 3.18 0 00-1.57-1.31 3.08 3.08 0 00-2.88.36 3 3 0 104.13 4.34 3.17 3.17 0 00.71-1.91c0-.5-.06-.78 0-.79a1.65 1.65 0 01.19.79 3.21 3.21 0 01-.64 2.1 3.35 3.35 0 01-3 1.33 3.4 3.4 0 01-1.64-6.19 3.32 3.32 0 013.22-.31 3.27 3.27 0 011.6 1.51 1.66 1.66 0 01.25.77zm20-5.29s-.11-.27-.37-.69a3.23 3.23 0 00-1.57-1.31 3 3 0 101.25 4.7 3.2 3.2 0 00.71-1.92c0-.49-.06-.77 0-.78a1.58 1.58 0 01.19.78 3.18 3.18 0 01-.64 2.1 3.35 3.35 0 01-2.95 1.33 3.39 3.39 0 01-1.62-6.18 3.34 3.34 0 013.23-.31 3.23 3.23 0 011.6 1.51 1.64 1.64 0 01.17.77z" fill="#e0e0e0"/><path d="M416.68 475.65c-22.45-11-31.09-36.62-33.92-60.37-.47-4-1.55-8-.2-11.8s5.35-6.79 9.14-5.67c3.14.93 4.94 4.14 7 6.7a23.41 23.41 0 0010.61 7.42c2.71.91 5.94 1.23 8.21-.52 3.12-2.4 2.79-7.16 2.17-11.08l-3.51-21.91c-.63-3.92-1.26-7.92-.61-11.83s2.81-7.78 6.38-9.4 8.52-.18 9.89 3.54c.58 1.54.51 3.25.87 4.86s1.39 3.3 3 3.52 3-1.14 4-2.47c3.44-4.58 5.4-10.1 7.19-15.57s3.48-11.05 6.49-15.93 7.56-9.09 13.13-10.28 12.09 1.37 14.36 6.66-.04 11.42-2.88 16.48a88.53 88.53 0 01-15.55 20.18c-1.1 1.07-2.3 2.22-2.55 3.75-.45 2.74 2.43 5 5.14 5.42 3.08.53 6.2-.26 9.32-.38s6.63.73 8.23 3.45c2.23 3.76-.48 8.48-3.36 11.74A76 76 0 01459 408.35c-2.73 1.49-5.62 2.89-7.64 5.27s-2.87 6.13-1 8.68 5.57 2.88 8.51 1.85 5.39-3.08 8.1-4.61c5.08-2.87 12.1-3.57 16.27.56 2.74 2.72 3.59 6.95 3 10.78s-2.43 7.32-4.46 10.6c-7.08 11.47-16.88 21.33-28.72 27.59s-23.25 9.22-36.37 6.58" fill="#f5f5f5"/><path d="M420.5 459.9a355.33 355.33 0 018.13-40q1.35-5.26 2.67-10.38c.88-3.4 1.76-6.77 2.82-10a179.05 179.05 0 017.17-18.31c2.56-5.71 5.2-11 7.7-16s4.95-9.54 7.35-13.62a140.54 140.54 0 0112.72-18.39c1.66-2 3-3.59 3.93-4.62l1.06-1.17a2.58 2.58 0 01.38-.38 4.11 4.11 0 01-.32.43l-1 1.22c-.88 1.06-2.19 2.63-3.82 4.71a148.39 148.39 0 00-12.5 18.47c-2.36 4.08-4.76 8.67-7.25 13.63s-5.09 10.31-7.63 16a180.82 180.82 0 00-7.1 18.26c-1.05 3.23-1.91 6.57-2.8 10s-1.76 6.87-2.66 10.37a365.41 365.41 0 00-8.18 39.9" fill="#e0e0e0"/><path d="M434.32 399.46a8.68 8.68 0 01-.64-1.61c-.37-1.06-.86-2.6-1.43-4.51-1.16-3.82-2.57-9.15-4.11-15s-3-11.18-4.24-15c-.6-1.9-1.1-3.43-1.46-4.49a8 8 0 01-.48-1.66 7.79 7.79 0 01.75 1.56c.44 1 1 2.54 1.68 4.42 1.34 3.77 2.91 9.06 4.45 14.95s2.86 11.06 3.9 15.08c.48 1.81.89 3.34 1.22 4.56a7.56 7.56 0 01.36 1.7z" fill="#e0e0e0"/><path d="M483.31 382.28a11.48 11.48 0 01-2 .55c-1.27.31-3.12.76-5.39 1.38-4.54 1.21-10.76 3.1-17.53 5.48s-12.79 4.83-17.1 6.72c-2.16.92-3.89 1.72-5.09 2.26a11.44 11.44 0 01-1.9.79 11.11 11.11 0 011.77-1c1.17-.63 2.87-1.5 5-2.49 4.27-2 10.29-4.53 17.07-6.93a180.2 180.2 0 0117.64-5.3c2.29-.56 4.16-.93 5.46-1.15a11.08 11.08 0 012.07-.31zM421 458.88a2.51 2.51 0 01-.44-.56l-1.15-1.69c-1-1.48-2.35-3.65-4-6.35-3.32-5.4-7.68-13-12.37-21.47s-9-16.1-12.17-21.57l-3.87-6.46c-.41-.7-.75-1.28-1-1.76a2.61 2.61 0 01-.32-.65 3.3 3.3 0 01.44.57c.31.46.69 1 1.14 1.69 1 1.47 2.36 3.64 4 6.34 3.32 5.41 7.67 13 12.37 21.48s9 16.1 12.17 21.56l3.81 6.46 1 1.77a2.91 2.91 0 01.39.64zM484.67 427a2.4 2.4 0 01-.62.38l-1.85.95-6.82 3.43c-5.75 2.9-13.66 7-22.39 11.52s-16.68 8.56-22.5 11.34c-2.91 1.39-5.27 2.49-6.92 3.22l-1.91.83a2.91 2.91 0 01-.68.24 2.94 2.94 0 01.62-.38l1.85-.95 6.81-3.43c5.76-2.89 13.67-7 22.4-11.52s16.68-8.56 22.49-11.34c2.91-1.39 5.28-2.49 6.93-3.22l1.9-.82a2.71 2.71 0 01.69-.25z" fill="#e0e0e0"/><path d="M32.47 113.69s-11.15 2.71-2.3 26.85 15.52 36.37 15.52 36.37 1.42 5.53-3.13 5.81-14.13-2.46-16.77 2.73c-2.74 5.39.72 11.21 8.46 16.88S58.49 221.05 60 222.24s2.74 3.81-.32 4.5-25.35.32-24.89 10.9 24.6 22.85 27.21 24.24 3.13 2.63 2.73 4.11-7.89.65-14.23.8-13.67 1.45-12.89 7.54 14.24 20.3 50.16 28.26l16.88 2.6 11-13.21c21.73-29.68 22.47-49.25 19-54.34s-9.79-1.22-14.66 2.85-9.94 9.63-11.22 8.79-1.71-2.12-.67-4.89 11.11-27.92 4.47-36.18-23.14 6.73-25.9 8.24-3.54-1.34-3.21-3.18 4.12-22.56 6.2-31.93.82-16-4.79-18.26c-5.41-2.17-10.81 6.23-14.41 9s-6.18-2.3-6.18-2.3-3.06-13.59-12.34-37.57-19.69-18.46-19.69-18.46" fill="#ebebeb"/><path d="M105.05 309.28c-6.75-17.63-18.22-49.18-28.21-76.21s-19.05-51.48-25.71-69.15c-3.33-8.81-6-16-7.91-20.91-.92-2.46-1.65-4.37-2.14-5.69-.24-.64-.42-1.13-.55-1.49s-.17-.51-.17-.51.08.16.22.49l.6 1.47 2.24 5.65c1.93 4.91 4.69 12 8.06 20.86 6.75 17.63 15.87 42.07 25.86 69.1s21.4 58.59 28.06 76.26" fill="#e0e0e0"/><path d="M39.06 189.83a6 6 0 011.14.48c.72.33 1.75.84 3 1.48 2.52 1.29 6 3.17 9.74 5.3l9.62 5.5 2.92 1.65a5.5 5.5 0 011 .64 5 5 0 01-1.14-.46c-.72-.33-1.75-.84-3-1.5-2.52-1.32-5.94-3.23-9.7-5.37L43 192.12l-2.93-1.63a4.56 4.56 0 01-1.01-.66zm28.78 14.11c-.13-.07 3.42-7.34 7.92-16.25s8.27-16.07 8.4-16-3.42 7.34-7.92 16.25-8.24 16.06-8.4 16zm13.47 42.2a5.15 5.15 0 01.81-1l2.34-2.5c2-2.12 4.69-5 7.56-8.4s5.39-6.46 7.18-8.73l2.13-2.69a6.2 6.2 0 01.83-.95 6 6 0 01-.66 1.07c-.46.67-1.13 1.63-2 2.8a154.463 154.463 0 01-14.77 17.16c-1 1-1.86 1.84-2.46 2.39a6.51 6.51 0 01-.96.85zm-28.85-7.03a4.51 4.51 0 011.16.16l3.11.63c2.61.55 6.22 1.35 10.2 2.27s7.58 1.77 10.17 2.42l3.07.79a5.23 5.23 0 011.11.36 4.42 4.42 0 01-1.15-.16L77 245c-2.62-.55-6.23-1.35-10.21-2.27s-7.57-1.77-10.17-2.42l-3.07-.79a4.82 4.82 0 01-1.09-.41zm7.16 38.76a9.45 9.45 0 011.47.22l4 .79c3.36.69 8 1.68 13.1 2.81s9.74 2.17 13.07 2.95l4 1a8.52 8.52 0 011.44.42 7.15 7.15 0 01-1.48-.22l-4-.79c-3.36-.69-8-1.68-13.1-2.81S68.34 280 65 279.25l-4-1a6.92 6.92 0 01-1.38-.38zm36.19 7.71a8.45 8.45 0 011-1.25l2.85-3.28c2.41-2.78 5.71-6.62 9.25-11s6.64-8.36 8.86-11.28l2.64-3.46a9.22 9.22 0 011-1.23 9.14 9.14 0 01-.84 1.35c-.58.86-1.43 2.08-2.51 3.57-2.15 3-5.21 7-8.75 11.39s-6.9 8.16-9.38 10.88c-1.24 1.35-2.26 2.44-3 3.17a10.76 10.76 0 01-1.12 1.14z" fill="#e0e0e0"/><path d="M465.14 477.48c0 .15-96.33.26-215.13.26s-215.15-.11-215.15-.26 96.31-.26 215.15-.26 215.13.12 215.13.26z" fill="#263238"/><path d="M418.6 65.58h-29a7.19 7.19 0 00-7 7.36v5.26a7.19 7.19 0 01-7 7.36h-56.55a7.23 7.23 0 01-7.05-7.37v-5.31a7.22 7.22 0 00-7-7.36h-35.59a22.85 22.85 0 00-22.85 22.83l-.07 366.17a22.83 22.83 0 0022.82 22.83l149.34.09a22.82 22.82 0 0022.84-22.82l.07-366.18a22.83 22.83 0 00-22.96-22.86z" fill="#fff"/><path d="M418.6 65.58h.78a15.43 15.43 0 012.31.17 21.64 21.64 0 018.57 3 22.23 22.23 0 015.2 4.22 22.63 22.63 0 014.35 6.82 23.64 23.64 0 011.71 9.27v10.76c0 30.42.05 74.43.08 128.8s0 119.14 0 191v34.22a24.17 24.17 0 01-.87 7 23.1 23.1 0 01-2.92 6.44 24.8 24.8 0 01-4.75 5.27 23.16 23.16 0 01-13.19 5.12c-4.78.14-9.54 0-14.34.06H270.89a24.2 24.2 0 01-14.89-4.19 23.4 23.4 0 01-9-12.5 25.28 25.28 0 01-.95-7.72V88.68c0-.92.08-1.85.13-2.77s.23-1.83.46-2.72a23.36 23.36 0 014.81-9.68 23.17 23.17 0 0118.61-8.24h34.16a7.33 7.33 0 014.5 1.25 7.61 7.61 0 012.79 3.67 12 12 0 01.46 4.51V77a17.39 17.39 0 00.07 2.18 7.21 7.21 0 001.83 3.82 6.72 6.72 0 003.49 2.16 7.76 7.76 0 002.05.21h56.83a6.8 6.8 0 002.79-1 7.23 7.23 0 003.2-4.6 12.35 12.35 0 00.18-2.78v-2.73a14.77 14.77 0 01.12-2.66 7.55 7.55 0 01.86-2.44A7.22 7.22 0 01387 66a11.49 11.49 0 014.54-.48h27.02-27.02c-1.46 0-3-.15-4.46.49a7 7 0 00-3.53 3.13 7.74 7.74 0 00-.83 2.38 16.12 16.12 0 00-.11 2.62v2.73a13.59 13.59 0 01-.18 2.83 7.49 7.49 0 01-3.3 4.77 7 7 0 01-2.91 1c-1.06.09-2.08 0-3.14 0h-53.67a7.93 7.93 0 01-2.15-.21 7 7 0 01-3.68-2.28 7.63 7.63 0 01-1.81-4 16.72 16.72 0 01-.07-1.98v-2.26a11.83 11.83 0 00-.45-4.37 7.15 7.15 0 00-2.64-3.47 7 7 0 00-4.27-1.18h-34.16a22.7 22.7 0 00-18.25 8.1 22.85 22.85 0 00-4.69 9.48c-.23.87-.3 1.77-.46 2.66s-.11 1.8-.12 2.72v364.64a24.53 24.53 0 00.92 7.54 22.8 22.8 0 008.8 12.15 23.43 23.43 0 0014.5 4h134.68c4.79 0 9.59.08 14.31-.06a22.49 22.49 0 0012.83-5 24 24 0 004.63-5.13 22.52 22.52 0 002.84-6.26 23.67 23.67 0 00.85-6.8v-34.22c0-71.89.07-136.65.1-191s.1-98.38.13-128.8V88.98a23.5 23.5 0 00-1.67-9.2 22.55 22.55 0 00-4.29-6.78 22.68 22.68 0 00-13.66-7.22 18.42 18.42 0 00-2.3-.21c-.47.04-.73.01-.73.01z" fill="#263238"/><path d="M283.39 102.56c0 .09-3.78.21-8.43.24s-8.43 0-8.43-.1 3.77-.21 8.43-.25 8.43.01 8.43.11zm.03 4.31c0 .1-3.77.21-8.42.25s-8.43 0-8.43-.11 3.77-.21 8.42-.25 8.43.01 8.43.11zm.04 4.31c0 .1-3.77.21-8.43.25s-8.43 0-8.43-.11 3.77-.21 8.43-.25 8.43.01 8.43.11z" fill="#263238"/><path fill="#f5f5f5" d="M263.69 384.9h75.05v75.05h-75.05z"/><path d="M329.88 427.84c-6.11-8.53-19.08-14.37-29.62-12.8-8.54 1.27-16.1 5.24-20.24 13.72a3.85 3.85 0 003 5.55 175.86 175.86 0 0042.83-.14c2.19-.28 4.8-.89 4.95-3.6a4.33 4.33 0 00-.92-2.73z" fill="#6f9639"/><path d="M329.88 427.84c-6.11-8.53-19.08-14.37-29.62-12.8-8.54 1.27-16.1 5.24-20.24 13.72" fill="#fff" opacity=".5"/><path d="M296.14 427.41c-.05 0-.49-.39-1.07-1.19a9.66 9.66 0 01-1.62-3.54 17.39 17.39 0 01-.32-3.86 4.85 4.85 0 01.13-1.59 4.88 4.88 0 01.24 1.58 28.63 28.63 0 00.45 3.75 12.49 12.49 0 001.42 3.46 6.27 6.27 0 01.77 1.39zm9.05-.41c-.15 0 .07-2.42-.25-5.36s-1-5.25-.87-5.3a17.64 17.64 0 011.12 10.66zm9.36-1.39c-.15-.06.56-1.67.73-3.79s-.22-3.83-.07-3.87a8.46 8.46 0 01-.66 7.66z" fill="#f5f5f5"/><path d="M303.53 415.44l.08.15z" opacity=".3"/><path fill="#f5f5f5" d="M263.69 142.29h75.92V256.1h-75.92zm0 122.39h75.92v113.81h-75.92zm83.15-21.49h75.92v106.26h-75.92zm-.62 113.73h75.92v103.02h-75.92zm.62-214.63h75.92v94h-75.92z"/><path d="M313.58 176.32v31.55c0 1.38-1.11 2.81-3.15 3.89a19.28 19.28 0 01-8.75 1.82h-.05c-7.45 0-11.9-2.94-11.9-5.71v-31.61c0-3.08 2.27-6.29 4.55-9.47 1.53-2.12 1.9-5.17 2-7v-.58h-.21a1.66 1.66 0 01-1.78-1.52v-1.33a1.67 1.67 0 011.78-1.54h11.19a1.82 1.82 0 011.64.93 1.4 1.4 0 01.14.61v1.33a1.67 1.67 0 01-1.78 1.52H307v.58c.07 1.8.44 4.85 2 7 2.28 3.18 4.54 6.39 4.55 9.47z" fill="#fafafa"/><path d="M313.58 176.32V176a9.13 9.13 0 00-.13-.94 12.24 12.24 0 00-1.32-3.4 47.59 47.59 0 00-3.23-4.87 13.87 13.87 0 01-2-7.55v-.18h.1a1.61 1.61 0 001.8-1.19v-1.34a1.23 1.23 0 00-.45-1.1 1.78 1.78 0 00-1.21-.39h-10.95a1.78 1.78 0 00-1.38.48 1.23 1.23 0 00-.32.63 7.18 7.18 0 000 .82v.84a1.16 1.16 0 00.31.65 1.76 1.76 0 001.44.51h.23v.25a19.37 19.37 0 01-.42 3.84 10.51 10.51 0 01-1.51 3.72 30.58 30.58 0 00-4.13 7 8.62 8.62 0 00-.44 2v30.86a9.47 9.47 0 00.08 1.8 3.39 3.39 0 00.83 1.49 8.37 8.37 0 002.9 2 19.42 19.42 0 006.79 1.39 23.55 23.55 0 006.6-.59 10.45 10.45 0 005.38-2.88 3.57 3.57 0 00.7-1.24 4.68 4.68 0 00.12-1.42v-8.36c0-6.93.06-12.54.08-16.46v-4.48c0-1.06.05-1.56.05-1.56a12.57 12.57 0 01.06 1.56c0 1.06 0 2.56.05 4.48 0 3.92 0 9.53.08 16.46v8.36a5.11 5.11 0 01-.12 1.54 4 4 0 01-.78 1.4 10.71 10.71 0 01-5.6 3 23.76 23.76 0 01-6.73.63 19.88 19.88 0 01-7-1.42 8.73 8.73 0 01-3.08-2.09 4 4 0 01-.95-1.71 9.7 9.7 0 01-.1-1.92V175.72a8.8 8.8 0 01.46-2.12 30.68 30.68 0 014.21-7.11 13.67 13.67 0 001.86-7.28l.24.24a2.21 2.21 0 01-1.78-.67 1.65 1.65 0 01-.43-.9v-.9a6.9 6.9 0 010-.89 1.66 1.66 0 01.45-.87 2.2 2.2 0 011.7-.62h10.95a2.2 2.2 0 011.45.49 1.66 1.66 0 01.58 1.39v1.39a1.94 1.94 0 01-2.15 1.48l.17-.17a13.55 13.55 0 001.88 7.4 47.4 47.4 0 013.18 4.94 11.45 11.45 0 011.24 3.47 7.1 7.1 0 01.09.95 1.07 1.07 0 01.15.38z" fill="#263238"/><path d="M306.41 159.17a47.82 47.82 0 01-10 0 47.82 47.82 0 0110 0z" fill="#263238"/><path d="M312.58 180.53a3.57 3.57 0 00-3.41.15 12.75 12.75 0 01-3.28 1.41 6.23 6.23 0 01-4-1 25.22 25.22 0 00-3.71-2 7.22 7.22 0 00-7.45 1.75v27s1.49 4.61 11.95 3.89 9.63-5.34 9.63-5.34z" fill="#6f9639"/><path d="M393.41 395.25v31.29c0 1.38-1.1 2.79-3.14 3.87a19 19 0 01-8.69 1.81c-7.41 0-11.83-2.93-11.83-5.68v-31.32c0-3.06 2.26-6.25 4.52-9.4 1.53-2.11 1.89-5.15 2-6.93v-.57H376a1.66 1.66 0 01-1.77-1.52v-1.32a1.65 1.65 0 011.77-1.52h11.12a1.8 1.8 0 011.63.92 1.38 1.38 0 01.13.6v1.32a1.65 1.65 0 01-1.76 1.52h-.21v.57c.07 1.78.43 4.82 1.95 6.93 2.27 3.15 4.51 6.34 4.53 9.4.03-.01.02.01.02.03z" fill="#fafafa"/><path d="M393.41 395.25a2.54 2.54 0 000-.32 8.25 8.25 0 00-.12-.94 12.24 12.24 0 00-1.31-3.37 45.2 45.2 0 00-3.22-4.84 13.8 13.8 0 01-2-7.5v-.19h.17a1.59 1.59 0 001.78-1.19v-1.33a1.27 1.27 0 00-.45-1.09 1.81 1.81 0 00-1.2-.39h-10.88a1.76 1.76 0 00-1.37.48 1.19 1.19 0 00-.32.63 6.94 6.94 0 000 .81v.83a1.16 1.16 0 00.31.65 1.74 1.74 0 001.42.5h.24v.25a19.08 19.08 0 01-.42 3.81 10.35 10.35 0 01-1.5 3.69 30.21 30.21 0 00-4.1 7 8 8 0 00-.43 2v30.65a9.3 9.3 0 00.08 1.78 3.45 3.45 0 00.83 1.49 8.42 8.42 0 002.88 2 19.41 19.41 0 006.7 1.34 23.3 23.3 0 006.56-.59 10.26 10.26 0 005.34-2.86 3.53 3.53 0 00.7-1.23 4.65 4.65 0 00.11-1.41v-8.3c0-6.89.06-12.47.08-16.36 0-1.91 0-3.4.05-4.44s0-1.55 0-1.55a10.11 10.11 0 01.06 1.55v4.44c0 3.89.05 9.47.09 16.36v8.3a4.79 4.79 0 01-.13 1.53 4 4 0 01-.77 1.39 10.67 10.67 0 01-5.56 3 23.52 23.52 0 01-6.69.63 19.7 19.7 0 01-6.92-1.41 8.72 8.72 0 01-2.92-2.05 4 4 0 01-.94-1.7 9.54 9.54 0 01-.1-1.9v-30.72a8.91 8.91 0 01.46-2.12 30.39 30.39 0 014.18-7.05 13.69 13.69 0 001.85-7.23l.23.23a2.2 2.2 0 01-1.76-.66 1.57 1.57 0 01-.42-.9v-.89a6.79 6.79 0 010-.89 1.7 1.7 0 01.45-.86 2.2 2.2 0 011.69-.62h10.88a2.15 2.15 0 011.44.49 1.65 1.65 0 01.58 1.38v1.38a2 2 0 01-2.14 1.48l.17-.17a13.5 13.5 0 001.86 7.34 43.75 43.75 0 013.16 4.91 11.46 11.46 0 011.24 3.45 5.48 5.48 0 01.08.94c.03.25.02.36 0 .36z" fill="#263238"/><path d="M386.29 378.2a47.25 47.25 0 01-9.9 0 47.25 47.25 0 019.9 0z" fill="#263238"/><path d="M392.42 399.43a3.53 3.53 0 00-3.39.14 12.76 12.76 0 01-3.25 1.41 6.28 6.28 0 01-4-1 24.46 24.46 0 00-3.69-2 7.16 7.16 0 00-7.39 1.75v26.86s1.47 4.59 11.86 3.87 9.58-5.31 9.58-5.31z" fill="#6f9639"/><path d="M392.42 399.43a3.53 3.53 0 00-3.39.14 12.76 12.76 0 01-3.25 1.41 6.28 6.28 0 01-4-1 24.46 24.46 0 00-3.69-2 7.16 7.16 0 00-7.39 1.75v26.86s1.47 4.59 11.86 3.87 9.58-5.31 9.58-5.31z" fill="#fff" opacity=".5"/><path d="M409.69 281.54a2.2 2.2 0 00-2.1.24c-.15.1-.31.22-.46.34a28.75 28.75 0 01-17.56 5.63c-12.29 0-22.47-6.89-24.29-15.89v-1.7a1.23 1.23 0 10-2.45 0v4.76a1.21 1.21 0 00.07.33 14.74 14.74 0 00-1.31 5.94c0 10.39 11 18.83 24.61 18.83 11.41 0 21-5.93 23.8-14a.22.22 0 00.06-.13 5 5 0 00.53-2.07 2.35 2.35 0 00-.9-2.28z" fill="#6f9639"/><path d="M364.36 276.5s11.59 26.66 43 8c0 0-8.09 8.4-18.64 10.44-9.56 1.83-23.72-3.56-24.36-18.44z" opacity=".3"/><path d="M410.55 282.88c-.19.46-.94.59-1.67.28s-1.17-.94-1-1.4.94-.58 1.67-.27 1.2.93 1 1.39zM422.26 111a.72.72 0 01-.25 0h-3.34l-8.83.08h-.07v-.07c-.07-.47-.14-1-.22-1.46-.61-4.28-1.15-8.1-1.51-10.6h.05-3a.85.85 0 01-.21 0h3.24V99c.37 2.49.94 6.31 1.58 10.58.07.5.14 1 .21 1.46l-.08-.07h12.42z" fill="#263238"/><path d="M409.46 108.5h3.62l9.16-.09-.08.07c.26-1.55.55-3.22.84-4.94.15-.89.3-1.77.45-2.6l.08.1h-15.16 4.36l10.8-.09h.1v.1l-.44 2.59c-.3 1.73-.59 3.4-.85 5v.06h-12.85zm3.54 5.92s0-.11-.07-.3a1.19 1.19 0 00-.46-.64 1.21 1.21 0 00-1.11-.15 1.17 1.17 0 000 2.19 1.15 1.15 0 001.11-.16 1.22 1.22 0 00.45-.64c.06-.19.06-.3.07-.3a.63.63 0 010 .31 1.29 1.29 0 01-.45.73 1.32 1.32 0 01-1.23.21 1.31 1.31 0 010-2.48 1.31 1.31 0 011.24.2 1.24 1.24 0 01.45.72.57.57 0 010 .31zm8-.05s0-.11-.07-.29a1.16 1.16 0 00-.46-.64 1.18 1.18 0 00-1.11-.15 1.17 1.17 0 101.12 2 1.31 1.31 0 00.46-.65c.05-.19.05-.3.06-.3a.63.63 0 010 .31 1.26 1.26 0 01-.44.73 1.31 1.31 0 01-2.12-1 1.33 1.33 0 01.87-1.25 1.29 1.29 0 011.23.2 1.17 1.17 0 01.45.72.57.57 0 01.01.32z" fill="#263238"/><circle cx="422.84" cy="99.63" r="3.54" transform="rotate(-12.18 422.77 99.613)" fill="#6f9639"/><path d="M423.28 98.27v2.69h-.63v-2.19h-.54v-.5z" fill="#fff"/><rect x="278.27" y="425.59" width="131.13" height="34.42" rx="13.88" fill="#6f9639"/><rect x="278.27" y="425.59" width="131.13" height="34.42" rx="13.88" opacity=".3"/><rect x="273.18" y="425.59" width="131.13" height="34.42" rx="13.88" fill="#6f9639"/><path d="M334.8 440.91c0 1.76-1.28 2.83-3.39 2.83h-2v2.47h-1.16v-8.14h3.18c2.09 0 3.37 1.07 3.37 2.84zm-1.16 0c0-1.17-.78-1.83-2.27-1.83h-2v3.65h2c1.49 0 2.27-.66 2.27-1.82zm7.65 3.26H337l-.89 2h-1.2l3.69-8.14h1.15l3.69 8.14h-1.22zm-.41-.93l-1.75-4-1.76 4zm6.36.15v2.82h-1.15v-2.84l-3.23-5.3h1.24l2.6 4.29 2.62-4.29h1.15z" fill="#fff"/><path d="M304.18 303.41a14.71 14.71 0 00-12.39-16.8 1.14 1.14 0 00-1.45 1.54 17.76 17.76 0 0013.82 15.68" fill="#455a64"/><path d="M283.57 330.56c3.71 7.65 9 12.8 15.65 13.05 1.32 0 2.32-.82 3.58-.9a8.14 8.14 0 012.11.8 3.2 3.2 0 001.11.25c6.82-.37 12.64-5.17 16.56-13.2 5.45-11.25 3.77-23.33-3.76-27a18 18 0 00-3.09-1.2 12.18 12.18 0 00-3.74-.44 27.83 27.83 0 00-8.56 1.93l-.37.14c-6.12-2.71-11-2.72-15.75-.43-7.53 3.67-9.2 15.75-3.74 27z" fill="#6f9639"/><path d="M283.7 319.17a6 6 0 01-.62-2.26 12.15 12.15 0 013.82-10.34 5.67 5.67 0 011.94-1.31c.05.07-.7.56-1.69 1.57a13.29 13.29 0 00-3.71 10c.1 1.45.35 2.31.26 2.34zm1.38 5.34c-.14 0-.38-.5-.54-1.18s-.17-1.27 0-1.31.38.5.54 1.19.14 1.27 0 1.3z" fill="#fafafa"/><path d="M319.75 285c0 .1-1.42.64-3.54 1.91a29.67 29.67 0 00-3.53 2.51 30.94 30.94 0 00-3.68 3.78 30.57 30.57 0 00-3 4.4 28.91 28.91 0 00-1.76 3.95c-.83 2.34-1.07 3.86-1.17 3.84a4.18 4.18 0 01.12-1.08 9.13 9.13 0 01.25-1.25 16.41 16.41 0 01.45-1.62 24.63 24.63 0 011.69-4.07 26.79 26.79 0 016.8-8.31 25.72 25.72 0 013.62-2.46 15.26 15.26 0 011.51-.76 11 11 0 011.17-.5 4.83 4.83 0 011.07-.34z" fill="#263238"/><path d="M412.36 180.35c-6.11-8.52-19.08-14.36-29.62-12.79-8.54 1.27-16.1 5.24-20.24 13.72a3.86 3.86 0 003 5.55 175.86 175.86 0 0042.83-.14c2.2-.28 4.8-.89 4.95-3.6a4.36 4.36 0 00-.92-2.74z" fill="#6f9639"/><path d="M378.62 179.93c-.05 0-.49-.39-1.07-1.19a9.74 9.74 0 01-1.62-3.54 17.39 17.39 0 01-.32-3.86 5.31 5.31 0 01.13-1.6 4.7 4.7 0 01.24 1.58 29 29 0 00.46 3.76 11.9 11.9 0 001.42 3.46 6.19 6.19 0 01.76 1.39zm9.06-.42c-.16 0 .06-2.42-.25-5.36s-1-5.25-.87-5.3a13.53 13.53 0 011.38 5.24 13.76 13.76 0 01-.26 5.42zm9.32-1.38c-.14-.06.56-1.68.73-3.8s-.22-3.83-.07-3.86a8.46 8.46 0 01-.66 7.66z" fill="#263238"/><path d="M386 168l.08.15zm.09.11a9.08 9.08 0 001.5 10.72 14.67 14.67 0 00-1.5-10.72zm-8.7 10.32a14 14 0 01-1.7-5.71 8.46 8.46 0 00-.38-2.61 6.65 6.65 0 00-1.45 4.64 6.75 6.75 0 002.3 4.55 1.75 1.75 0 00.7.4.67.67 0 00.71-.27c.18-.31 0-.69-.18-1zm20.46-7.17a2.73 2.73 0 00-.3-1 .9.9 0 00-.86-.46c-.47.08-.7.61-.84 1.07a11.78 11.78 0 00-.69 6.22c.11.47.42 1 .91 1s.62-.4.79-.73a10.1 10.1 0 00.99-6.1z" opacity=".3"/><path d="M281.48 235.29v.94h-.69v-.93a3.62 3.62 0 01-2.05-.7l.37-.84a3.31 3.31 0 001.68.63v-1.67c-.93-.23-1.93-.53-1.93-1.7 0-.85.62-1.6 1.93-1.72v-1h.69v.93a3.69 3.69 0 011.7.51l-.35.85a3.42 3.42 0 00-1.35-.45v1.69c.93.22 1.94.52 1.94 1.68 0 .91-.63 1.64-1.94 1.78zm-.69-3.59v-1.49c-.59.09-.85.4-.85.76s.36.59.85.73zm1.56 1.94c0-.41-.37-.61-.87-.75v1.48c.61-.09.87-.37.87-.73zm6.08-4.28v5.86h-1.09v-4.95h-1.24v-.91zm2.5 5.22a1.91 1.91 0 01-.19.73l-.43 1.18h-.68l.34-1.29a.63.63 0 01-.39-.62.68.68 0 111.35 0zm4.97-1.16c0 1-.74 1.89-2.32 1.89a3.71 3.71 0 01-2.2-.68l.46-.85a2.79 2.79 0 001.73.58c.77 0 1.24-.34 1.24-.9s-.37-.91-1.58-.91h-1.41l.3-3.19h3.44v.91H293l-.13 1.36h.56c1.78 0 2.47.75 2.47 1.79zm.63-1.13c0-1.93 1.06-3 2.45-3s2.45 1.09 2.45 3-1.05 3-2.45 3-2.45-1.07-2.45-3zm3.81 0c0-1.42-.56-2.07-1.36-2.07s-1.35.65-1.35 2.07.55 2.07 1.35 2.07 1.36-.66 1.36-2.07zm25.33 10.4c0 .15-10.75.26-24 .26s-24-.11-24-.26 10.75-.26 24-.26 24 .12 24 .26zM300 246.6c0 .15-5 .26-11.15.26s-11.16-.11-11.16-.26 5-.26 11.16-.26 11.15.12 11.15.26zm65.65-35.29v.94H365v-.93a3.7 3.7 0 01-2-.69l.37-.85a3.19 3.19 0 001.68.64v-1.68c-.93-.22-1.93-.53-1.93-1.69 0-.85.62-1.6 1.93-1.73v-.94h.69v.93a3.5 3.5 0 011.7.51l-.35.84a3.42 3.42 0 00-1.35-.45v1.69c.93.23 1.94.52 1.94 1.69-.09.85-.68 1.59-2.03 1.72zm-.69-3.58v-1.49c-.6.09-.85.39-.85.76s.36.59.89.73zm1.56 1.93c0-.41-.37-.6-.87-.74v1.48c.61-.09.87-.4.87-.74zm8.3.67v.92h-4.33v-.73l2.33-2.21c.57-.55.67-.89.67-1.22 0-.53-.37-.84-1.09-.84a1.65 1.65 0 00-1.37.61l-.76-.59a2.7 2.7 0 012.22-1c1.28 0 2.1.64 2.1 1.68a2.35 2.35 0 01-1 1.85l-1.57 1.5zm2.05.28a1.92 1.92 0 01-.19.72l-.43 1.18h-.68l.34-1.28a.64.64 0 01-.4-.62.68.68 0 111.36 0zm5.04-.28v.92h-4.33v-.73l2.33-2.21c.57-.55.67-.89.67-1.22 0-.53-.37-.84-1.09-.84a1.65 1.65 0 00-1.37.61l-.76-.59a2.7 2.7 0 012.23-1c1.27 0 2.09.64 2.09 1.68a2.35 2.35 0 01-1 1.85l-1.57 1.5zm4.89-.88c0 1-.74 1.88-2.32 1.88a3.65 3.65 0 01-2.2-.68l.46-.84a2.78 2.78 0 001.72.57c.78 0 1.24-.34 1.24-.89s-.36-.92-1.57-.92h-1.42l.31-3.19h3.44v.92h-2.52l-.13 1.35h.56c1.74 0 2.43.76 2.43 1.8zm23.04 9.27c0 .14-10.75.26-24 .26s-24-.12-24-.26 10.76-.26 24-.26 24 .12 24 .26zm-25.65 3.91c0 .14-5 .26-11.16.26s-11.15-.12-11.15-.26 5-.26 11.15-.26 11.16.12 11.16.26zM279.56 357v.94h-.69V357a3.65 3.65 0 01-2.05-.7l.38-.84a3.18 3.18 0 001.67.63v-1.67c-.93-.23-1.92-.53-1.92-1.69 0-.86.62-1.6 1.92-1.73v-.95h.69v.95a3.69 3.69 0 011.7.51l-.34.85a3.52 3.52 0 00-1.36-.45v1.69c.93.23 1.94.52 1.94 1.68 0 .84-.62 1.58-1.94 1.72zm-.69-3.59v-1.49c-.59.1-.84.4-.84.77s.36.57.84.71zm1.56 1.94c0-.41-.37-.6-.87-.75v1.49c.61-.09.87-.39.87-.75zm4.05-1.35c0-1.93 1.06-3 2.45-3s2.45 1.08 2.45 3-1.05 3-2.45 3-2.45-1.08-2.45-3zm3.81 0c0-1.41-.56-2.07-1.36-2.07s-1.35.66-1.35 2.07.55 2.07 1.35 2.07 1.36-.66 1.36-2.07zm3.07 2.29a1.92 1.92 0 01-.19.72l-.43 1.18h-.67l.33-1.28a.65.65 0 01-.39-.62.68.68 0 111.35 0zm4.97-1.17c0 1-.74 1.89-2.32 1.89a3.65 3.65 0 01-2.2-.68l.46-.85a2.78 2.78 0 001.72.58c.78 0 1.24-.34 1.24-.9s-.36-.91-1.57-.91h-1.42l.31-3.19H296v.94h-2.52l-.13 1.36h.56c1.73-.03 2.42.72 2.42 1.76zM297 354c0-1.93 1.06-3 2.45-3s2.45 1.08 2.45 3-1.05 3-2.45 3-2.45-1.08-2.45-3zm3.81 0c0-1.41-.56-2.07-1.36-2.07s-1.35.66-1.35 2.07.55 2.07 1.35 2.07 1.32-.66 1.32-2.07zm22.95 10.4c0 .14-10.76.26-24 .26s-24-.12-24-.26 10.75-.26 24-.26 24 .11 24 .26zm-25.66 3.91c0 .14-5 .26-11.15.26s-11.15-.12-11.15-.26 5-.26 11.15-.26 11.15.11 11.15.26zm63.65-43.05v.94h-.68v-.93a3.66 3.66 0 01-2.06-.7l.38-.84a3.19 3.19 0 001.68.63v-1.67c-.93-.23-1.93-.53-1.93-1.69 0-.86.62-1.6 1.93-1.73v-.95h.68v.93a3.69 3.69 0 011.7.51l-.34.85a3.46 3.46 0 00-1.36-.45v1.69c.93.23 1.94.52 1.94 1.68 0 .86-.62 1.6-1.94 1.73zm-.68-3.59v-1.49c-.6.1-.85.4-.85.77s.36.58.85.72zm1.55 1.94c0-.41-.37-.6-.87-.75v1.49c.61-.1.87-.35.87-.74zm6.08-4.28v5.86h-1.09v-4.95h-1.24v-.91zm2.51 5.23a1.92 1.92 0 01-.19.72l-.43 1.18h-.68l.33-1.28a.65.65 0 01-.39-.62.68.68 0 111.36 0zm.6-2.3c0-1.93 1.06-3 2.45-3s2.45 1.08 2.45 3-1 3-2.45 3-2.45-1.07-2.45-3zm3.81 0c0-1.41-.56-2.07-1.36-2.07s-1.35.66-1.35 2.07.55 2.07 1.35 2.07 1.36-.65 1.36-2.07zm1.83 0c0-1.93 1.06-3 2.45-3s2.45 1.08 2.45 3-1.05 3-2.45 3-2.45-1.07-2.45-3zm3.81 0c0-1.41-.56-2.07-1.36-2.07s-1.35.66-1.35 2.07.55 2.07 1.35 2.07 1.36-.65 1.36-2.07zM406 332.67c0 .14-10.76.26-24 .26s-24-.12-24-.26 10.75-.27 24-.27 24 .12 24 .27zm-25.71 3.91c0 .14-5 .26-11.15.26s-11.15-.12-11.15-.26 5-.27 11.15-.27 11.15.12 11.15.27z" fill="#263238"/><path d="M369.76 108.53c0 .14-11.59.26-25.88.26s-25.89-.12-25.89-.26 11.59-.26 25.89-.26 25.88.11 25.88.26z" fill="#6f9639"/><g><path d="M32.6 419.05a6.92 6.92 0 00-6.5 5.54 66.68 66.68 0 00-1.53 7.41s-5.87 5.28 0 6.69 8-6.5 8-6.5l.9-13.18z" fill="#ffbe9d"/><path d="M91.38 318s18.34-61.59 20.21-64.24c3.08-4.39 32.77-17.59 32.77-17.59l8-16.24 49.31-7.93 12.23 15.74L248.27 253l-2.4 87.12-1.28 60.83 6.51 75.94L95 476.6l7.06-16 7.41-138.12z" fill="#6f9639"/><path d="M112.53 309.69a1.65 1.65 0 01-.06-.5c0-.39 0-.86-.08-1.43 0-1.24-.11-3-.15-5.25-.08-4.44-.08-10.57.11-17.34s.55-12.89.89-17.32c.16-2.21.32-4 .45-5.23l.15-1.42a2.76 2.76 0 01.09-.49 1.48 1.48 0 010 .5c0 .38 0 .85-.06 1.42-.07 1.32-.17 3.09-.29 5.25-.24 4.43-.54 10.54-.73 17.31s-.25 12.88-.26 17.32v6.68a1.77 1.77 0 01-.06.5z" fill="#263238"/><path d="M147.89 292a3 3 0 01.57-1.93 5 5 0 015.83-1.44c2.61 1.25 3.91 4.25 4.44 7.1.57 3.12.49 6.34 1.08 9.46s2 6.3 4.75 7.91c3.39 2 7.84 1.1 11.4 2.78 5.3 2.49 6.53 9.38 6.8 15.24.5 11.09 0 22.19-.46 33.28l-3.06 70.82-2.79 35.53-14.36 6.1-19-124.85z" opacity=".3"/><path d="M152 281.88a1 1 0 01-.37.2 2.52 2.52 0 01-1.22.12 4.19 4.19 0 01-3.26-2.85 7.54 7.54 0 01-.29-3.08 33.13 33.13 0 01.58-3.45c.48-2.42 1-5.06 1.56-7.83 1.12-5.55 2.16-10.57 2.94-14.2l1-4.29a10.59 10.59 0 01.41-1.56 8.74 8.74 0 01-.21 1.6c-.21 1.11-.47 2.57-.79 4.33-.69 3.64-1.68 8.67-2.8 14.22-.57 2.77-1.11 5.41-1.6 7.82s-1 4.59-.41 6.33a4 4 0 002.94 2.76 3.48 3.48 0 001.52-.12z" fill="#263238"/><path d="M157.06 258.71c0 .05-.41.05-1.09.26a5.07 5.07 0 00-2.41 1.7 4.26 4.26 0 00-.74 4.1 4.46 4.46 0 008.27.66 4.25 4.25 0 00-.08-4.16 5 5 0 00-2.11-2.06c-.64-.32-1-.38-1-.43s.1 0 .29 0a3.06 3.06 0 01.82.23 4.94 4.94 0 012.35 2.06 5 5 0 01.69 2.09 4.42 4.42 0 01-.5 2.48 4.92 4.92 0 01-9.16-.73 4.39 4.39 0 01-.1-2.53 5.06 5.06 0 013.65-3.61 3 3 0 01.85-.1.78.78 0 01.27.04z" fill="#263238"/><path fill="#6f9639" d="M173.85 322.38l-90.16-16.32-42.09 9.24 94.18 16.95 38.07-9.87z"/><path d="M173.85 322.38l-90.16-16.32-42.09 9.24 94.18 16.95 38.07-9.87z" opacity=".6"/><path d="M116.2 361.7c1.22-16.62 5.78-58.83 9.2-75.14 1-4.88 2.2-9.87 5-14s7.74-7.15 12.66-6.39c4.4.68 7.94 4.25 9.72 8.33a29.5 29.5 0 012.27 13.07c-.85 20.16-2.59 42.74-2.57 61.43" fill="#455a64"/><path d="M146.73 322.12a33.82 33.82 0 01-3.34 1.06 67 67 0 00-15.33 6.95 33.2 33.2 0 01-3 1.82s.23-.25.71-.63 1.19-.89 2.09-1.5a53.25 53.25 0 017.43-4.12 51.77 51.77 0 018-2.87c1.05-.28 1.91-.48 2.5-.59a3.66 3.66 0 01.94-.12zm1.5-19.18c0 .08-1.35.38-3.51 1.05a47.53 47.53 0 00-15.53 8.16c-1.77 1.4-2.8 2.36-2.86 2.3a4.27 4.27 0 01.65-.75c.44-.46 1.11-1.09 2-1.83a40.05 40.05 0 017.37-5 40.55 40.55 0 018.29-3.25 25.75 25.75 0 012.63-.59 3.15 3.15 0 01.96-.09zm-2.02-15.44c0 .09-1.07.14-2.76.45a24.19 24.19 0 00-6.33 2.11 24.47 24.47 0 00-5.5 3.78c-1.27 1.16-2 2-2 1.93s.12-.25.41-.64a14.06 14.06 0 011.35-1.56 21 21 0 0112-6 14.75 14.75 0 012.06-.14c.5.01.76.03.77.07z" fill="#263238"/><path d="M135 335.58a.3.3 0 000 .09v57.7c0 2.53-2 5.14-5.79 7.12s-9.2 3.33-16 3.34h-.09c-13.65 0-21.81-5.39-21.81-10.46v-57.7a.55.55 0 000-.09v-.11c0-5.64 4.17-11.53 8.35-17.35 2.8-3.88 3.47-9.48 3.6-12.76v-1.07h-.38a3 3 0 01-3.25-2.79v-2.44a3 3 0 013.25-2.81h20.5a3.3 3.3 0 013 1.71 2.57 2.57 0 01.25 1.1v2.44a3 3 0 01-3.26 2.79H123v1.07c.13 3.28.8 8.88 3.61 12.76 4.17 5.82 8.32 11.71 8.35 17.35.04.04.04.09.04.11z" fill="#fafafa"/><path d="M135 335.58a4.35 4.35 0 000-.59 14.89 14.89 0 00-.21-1.72 22.52 22.52 0 00-2.39-6.26 84.45 84.45 0 00-5.9-8.95 18.21 18.21 0 01-2.68-6.21 33.42 33.42 0 01-.92-7.55v-.18h.18a3.8 3.8 0 002.17-.51 2.6 2.6 0 001.26-1.81v-2.47a2.49 2.49 0 00-.89-2.13 3.42 3.42 0 00-2.32-.76h-20.11a3.4 3.4 0 00-2.66.94 2.42 2.42 0 00-.64 1.26 15.06 15.06 0 000 1.53v1.56a2.43 2.43 0 00.62 1.3 3.4 3.4 0 002.77 1h.24v.25a34.86 34.86 0 01-.76 7A19.25 19.25 0 01100 318c-1.41 2-2.86 4-4.2 6.12a33 33 0 00-3.4 6.73 15.26 15.26 0 00-.81 3.72c-.07 1.25 0 2.59 0 3.89v52.66a17.47 17.47 0 00.16 3.35 6.58 6.58 0 001.57 2.82 15.56 15.56 0 005.37 3.71 30.43 30.43 0 006.2 1.85 42.47 42.47 0 006.31.71 43.05 43.05 0 0012.14-1.11 26.56 26.56 0 005.49-2 14.08 14.08 0 004.46-3.35 7 7 0 001.31-2.34 8.62 8.62 0 00.22-2.65v-15.32c0-12.72.06-23 .08-30.16s.09-11.06.09-11.06a2.94 2.94 0 010 .73v10.33c0 7.14 0 17.44.08 30.16v16.68a5.6 5.6 0 01-.22 1.41 7.28 7.28 0 01-1.39 2.49 14.29 14.29 0 01-4.59 3.47 27.26 27.26 0 01-5.57 2 43.74 43.74 0 01-12.12 1.16 42.23 42.23 0 01-6.38-.71 31.25 31.25 0 01-6.31-1.88 15.74 15.74 0 01-5.56-3.79 6.94 6.94 0 01-1.69-3 17 17 0 01-.18-3.47v-56.6a16 16 0 01.84-3.84 33.26 33.26 0 013.46-6.84c1.34-2.13 2.81-4.14 4.22-6.13a19 19 0 002.67-6.56 35.2 35.2 0 00.77-6.88l.23.23a3.87 3.87 0 01-3.11-1.15 2.8 2.8 0 01-.73-1.55v-1.62a14.72 14.72 0 010-1.61 2.89 2.89 0 01.77-1.49 3.88 3.88 0 013-1.08h20.06a3.82 3.82 0 012.56.86 2.84 2.84 0 011 2.42v2.52a2.93 2.93 0 01-1.42 2.06 4.09 4.09 0 01-2.36.54l.16-.16c.09 5.27 1.11 10.15 3.49 13.61a82.49 82.49 0 015.84 9 21.68 21.68 0 012.32 6.33A13.51 13.51 0 01135 335a1.63 1.63 0 010 .58z" fill="#263238"/><path d="M121.88 304.15a78.41 78.41 0 01-9.12.26 78.66 78.66 0 01-9.13-.26 81.43 81.43 0 019.13-.26 81.17 81.17 0 019.12.26z" fill="#263238"/><path d="M133.18 343.29c-1.84-1.2-4.27-.67-6.25.27s-3.85 2.25-6 2.59c-2.53.41-5.08-.6-7.33-1.87s-4.38-2.84-6.8-3.71a13.24 13.24 0 00-13.64 3.22v49.54s2.72 8.45 21.88 7.13 17.65-9.79 17.65-9.79z" fill="#6f9639"/><path d="M82.42 309.57a14 14 0 00-11.83-16 1.42 1.42 0 00-1 .11c-.41.28-.42.87-.38 1.36a17 17 0 0013.2 15" fill="#455a64"/><path d="M62.75 335.48c3.54 7.3 8.63 12.22 14.94 12.46 1.26 0 2.21-.79 3.41-.86a8 8 0 012 .76 2.88 2.88 0 001 .24c6.52-.35 12.07-4.93 15.81-12.6 5.21-10.73 3.6-22.26-3.59-25.77a17.62 17.62 0 00-2.94-1.15 12.39 12.39 0 00-3.57-.42 27 27 0 00-8.1 1.86l-.35.13c-5.85-2.58-10.51-2.6-15-.41-7.23 3.5-8.83 15.03-3.61 25.76z" fill="#6f9639"/><path d="M62.87 324.61a5.69 5.69 0 01-.6-2.16 11.6 11.6 0 013.65-9.87 5.63 5.63 0 011.86-1.25c0 .08-.66.54-1.61 1.51a12.93 12.93 0 00-2.77 4.42 12.66 12.66 0 00-.76 5.16c.08 1.34.36 2.16.23 2.19zm1.33 5.1c-.14 0-.38-.47-.53-1.13s-.16-1.21 0-1.24.37.47.53 1.13.14 1.21 0 1.24z" fill="#fafafa"/><path d="M97.28 292c0 .09-1.34.61-3.37 1.83a26.34 26.34 0 00-3.36 2.4 29.51 29.51 0 00-3.55 3.6 30 30 0 00-2.82 4.2 26.47 26.47 0 00-1.68 3.77c-.79 2.22-1 3.68-1.13 3.66a4.64 4.64 0 01.11-1 7.81 7.81 0 01.24-1.19 15.13 15.13 0 01.43-1.56 23.69 23.69 0 011.61-3.88 25.24 25.24 0 016.49-7.93 23 23 0 013.49-2.35c.51-.31 1-.52 1.44-.73a9.14 9.14 0 011.12-.47 4.39 4.39 0 01.98-.35z" fill="#263238"/><path d="M41.6 315.3L30.27 458.22l105.6 25.53s36.84-12.49 37.34-13.34.64-148 .64-148l-38.07 9.87z" fill="#6f9639"/><path d="M41.6 315.3L30.27 458.22l105.6 25.53s36.84-12.49 37.34-13.34.64-148 .64-148l-38.07 9.87z" opacity=".4"/><path d="M207.23 148.82l-5.89 83.41a26 26 0 01-25.94 24.17 26 26 0 01-26-27.7c.52-7.94 1-14.45 1-14.45s-20.19-3.14-20.44-23.33c-.14-11.66 1.87-38.12 3.59-58.39A26.48 26.48 0 01160 108.3h12.19a37.37 37.37 0 0135.04 40.52z" fill="#ffbe9d"/><path d="M150.44 214.25s12.73.75 26.29-7.77c0 0-6.5 14.69-26.65 12.87z" fill="#eb996e"/><path d="M137.38 153.35c.36.38 2.54-1.24 5.65-1.23s5.37 1.56 5.71 1.18c.16-.17-.2-.84-1.19-1.57a8 8 0 00-4.57-1.41 7.74 7.74 0 00-4.5 1.45c-.95.74-1.27 1.42-1.1 1.58zm33.62 3.57a2.9 2.9 0 002.78 2.91 2.77 2.77 0 003-2.6 2.88 2.88 0 00-2.78-2.91 2.76 2.76 0 00-3 2.6zm-30.82 0a2.89 2.89 0 002.78 2.91 2.76 2.76 0 003-2.6 2.87 2.87 0 00-2.77-2.91 2.75 2.75 0 00-3.01 2.6zm27.39-3.56c.36.37 2.55-1.25 5.65-1.24s5.37 1.56 5.71 1.18c.16-.17-.2-.84-1.19-1.57a8 8 0 00-4.57-1.41 7.74 7.74 0 00-4.5 1.45c-.95.74-1.27 1.42-1.1 1.59zm-11.26 23c0-.17-1.91-.5-5-.9-.79-.09-1.54-.24-1.67-.78a4 4 0 01.52-2.35l2.35-6c3.25-8.59 5.61-15.65 5.26-15.78s-3.27 6.73-6.52 15.32Q150 169 149 171.9a4.67 4.67 0 00-.41 3.11 2 2 0 001.31 1.16 5.39 5.39 0 001.34.19c3.11.17 5.06.18 5.07 0zm9.13 2.15c-.5 0-.51 3.34-3.39 5.73s-6.47 2-6.5 2.49c0 .21.8.65 2.32.7a8.41 8.41 0 005.42-1.89 7.35 7.35 0 002.63-4.81c.13-1.4-.25-2.24-.48-2.22zm1.33-35.24c.31.84 3.4.44 7 .88s6.59 1.43 7.07.68c.22-.36-.3-1.16-1.48-2a11.88 11.88 0 00-5.24-1.83 11.75 11.75 0 00-5.51.65c-1.3.56-1.97 1.22-1.84 1.62zm-28.96 1.2c.55.71 2.69 0 5.26-.06s4.74.48 5.25-.26c.21-.36-.13-1.07-1.08-1.73a7.58 7.58 0 00-8.46.26c-.91.72-1.21 1.45-.97 1.79z" fill="#263238"/><path d="M200.42 164c.35-.15 13.88-4.1 13.44 9.7s-14.21 10.51-14.22 10.12.78-19.82.78-19.82z" fill="#ffbe9d"/><path d="M204 178.69c.06 0 .24.18.64.38a2.39 2.39 0 001.79.09c1.48-.49 2.78-2.76 2.92-5.25a7.77 7.77 0 00-.56-3.46 2.79 2.79 0 00-1.75-1.91 1.22 1.22 0 00-1.44.62c-.2.38-.12.66-.19.68s-.29-.24-.16-.81a1.6 1.6 0 01.57-.85 1.82 1.82 0 011.34-.31 3.41 3.41 0 012.45 2.22 8.28 8.28 0 01.71 3.88c-.18 2.78-1.69 5.33-3.7 5.85a2.59 2.59 0 01-2.19-.44c-.43-.38-.43-.66-.43-.69z" fill="#eb996e"/><path d="M208.1 163.5c-2.1-.51-5.74 1.44-6.64 3.41s-1.1 4.2-2 6.17-2.92 3.76-5 3.26a4.24 4.24 0 01-2.87-3.15 11.48 11.48 0 010-4.45c.81-6.45 2.16-12.84 2.42-19.33s-.66-13.24-4.07-18.77-9.67-9.6-16.15-9.08c-4.29.35-8.22 2.59-12.48 3.18a16.84 16.84 0 01-14-4.67c-.47-.46-2.62-1.89-2.62-1.89 0-.33.31-3.21 1.45-4.26 8.45-7.82 23.69-10 34.86-7.19s21.64 10.69 26.44 21.16 3.38 25 .73 35.61" fill="#263238"/><path d="M131.38 128.89c1.81 4.19 6.43 6.63 11 7.09s9.08-.72 13.47-2 16.18-3.2 20.75-3.06c.68 0 1.5 0 1.87-.57.48-.77-.29-1.7-1-2.25-6-4.72-20.57-7.61-28.21-7.93s-15.65 3-19.79 9.39" fill="#263238"/><path d="M133.37 129.41s53-17 75.88 28.79c0 0 3.42-11.47 3.42-17.62 0-4.1-2.45-28.56-27.61-36.25 0 0-37.91-14.46-51.69 25.08z" fill="#6f9639"/><path d="M133.37 129.41a24.6 24.6 0 0116.84-7.64c15.63-.7 44.87 8.09 59 36.43 0 0 3.42-11.47 3.42-17.62 0-4.1-2.45-28.56-27.61-36.25.04 0-37.87-14.46-51.65 25.08z" opacity=".4"/><path d="M207 152.83a99.84 99.84 0 00-30.86-29.55c-12.14-7.61-32.27-15.13-46.14-18.82-4.16-1.1-8.5-2.07-12.75-1.33s-8.41 3.56-9.46 7.74c-1.32 5.23 8 13.3 12.33 16.47a141.36 141.36 0 0013.26 7.83s-.12-9.7 15.41-11.7c21.11-2.72 58.21 29.36 58.21 29.36z" fill="#6f9639"/><path d="M163.6 113.25s-7.64-4.22-15.3-5.2a19.23 19.23 0 014.16-2.5 39.57 39.57 0 0111.92 4z" fill="#fafafa"/><path d="M230.14 250.84s-14.48 16.55-12.88 39.58c.22 3.19.38 7.64.77 10.82 2.44 19.76 6.22 38.1 6.22 38.1h1.38l50.49-12.47s-7.61-43.83-9.36-49.65c-5.59-18.63-24.76-28.88-24.76-28.88z" fill="#6f9639"/><path d="M173.21 470.41v-11.39c0-7.37 0-18 .06-31.32.09-26.59.22-63.59.37-105.32l.32.25-19.2 5-18.86 4.89.19-.25c.26 20.92.19 40.66.09 58.5s-.2 33.77-.28 47.09 0 24 0 31.4v8.48c0-2-.07-4.8-.13-8.48-.09-7.37-.15-18.08-.14-31.4s.11-29.26.17-47.09.12-37.58-.15-58.49v-.21l.2-.05 18.85-4.89 19.21-5 .33-.09v.34c-.22 41.73-.41 78.74-.54 105.32-.09 13.28-.17 23.95-.22 31.32 0 3.67-.06 6.51-.08 8.45v2.2c0 .51-.19.74-.19.74z" fill="#263238"/><path d="M149.83 221.08s-2 19.21 4.46 22.2c7.29 3.36 14.56.07 19-2.78 11.91-7.6 29.61-28.71 29.61-28.71l12 15.58s-30.22 36.32-36.29 36.08c-4-.15-10.15-4-14-6.71a26 26 0 01-5.57-5.27l-5.23-6.65c-6.53 3.22-11.81 7.35-15.46 12.64 0 0-1.74-13.45 1.39-19.55s9.37-16.63 9.37-16.63z" fill="#6f9639"/><path d="M139.37 238.43a1.25 1.25 0 01-.12.33c-.09.24-.22.55-.39.94a21 21 0 00-.89 3.82 59.75 59.75 0 000 14.4l-.36-.07a26.55 26.55 0 016.48-7.38 48.24 48.24 0 019.58-6.07l.16-.08.12.14c2.11 2.45 4.34 5 6.69 7.59a48.14 48.14 0 007.89 7.28 19.73 19.73 0 004.47 2.37 14.71 14.71 0 002.4.65 9.82 9.82 0 002.42.09c3.25-.3 6-2.16 8.28-4.12l20.69-22.06 6-6.33 1.61-1.67.42-.43.16-.13-.12.16-.4.46-1.55 1.72-5.9 6.43-20.54 22.18a22.25 22.25 0 01-3.86 2.76 12 12 0 01-4.7 1.5 11 11 0 01-2.56-.09 14.55 14.55 0 01-2.49-.67 20.56 20.56 0 01-4.61-2.43 48.36 48.36 0 01-8-7.36c-2.36-2.6-4.59-5.16-6.69-7.62l.29.06a48.64 48.64 0 00-9.5 6A26.5 26.5 0 00138 258l-.3.52-.06-.59a57.35 57.35 0 01.16-14.48 19.68 19.68 0 011-3.81c.18-.42.34-.72.44-.93a2.38 2.38 0 01.13-.28z" fill="#263238"/><path d="M140.11 254.62a2.57 2.57 0 00.74 2.93 2.44 2.44 0 002.49-.45 9.29 9.29 0 001.68-2.05 21.84 21.84 0 014.27-4.58c1.61-1.3 3.82-2.4 5.67-1.48a6.4 6.4 0 012.5 3.19c2.51 5.13 5.52 10.35 10.43 13.28s11.22 3.06 16.63 1.15a32.86 32.86 0 0013.72-10.07 97 97 0 009.49-14.34c2.26-3.91 4.55-7.94 5.25-12.4-.62.35-2.08 2.6-2.7 2.95 0 0-23.31 25.67-25.5 27s-8.23 10.19-25.34-9l-5.66-6.14s-10.78 5.23-13.67 10.01z" opacity=".3"/><path fill="#fff" d="M176.912 306.072l25.63 3.93-1.187 7.74-25.63-3.931z"/><path d="M271.88 327.84l-40 9.67 4.62 37.73-76.6 57.53c-3.06.43-6.2.92-7.94 1.36-4.19 1-11.59 11.55-13.68 12.6l-14.93 11.52s-1.31 5.24 5.5 4.19 14.4-6.28 15.19-6.28 3.17 1.59 2 5c-1 3-5.1 13.32-5.1 13.32l-5.07 9.3s21.92.72 28-7.41c4.16-5.52 17-21.17 17-21.17s90.17-44.36 95.58-53.65c7.37-12.64-4.57-73.71-4.57-73.71z" fill="#ffbe9d"/><path d="M253.44 391.5a24.91 24.91 0 00-.18-4.12 14.36 14.36 0 00-13.55-12.26 24.82 24.82 0 00-4.12.23 3.81 3.81 0 011.08-.33 12.73 12.73 0 013.06-.27 14.22 14.22 0 0113.89 12.58 12.75 12.75 0 010 3.07 3.82 3.82 0 01-.18 1.1zm-99.56 78.19a11.5 11.5 0 01-.52 2.52 27 27 0 01-2.22 5.83 11.62 11.62 0 01-4.22 4.61 6.34 6.34 0 01-1.77.72 1.51 1.51 0 01-.7.07 15.39 15.39 0 002.28-1.1 12.56 12.56 0 004-4.55 34.85 34.85 0 002.27-5.69 14.76 14.76 0 01.88-2.41zm10.62-3.49a9.93 9.93 0 01-.77 2.43 47.9 47.9 0 01-2.62 5.58 48.69 48.69 0 01-3.32 5.2 10.4 10.4 0 01-1.64 2 15.33 15.33 0 011.34-2.17c.86-1.31 2-3.15 3.16-5.24s2.09-4 2.74-5.47a14.82 14.82 0 011.11-2.33z" fill="#eb996e"/><path d="M164.21 400.9a5.66 5.66 0 01.18 1.28c.09.82.16 2 .2 3.49a68.63 68.63 0 01-3.3 22.76c-.46 1.4-.86 2.53-1.18 3.29a6.34 6.34 0 01-.53 1.17 5.77 5.77 0 01.34-1.24c.26-.78.61-1.92 1-3.33a82 82 0 002.44-11.21 83.83 83.83 0 00.84-11.44v-3.48a6.86 6.86 0 01.01-1.29zm-21.67 12.01a26.69 26.69 0 011.26 3.15c.74 2 1.77 4.66 3 7.61s2.37 5.6 3.22 7.51a27.5 27.5 0 011.31 3.13 17.24 17.24 0 01-1.64-3c-.94-1.88-2.15-4.51-3.37-7.47s-2.19-5.69-2.84-7.69a18.3 18.3 0 01-.94-3.24zm-5.81 25.89a2.62 2.62 0 01-.63.18l-1.83.44c-.8.19-1.77.41-2.92.6s-2.44.47-3.9.65-3 .43-4.75.58-3.56.28-5.49.39a104.79 104.79 0 01-25.08-1.91c-1.89-.41-3.7-.77-5.36-1.23s-3.21-.86-4.61-1.29-2.66-.86-3.76-1.23-2-.73-2.79-1l-1.75-.7a4.62 4.62 0 01-.6-.28 2.48 2.48 0 01.64.18l1.78.61c.76.28 1.71.62 2.81 1s2.36.78 3.77 1.15 2.94.84 4.61 1.22 3.46.79 5.35 1.18a121.38 121.38 0 0012.43 1.66 119.48 119.48 0 0012.54.24c1.93-.1 3.76-.17 5.47-.34s3.29-.33 4.74-.51 2.75-.4 3.9-.58 2.13-.35 2.93-.51l1.85-.34a2.92 2.92 0 01.65-.16zm-3.81-17.39a26.79 26.79 0 01-4.75-2.29 27.71 27.71 0 01-4.5-2.74 25.62 25.62 0 014.75 2.29 26.4 26.4 0 014.5 2.74zm143.2-94.54l-.25.08-.74.2-2.86.73-10.76 2.66-37.2 9-.27.06v-.27c-1.05-6.87-2.49-14.28-3.88-22-.91-5.15-1.7-10.2-2.24-15.1s-.78-9.67-.85-14.21a76.75 76.75 0 01.75-12.85 37 37 0 013.28-10.73 26.88 26.88 0 015.52-7.43 21.65 21.65 0 015.77-3.94 19.29 19.29 0 014.22-1.33l1.14-.14a1.89 1.89 0 01.39 0 1.76 1.76 0 01-.39.08l-1.12.2a19.43 19.43 0 00-4.15 1.4 22 22 0 00-5.66 4 27 27 0 00-5.39 7.38 37.1 37.1 0 00-3.18 10.63 77.2 77.2 0 00-.7 12.79c.08 4.52.34 9.26.88 14.15s1.34 9.93 2.25 15.07c1.38 7.71 2.81 15.13 3.86 22l-.31-.21 37.25-8.85 10.79-2.52 2.88-.65.75-.16a1.19 1.19 0 01.22-.04z" fill="#263238"/></g></svg>