<svg xmlns="http://www.w3.org/2000/svg" viewBox="0 0 500 500"><path d="M85.45 418c88.76 45.38 232.67 45.38 321.42 0s88.76-119 0-164.33-232.66-45.38-321.42 0-88.75 118.96 0 164.33z" fill="#f5f5f5"/><g fill="#ebebeb"><path d="M375.73 345.51c4.87 2.81 14.43 1.84 21.35-2.16L437 320.16c6.93-4 8.59-9.52 3.72-12.34S426.3 306 419.37 310l-39.9 23.21c-6.93 3.97-8.6 9.49-3.74 12.3zM135.31 366.9l-40.62-23.45L135.31 320v46.9zM250.12 380.93l-65.47-37.82 65.48-37.75-.01 75.57z"/></g><path d="M80.36 312.07c.12-9.5-6.52-29.27-16.23-41.72S39 248.69 28 252.32c-10.3 3.39-9.35 16.85 3 25.92s30.9 20.49 36.19 36l11.25 19z" fill="#6f9639"/><path d="M80.36 312.07c.12-9.5-6.52-29.27-16.23-41.72S39 248.69 28 252.32c-10.3 3.39-9.35 16.85 3 25.92s30.9 20.49 36.19 36l11.25 19z" opacity=".1"/><path d="M80.91 325.08a.69.69 0 01-.62-.57c-6-32.51-31.9-59.19-47.53-65.2a.7.7 0 11.5-1.3c15.93 6.13 42.33 33.25 48.39 66.25a.69.69 0 01-.55.81z" fill="#fff"/><path d="M75.82 345.78c-1.46-5.36-7.88-14.25-18.34-21.66-11.58-8.19-26.3-12.07-29.63-18.38-4-7.58 2.43-14.62 14.4-13S75.1 311 78.18 335.66z" fill="#6f9639"/><path d="M78.21 340.2a.7.7 0 01-.6-.46c-9.61-27.91-30.69-37.92-40.49-39.31a.69.69 0 01.19-1.37c10.84 1.54 31.81 11.74 41.62 40.22a.71.71 0 01-.43.89.74.74 0 01-.29.03z" fill="#fff"/><g><path d="M434.93 285s1.33-20 13.13-34.9 11.08-21 2.94-24-27 14.95-22.84 38.9 6.77 20 6.77 20z" fill="#6f9639"/><path d="M434.93 285s1.33-20 13.13-34.9 11.08-21 2.94-24-27 14.95-22.84 38.9 6.77 20 6.77 20z" opacity=".1"/><path d="M431.32 273.58a.47.47 0 01-.47-.43c-1.37-22.06 14.2-40.16 20-44.26a.45.45 0 01.64.11.47.47 0 01-.11.65c-5.72 4-21 21.77-19.64 43.44a.47.47 0 01-.43.49z" fill="#fff"/><path d="M431.72 301.56a105.38 105.38 0 0016.28 3.92c9.14 1.44 13.18-2.93 13.18-2.93s-3.6-8.57-8.79-11a51.11 51.11 0 0115.86 6.51s5.58.09 7.8-8.43c0 0-3.3-5.13-14.4-7.9 0 0 6.75-1.7 16.48.78.73.29 3.84-10.72 4.78-15.8s-1.1-5-5.06-6.09-17.09-4-19.57-1.83-3.74 9.63-3.74 9.63a17.58 17.58 0 01-.37-9.44s-3.56-1.39-9.1.22c-4.52 1.31-4.74 4.39-4.54 7.87a33.87 33.87 0 002 8.84s-3.53-4.52-3.64-14.33c0 0-9.26 4.6-10.84 13.8-.92 4.99-2.14 19.62 3.67 26.18z" fill="#6f9639"/><path d="M433.46 299.78a.53.53 0 00.47-.29c7.37-15.33 34.8-33.14 44.62-35.05a.51.51 0 00.41-.6.53.53 0 00-.61-.41c-10 1.95-37.86 20-45.35 35.61a.52.52 0 00.24.69.59.59 0 00.22.05z" fill="#fff"/></g><g><path d="M76.78 352.86c-1.13 0-1.81-.93-1.81-2.5V182.15L281 63.22v167.53a8.93 8.93 0 01-4 7L78.42 352.35a3.33 3.33 0 01-1.64.51z" fill="#fafafa"/><path d="M280.38 64.23v166.52a8.45 8.45 0 01-3.75 6.49l-198.5 114.6a2.77 2.77 0 01-1.35.44c-1.11 0-1.23-1.35-1.23-1.92V182.49L280.38 64.23m1.17-2L74.38 181.81v168.55c0 2 1 3.09 2.4 3.09a3.92 3.92 0 001.93-.59l198.51-114.61a9.58 9.58 0 004.33-7.5V62.2z" fill="#e0e0e0"/><path fill="#6f9639" d="M74.39 181.81v28.15L281.55 90.35V62.2L74.39 181.81z"/><path d="M90.63 183.31v4c0 .82.59 1.16 1.3.75l63.69-36.77v-7l-63.69 36.77a2.91 2.91 0 00-1.3 2.25z" fill="#fafafa"/><path d="M162.45 140.35c.72-.42 1.3-.08 1.3.75v4a2.89 2.89 0 01-1.3 2.25l-6.83 3.94v-7zM74.38 172.74a9.58 9.58 0 014.33-7.5L277.22 50.63c2.39-1.38 4.33-.26 4.33 2.5v9.07L74.38 181.81z" fill="#455a64"/><path d="M258.52 66.14a4.47 4.47 0 00-2 3.51c0 1.3.91 1.82 2 1.18a4.49 4.49 0 002-3.52c.04-1.31-.87-1.82-2-1.17zM265 62.42a4.47 4.47 0 00-2 3.51c0 1.3.91 1.82 2 1.18a4.51 4.51 0 002-3.52c0-1.3-.92-1.82-2-1.17zM271.39 58.7a4.47 4.47 0 00-2 3.51c0 1.3.91 1.82 2 1.18a4.51 4.51 0 002-3.52c.03-1.3-.88-1.82-2-1.17z" fill="#6f9639"/><g opacity=".1"><path d="M216.55 108.67a9.82 9.82 0 00-4.43 7.7c0 2.83 2 4 4.43 2.56a9.8 9.8 0 004.44-7.69c.01-2.83-1.99-3.98-4.44-2.57zM196.25 120.4a9.8 9.8 0 00-4.44 7.69c0 2.83 2 4 4.44 2.57a9.82 9.82 0 004.43-7.7c0-2.83-1.98-3.96-4.43-2.56zM236.86 97a9.8 9.8 0 00-4.43 7.69c0 2.83 2 4 4.43 2.56a9.79 9.79 0 004.44-7.69c0-2.88-1.98-4.03-4.44-2.56zM257.18 85.2a9.8 9.8 0 00-4.44 7.69c0 2.83 2 4 4.44 2.56a9.8 9.8 0 004.44-7.69c0-2.83-1.99-3.98-4.44-2.56z"/></g><path d="M95 212.15l48.21-27.84c2.39-1.38 4.33-.26 4.33 2.5v46.29a9.58 9.58 0 01-4.33 7.5L95 268.43c-2.39 1.38-4.33.26-4.33-2.5v-46.28a9.58 9.58 0 014.33-7.5zM164 172.28L265 114c2.39-1.39 4.33-.27 4.33 2.5v46.28a9.58 9.58 0 01-4.33 7.5l-101 58.28c-2.39 1.38-4.33.26-4.33-2.5v-46.28a9.58 9.58 0 014.33-7.5zM95 282.5l76.64-44.25c2.4-1.38 4.34-.4 4.34 2.19a9.29 9.29 0 01-4.33 7.19L95 291.88c-2.39 1.38-4.33.4-4.33-2.19A9.29 9.29 0 0195 282.5zM95 298.92l76.64-44.25c2.4-1.38 4.34-.4 4.34 2.19a9.29 9.29 0 01-4.33 7.19L95 308.3c-2.39 1.38-4.33.4-4.33-2.19a9.29 9.29 0 014.33-7.19zM95 315.33l76.64-44.25c2.4-1.38 4.34-.4 4.34 2.19a9.29 9.29 0 01-4.33 7.19L95 324.71c-2.39 1.38-4.33.4-4.33-2.19a9.29 9.29 0 014.33-7.19z" fill="#e0e0e0"/></g><g><path d="M131.25 259.67a5.77 5.77 0 012.6-4.5l132.91-76.73a5.74 5.74 0 015.2 0l2.93 1.69a5.74 5.74 0 012.59 4.5v101.88a5.76 5.76 0 01-2.59 4.5L142 367.74a5.74 5.74 0 01-5.2 0l-2.93-1.69a5.76 5.76 0 01-2.6-4.5z" fill="#6f9639"/><path d="M132 257.11l7.38 4.26 137.33-79.3a5.47 5.47 0 00-1.83-1.95l-2.88-1.68a5.7 5.7 0 00-5.18 0l-132.97 76.73a5.38 5.38 0 00-1.85 1.94z" fill="#fff" opacity=".4"/><path d="M131.25 259.67v101.88a5.76 5.76 0 002.6 4.5l2.93 1.69a3.83 3.83 0 00.71.32 5.78 5.78 0 001.07.25 6.4 6.4 0 002.05-.08 3.8 3.8 0 00.51-.13l.31-.12a1.58 1.58 0 01-1.25 0 1.8 1.8 0 01-.79-1.71v-101.9a2.29 2.29 0 011.35-2.22l-1.35-.78-7.39-4.26a5.32 5.32 0 00-.75 2.56z" opacity=".1"/><path d="M139.39 261.37l61.55 23a10 10 0 0011.87-3.91l9.88-15.14 54.52-83.53-52.55 84.1 52.82 20.67a5.37 5.37 0 01-.81 2.59l-52.15-23L213 284.5a10 10 0 01-12.52 3.84l-8.18-3.61L140.18 368a1.8 1.8 0 01-.79-1.71v-1.69l52.68-79.93z" opacity=".2"/></g><g><path d="M249.05 144.41v233.9c0 2.76 1.94 3.88 4.33 2.5l105.08-60.67a9.58 9.58 0 004.33-7.5V78.74c0-2.76-1.94-3.88-4.33-2.5l-105.08 60.67a9.56 9.56 0 00-4.33 7.5z" fill="#fafafa" stroke="#e0e0e0" stroke-miterlimit="10" stroke-width="1.17"/><path d="M255.14 148.76a2.39 2.39 0 011.13-1.82l12-6.91c.62-.36 1.12-.12 1.12.53a2.38 2.38 0 01-1.12 1.82l-12 6.91c-.62.36-1.13.12-1.13-.53zM255.14 153.42a2.38 2.38 0 011.13-1.82l12-6.91c.62-.36 1.12-.12 1.12.52a2.38 2.38 0 01-1.12 1.83l-12 6.9c-.62.36-1.13.13-1.13-.52zM255.14 158.08a2.38 2.38 0 011.13-1.82l12-6.91c.62-.36 1.12-.13 1.12.52a2.36 2.36 0 01-1.12 1.82l-12 6.91c-.62.4-1.13.13-1.13-.52z" fill="#455a64"/><path d="M354.67 98.1v-1.87a.13.13 0 00-.19-.12l-1.44.65a.17.17 0 01-.24-.11 3.07 3.07 0 00-.32-.71.39.39 0 010-.35l1-1.94a.21.21 0 00-.09-.28l-1-.6a.22.22 0 00-.28.07l-1.2 1.8a.37.37 0 01-.31.15 3.56 3.56 0 00-.78.08.17.17 0 01-.22-.15l-.16-1.57c0-.11-.1-.16-.19-.1l-1.62.93a.43.43 0 00-.19.3l-.16 1.8a.65.65 0 01-.17.34 9 9 0 00-.9 1 .3.3 0 01-.32.09l-1-.36a.25.25 0 00-.29.11l-1.19 2.06a.26.26 0 00.05.3l.84.72a.32.32 0 01.08.32 10.06 10.06 0 00-.38 1.26.62.62 0 01-.2.31l-1.48 1a.44.44 0 00-.17.32v1.86a.12.12 0 00.19.12l1.44-.65a.18.18 0 01.24.12 3.07 3.07 0 00.32.71.39.39 0 010 .35l-1 1.93a.23.23 0 00.09.29l1 .6a.22.22 0 00.28-.07l1.2-1.8a.37.37 0 01.31-.15 3.56 3.56 0 00.78-.08.17.17 0 01.22.15l.16 1.57c0 .11.09.16.19.1l1.62-.93a.46.46 0 00.19-.31l.16-1.8a.59.59 0 01.17-.33 9 9 0 00.9-1 .3.3 0 01.32-.09l1 .36a.25.25 0 00.29-.11l1.19-2.06a.26.26 0 00-.06-.31l-.83-.71a.32.32 0 01-.08-.32 10.06 10.06 0 00.38-1.26.54.54 0 01.2-.31l1.48-1a.46.46 0 00.17-.32zm-6.33 5.9c-1.51.88-2.73.17-2.73-1.57a6 6 0 012.73-4.74c1.51-.87 2.73-.16 2.73 1.58a6 6 0 01-2.73 4.73z" fill="#37474f"/><path d="M305.92 144.2c12.28-7.09 22.23-1.34 22.23 12.84s-9.95 31.41-22.23 38.5-22.23 1.34-22.23-12.83 9.95-31.42 22.23-38.51z" fill="#455a64"/><path d="M305.77 155.36c4-2.3 7.21-.44 7.21 4.16a15.94 15.94 0 01-7.21 12.48c-4 2.3-7.22.44-7.22-4.16a15.93 15.93 0 017.22-12.48zM320 179.88c0-7.55-5.31-10.62-11.85-6.84L304 175.4c-6.54 3.78-11.85 13-11.85 20.53V198a12.43 12.43 0 003.82.59 20.14 20.14 0 009.91-3A43.81 43.81 0 00320 181.64zM285.86 216.63L326 193.46c1.19-.69 2.16-.2 2.16 1.1a4.65 4.65 0 01-2.16 3.59l-40.13 23.17c-1.2.7-2.17.2-2.17-1.09a4.64 4.64 0 012.16-3.6z" fill="#6f9639"/><path d="M281.55 233.21L330.29 205c1.2-.69 2.17-.2 2.17 1.1a4.64 4.64 0 01-2.17 3.59l-48.74 28.21c-1.2.69-2.17.2-2.17-1.1a4.64 4.64 0 012.17-3.59z" fill="#455a64"/><path d="M331.59 227.74l13.65-7.88c.72-.41 1.3-.22 1.3.43a2.61 2.61 0 01-1.3 1.92l-13.65 7.88c-.71.41-1.3.22-1.3-.42a2.64 2.64 0 011.3-1.93z" fill="#37474f"/><path d="M263.4 262.43l20.05-11.57c1.19-.69 2.16-.13 2.16 1.25v13.76a4.8 4.8 0 01-2.16 3.75l-20.05 11.57c-1.19.69-2.16.13-2.16-1.25v-13.76a4.8 4.8 0 012.16-3.75z" fill="#6f9639"/><path d="M266.6 264.35l13.65-7.88c.72-.41 1.3-.22 1.3.42a2.61 2.61 0 01-1.3 1.93l-13.65 7.88c-.72.41-1.3.22-1.3-.42a2.61 2.61 0 011.3-1.93zM265.3 271.29v4c0 .83.58 1.16 1.3.75l13.65-7.88a2.87 2.87 0 001.3-2.25v-4c0-.83-.58-1.16-1.3-.75L266.6 269a2.89 2.89 0 00-1.3 2.29z" fill="#fafafa"/><path d="M295.9 243.67l20-11.57c1.2-.69 2.17-.13 2.17 1.25v13.76a4.78 4.78 0 01-2.17 3.75l-20 11.57c-1.2.69-2.16.13-2.16-1.25v-13.76a4.77 4.77 0 012.16-3.75z" fill="#6f9639"/><path d="M299.1 245.59l13.65-7.88c.71-.41 1.29-.22 1.29.42a2.63 2.63 0 01-1.29 1.93l-13.65 7.88c-.72.41-1.3.22-1.3-.43a2.61 2.61 0 011.3-1.92zM297.8 252.53v4c0 .83.58 1.16 1.3.75l13.65-7.88a2.89 2.89 0 001.29-2.25v-4c0-.83-.59-1.16-1.3-.75l-13.65 7.88a2.87 2.87 0 00-1.29 2.25z" fill="#fafafa"/><path d="M328.4 224.91l20-11.58c1.19-.69 2.16-.13 2.16 1.25v13.77a4.8 4.8 0 01-2.16 3.75l-20 11.57c-1.2.69-2.17.13-2.17-1.25v-13.76a4.78 4.78 0 012.17-3.75z" fill="#6f9639"/><path d="M331.59 226.83l13.65-7.83c.72-.42 1.3-.23 1.3.42a2.58 2.58 0 01-1.3 1.92l-13.65 7.88c-.71.42-1.3.23-1.3-.42a2.61 2.61 0 011.3-1.97zM330.29 233.77v4c0 .82.59 1.16 1.3.75l13.65-7.89a2.86 2.86 0 001.3-2.25v-4c0-.83-.58-1.17-1.3-.75l-13.65 7.88a2.88 2.88 0 00-1.3 2.26z" fill="#fafafa"/><path d="M265.57 294l80.7-46.59c2.4-1.38 4.33-.4 4.33 2.19a9.26 9.26 0 01-4.33 7.19l-80.7 46.59c-2.39 1.38-4.33.4-4.33-2.19a9.29 9.29 0 014.33-7.19zM265.57 312.77l80.7-46.59c2.4-1.38 4.33-.4 4.33 2.19a9.26 9.26 0 01-4.33 7.19l-80.7 46.6c-2.39 1.38-4.33.4-4.33-2.2a9.29 9.29 0 014.33-7.19z" fill="#e0e0e0"/><path d="M291.84 321.06L320 304.8c1.2-.69 2.17-.13 2.17 1.25v9.07a4.78 4.78 0 01-2.17 3.75l-28.16 16.26c-1.2.69-2.17.13-2.17-1.25v-9.07a4.78 4.78 0 012.17-3.75z" fill="#6f9639"/><path d="M267.33 295.39a4.49 4.49 0 00-2 3.52c0 1.29.91 1.82 2 1.17a4.49 4.49 0 002-3.52c.03-1.29-.88-1.82-2-1.17zM273.77 291.67a4.47 4.47 0 00-2 3.52c0 1.29.9 1.82 2 1.17a4.49 4.49 0 002-3.52c.03-1.29-.88-1.84-2-1.17zM280.2 288a4.49 4.49 0 00-2 3.52c0 1.29.91 1.82 2 1.17a4.49 4.49 0 002-3.52c.03-1.34-.88-1.87-2-1.17zM286.64 284.23a4.48 4.48 0 00-2 3.52c0 1.29.91 1.82 2 1.17a4.49 4.49 0 002-3.52c.03-1.29-.88-1.82-2-1.17zM293.07 280.51a4.49 4.49 0 00-2 3.52c0 1.29.91 1.82 2 1.17a4.49 4.49 0 002-3.52c.03-1.29-.88-1.82-2-1.17zM299.5 276.79a4.49 4.49 0 00-2 3.52c0 1.29.91 1.82 2 1.17a4.47 4.47 0 002-3.52c.03-1.29-.87-1.82-2-1.17zM305.94 273.07a4.49 4.49 0 00-2 3.52c0 1.29.91 1.82 2 1.17a4.49 4.49 0 002-3.52c.06-1.24-.88-1.82-2-1.17zM267.33 314.17a4.51 4.51 0 00-2 3.52c0 1.3.91 1.82 2 1.17a4.47 4.47 0 002-3.51c.03-1.3-.88-1.82-2-1.18zM273.77 310.45a4.48 4.48 0 00-2 3.52c0 1.3.9 1.82 2 1.17a4.47 4.47 0 002-3.51c.03-1.3-.88-1.82-2-1.18zM280.2 306.73a4.51 4.51 0 00-2 3.52c0 1.3.91 1.82 2 1.17a4.47 4.47 0 002-3.51c.03-1.3-.88-1.83-2-1.18zM286.64 303a4.49 4.49 0 00-2 3.52c0 1.3.91 1.82 2 1.17a4.47 4.47 0 002-3.51c.03-1.29-.88-1.82-2-1.18zM293.07 299.29a4.49 4.49 0 00-2 3.52c0 1.3.91 1.82 2 1.17a4.47 4.47 0 002-3.51c.03-1.3-.88-1.83-2-1.18zM299.5 295.57a4.49 4.49 0 00-2 3.52c0 1.3.91 1.82 2 1.17a4.45 4.45 0 002-3.52c.03-1.29-.87-1.82-2-1.17zM305.94 291.85a4.49 4.49 0 00-2 3.52c0 1.3.91 1.82 2 1.17a4.48 4.48 0 002-3.52c.06-1.29-.88-1.82-2-1.17z" fill="#fafafa"/></g><g><path d="M396.19 334.13a19.45 19.45 0 01-9.85-2.6c-7.21-4.17-11.34-12.87-11.34-23.9 0-19.38 12.32-41.67 28-50.75 8.47-4.89 16.88-5.42 23.69-1.49 7.2 4.16 11.34 12.87 11.34 23.89 0 19.38-12.32 41.68-28.05 50.76a27.9 27.9 0 01-13.79 4.09zm20.66-67.38A14.76 14.76 0 00410 269c-11.4 6.55-21 24.26-21 38.63 0 5.82 1.63 10.24 4.36 11.81 3.11 1.8 7.44-.16 9.73-1.49 11.43-6.59 21.07-24.3 21.07-38.67 0-5.82-1.63-10.23-4.36-11.81a5.68 5.68 0 00-2.95-.72z" fill="#455a64"/><path d="M426.61 282.38c0-10.89-6.86-14.91-6.86-14.91 2.73 1.58 4.36 6 4.36 11.81 0 14.37-9.64 32.08-21.07 38.67-2.29 1.33-6.61 3.29-9.73 1.49 0 0 5.79 3.6 13.79-.77 11.58-6.31 19.51-21.92 19.51-36.29zM415.61 146.29a7.22 7.22 0 00-14.43 0V261a3.61 3.61 0 002.11 3 11.31 11.31 0 0010.2 0 3.6 3.6 0 002.12-3V146.31z" fill="#37474f"/><path d="M409.85 171.93a9.22 9.22 0 00-4.17-7.22 2.9 2.9 0 00-3-.26L384.9 174.7l-.43.25a.67.67 0 00-.18.11 6.25 6.25 0 00-.85.69 5.9 5.9 0 006.95 9.38l.34-.2 17.91-10.31a2.93 2.93 0 001.21-2.69zM409.85 200.65a9.22 9.22 0 00-4.17-7.21 2.88 2.88 0 00-3-.27l-20.86 12-.43.25a.78.78 0 00-.18.11 5.69 5.69 0 00-.85.69 5.92 5.92 0 001.32 9.38 6 6 0 002.82.7 5.88 5.88 0 002.81-.7c.12-.06.23-.14.34-.2l21-12a2.93 2.93 0 001.2-2.75z" fill="#455a64"/></g></svg>