<svg xmlns="http://www.w3.org/2000/svg" viewBox="0 0 500 500"><path fill="#ebebeb" d="M0 382.4h500v.25H0zm416.78 16.09h33.12v.25h-33.12zm-94.25 2.72h8.69v.25h-8.69zm74.06-12h19.19v.25h-19.19zm-344.13 1.68h43.19v.25H52.46zm52.1 0h6.33v.25h-6.33zm26.91 4.22h93.68v.25h-93.68zM237 337.8H43.91a5.71 5.71 0 01-5.7-5.71V60.66a5.71 5.71 0 015.7-5.66H237a5.71 5.71 0 015.71 5.71v271.38a5.71 5.71 0 01-5.71 5.71zM43.91 55.2a5.46 5.46 0 00-5.45 5.46v271.43a5.46 5.46 0 005.45 5.46H237a5.47 5.47 0 005.46-5.46V60.66A5.47 5.47 0 00237 55.2zm409.4 282.6h-193.1a5.72 5.72 0 01-5.71-5.71V60.66a5.72 5.72 0 015.71-5.66h193.1a5.71 5.71 0 015.69 5.66v271.43a5.71 5.71 0 01-5.69 5.71zM260.21 55.2a5.47 5.47 0 00-5.46 5.46v271.43a5.47 5.47 0 005.46 5.46h193.1a5.47 5.47 0 005.46-5.46V60.66a5.47 5.47 0 00-5.46-5.46z"/><path fill="#f5f5f5" d="M73.31 326.04h25.46v10.83H73.31zm30.81 0h25.46v10.83h-25.46zm30.81 0h25.46v10.83h-25.46zm-77.02 15.07h25.46v10.83H57.91zm30.8 0h25.46v10.83H88.71zm30.81 0h25.46v10.83h-25.46zm30.81 0h25.46v10.83h-25.46zM42.5 356.19h25.46v10.83H42.5zm30.81 0h25.46v10.83H73.31zm30.81 0h25.46v10.83h-25.46zm30.81 0h25.46v10.83h-25.46zm30.8 0h25.46v10.83h-25.46zM57.91 371.27h25.46v10.83H57.91zm30.8 0h25.46v10.83H88.71zm30.81 0h25.46v10.83h-25.46zm30.81 0h25.46v10.83h-25.46zm56.73-91.63h25.46v10.83h-25.46zm30.81 0h25.46v10.83h-25.46zm-46.22 15.08h25.46v10.83h-25.46zm30.81 0h25.46v10.83h-25.46zm-15.4 15.08h25.46v10.83h-25.46zm30.81 0h25.46v10.83h-25.46zM378.9 66.9h25.46v10.83H378.9zm30.81 0h25.46v10.83h-25.46zM363.5 81.98h25.46v10.83H363.5zm30.81 0h25.46v10.83h-25.46zM378.9 97.06h25.46v10.83H378.9zm30.81 0h25.46v10.83h-25.46zM81.01 63.5h25.46v10.83H81.01zm30.81 0h25.46v10.83h-25.46zM65.61 78.58h25.46v10.83H65.61zm30.81 0h25.46v10.83H96.42zm30.8 0h25.46v10.83h-25.46zM50.2 93.66h25.46v10.83H50.2zm30.81 0h25.46v10.83H81.01zm30.81 0h25.46v10.83h-25.46zm-46.21 15.08h25.46v10.83H65.61zm30.81 0h25.46v10.83H96.42zm215.49 84.39h25.46v10.83h-25.46zm30.81 0h25.46v10.83h-25.46zm-107.83 15.08h25.46v10.83h-25.46zm61.62 0h25.46v10.83h-25.46zm30.8 0h25.46v10.83h-25.46zm-107.82 15.07h25.46v10.83h-25.46zm30.8 0h25.46v10.83h-25.46zm61.62 0h25.46v10.83h-25.46zm30.81 0h25.46v10.83h-25.46zm-46.21 15.08h25.46v10.83h-25.46zm30.8 0h25.46v10.83h-25.46zm-2.32 55.42h25.46v10.83h-25.46zm30.81 0h25.46v10.83H355.8zm30.8 0h25.46v10.83H386.6zm30.81 0h25.46v10.83h-25.46zm-107.83 15.08h25.46v10.83h-25.46zm30.81 0h25.46v10.83h-25.46zm61.62 0h25.46v10.83h-25.46zm-107.83 15.08h25.46v10.83h-25.46zm30.81 0h25.46v10.83h-25.46zm30.81 0h25.46v10.83H355.8zm-46.22 15.08h25.46v10.83h-25.46zm30.81 0h25.46v10.83h-25.46zm30.81 0h25.46v10.83H371.2zm-68.63-175.98h25.46v10.83h-25.46zm-30.81 0h25.46v10.83h-25.46zm-30.81 0h25.46v10.83h-25.46zm-30.8 0h25.46v10.83h-25.46zm107.82-15.07h25.46v10.83h-25.46zm-30.81 0h25.46v10.83h-25.46zm-61.61 0h25.46v10.83h-25.46zm107.83-15.08h25.46v10.83h-25.46zm-30.81 0h25.46v10.83h-25.46zm-30.81 0h25.46v10.83h-25.46zm46.21-15.08h25.46v10.83h-25.46zm-30.81 0h25.46v10.83h-25.46zm-30.8 0h25.46v10.83h-25.46zM70.31 248.12h25.46v10.83H70.31zm30.81 0h25.46v10.83h-25.46zm30.81 0h25.46v10.83h-25.46zM54.91 263.2h25.46v10.83H54.91zm30.81 0h25.46v10.83H85.72zm30.8 0h25.46v10.83h-25.46zm30.81 0h25.46v10.83h-25.46zM39.5 278.28h25.46v10.83H39.5zm30.81 0h25.46v10.83H70.31zm30.81 0h25.46v10.83h-25.46zm30.81 0h25.46v10.83h-25.46zm-77.02 15.08h25.46v10.83H54.91zm30.81 0h25.46v10.83H85.72zm30.8 0h25.46v10.83h-25.46zm30.81 0h25.46v10.83h-25.46zm35.94-192.14h25.46v10.83h-25.46zm30.81 0h25.46v10.83h-25.46zm-15.41 15.07h25.46v10.83h-25.46zm81.15-37.88h25.46v10.83h-25.46zm-30.8 0h25.46v10.83h-25.46zm46.21-15.08h25.46v10.83h-25.46zm-30.81 0h25.46v10.83h-25.46zm-30.81 0h25.46v10.83h-25.46z"/><path fill="#e6e6e6" d="M69.43 113.45H172.5V265.6H69.43z"/><path fill="#f0f0f0" d="M60.14 120.2l3.59 20 117.2-9.75v-19.86L60.14 120.2zm-1.01 20.09l2.34 20.18 117.57-2.39 1.24-19.82-121.15 2.03zm3.12 25.18l2.34 20.18 117.57-2.39 1.25-19.82-121.16 2.03zm-.34 34.6l4.73 19.76 116.45-16.43-1.14-19.82-120.04 16.49zm-4.45 21.38l1.07 20.29 117.5 4.93 2.47-19.7-121.04-5.52z"/><path fill="#e6e6e6" d="M405.82 283.9H302.75V131.75h103.07z"/><path fill="#ebebeb" d="M415.12 277.14l-3.6-20-117.19 9.75v19.86l120.79-9.61z"/><path fill="#f0f0f0" d="M393.02 320.93l9.92-17.73-96.73-66.88-12.61 15.34 99.42 69.27zm19.99-89.05l-2.34-20.19-117.57 2.39-1.25 19.82 121.16-2.02zm4.79-55.98l-1.08-20.3-117.49-4.93-2.48 19.71 121.05 5.52z"/><path fill="#f5f5f5" d="M413.5 176.03L397.13 164l-78.3 87.75 13.67 14.4 81-90.12z"/><path fill="#ebebeb" d="M64.6 320.48l14.8-13.22 64.23 63.27-15.75 16.08-63.28-66.13z"/><path fill="#f0f0f0" d="M45.68 297.5l19.28-4.69 26.83 86.07-21.48 6.76-24.63-88.14z"/><ellipse cx="250" cy="416.24" rx="193.89" ry="11.32" fill="#f5f5f5"/><path d="M226 396.78c.38-.12.75-.26 1.13-.39a42.22 42.22 0 0124.62 15.49c-.51 1.6-1.08 3.22-1.7 4.83h.95q.88-2.31 1.61-4.61c1.28-.75 12.44-7.19 17.54-6q2.24 4.85 4.7 10.64h.92c-3.68-8.72-7.06-15.89-9.89-21.49.11-3 1.79-10.07 2.31-12.21a20 20 0 012.58 1.62l.51-.68a20.32 20.32 0 00-2.9-1.81l-.11-.14c-1.63-2.11-2.88-8.1-3.11-9.24 1-1.09 1.6-1.74 1.63-1.78l-.66-.54c-.15.18-15.45 18.45-44.63 26.87l.24.82c1.47-.46 2.9-.91 4.26-1.38zm43.68 8.35c-5-.59-13.85 4.13-16.74 5.77 1-3.28 1.75-6.48 2.34-9.5 2.66-3.33 8.44-5.18 9.89-5.6q2.13 4.11 4.55 9.33zm-4.58-11.35q-1.56-3-2.87-5.43l1.76-7a23.42 23.42 0 013.38 1.29c-.37 1.64-1.79 7.53-2.23 11.14zm-.7-20.28a36.64 36.64 0 002.5 7.95 22.85 22.85 0 00-2.88-1l-1.64-4.86-.19.06c.9-.82 1.63-1.53 2.25-2.15zm-2.73 2.6l1.36 4.07a23.33 23.33 0 00-5.35-.66c1.56-1.22 2.89-2.37 4.03-3.41zm1.5 5l-1.54 6.15c-2-3.56-3.38-5.85-4-6.88a23.64 23.64 0 015.58.73zm-5.9.36c.79 1.27 2.12 3.49 3.88 6.7l-4.15 1.42c.26-3.66.32-6.49.31-8.12zm4.3 7.46q1.44 2.64 3.21 6.1c-1.56.46-6.25 2-9.21 4.81.61-3.41 1-6.57 1.26-9.32zm-5.16-8.4c0 1.18 0 4.25-.31 8.54a13.23 13.23 0 00-5.71-4.21c2.27-1.49 4.28-2.95 6.06-4.33zm-7 4.94c.59.14 3.65 1 6.55 4.84-.27 2.95-.71 6.39-1.41 10.11-2.3-1.68-10.86-7.79-15.82-8.89a101.9 101.9 0 0010.76-6.06zm-12.1 6.75c4.43-.07 15.36 7.88 17.07 9.14-.6 3-1.37 6.25-2.37 9.54a43.43 43.43 0 00-23.38-15c3.15-1.17 6.05-2.4 8.76-3.68z" fill="#263238"/><path d="M226 396.78c.38-.12.75-.26 1.13-.39a42.22 42.22 0 0124.62 15.49c-.51 1.6-1.08 3.22-1.7 4.83h.95q.88-2.31 1.61-4.61c1.28-.75 12.44-7.19 17.54-6q2.24 4.85 4.7 10.64h.92c-3.68-8.72-7.06-15.89-9.89-21.49.11-3 1.79-10.07 2.31-12.21a20 20 0 012.58 1.62l.51-.68a20.32 20.32 0 00-2.9-1.81l-.11-.14c-1.63-2.11-2.88-8.1-3.11-9.24 1-1.09 1.6-1.74 1.63-1.78l-.66-.54c-.15.18-15.45 18.45-44.63 26.87l.24.82c1.47-.46 2.9-.91 4.26-1.38zm43.68 8.35c-5-.59-13.85 4.13-16.74 5.77 1-3.28 1.75-6.48 2.34-9.5 2.66-3.33 8.44-5.18 9.89-5.6q2.13 4.11 4.55 9.33zm-4.58-11.35q-1.56-3-2.87-5.43l1.76-7a23.42 23.42 0 013.38 1.29c-.37 1.64-1.79 7.53-2.23 11.14zm-.7-20.28a36.64 36.64 0 002.5 7.95 22.85 22.85 0 00-2.88-1l-1.64-4.86-.19.06c.9-.82 1.63-1.53 2.25-2.15zm-2.73 2.6l1.36 4.07a23.33 23.33 0 00-5.35-.66c1.56-1.22 2.89-2.37 4.03-3.41zm1.5 5l-1.54 6.15c-2-3.56-3.38-5.85-4-6.88a23.64 23.64 0 015.58.73zm-5.9.36c.79 1.27 2.12 3.49 3.88 6.7l-4.15 1.42c.26-3.66.32-6.49.31-8.12zm4.3 7.46q1.44 2.64 3.21 6.1c-1.56.46-6.25 2-9.21 4.81.61-3.41 1-6.57 1.26-9.32zm-5.16-8.4c0 1.18 0 4.25-.31 8.54a13.23 13.23 0 00-5.71-4.21c2.27-1.49 4.28-2.95 6.06-4.33zm-7 4.94c.59.14 3.65 1 6.55 4.84-.27 2.95-.71 6.39-1.41 10.11-2.3-1.68-10.86-7.79-15.82-8.89a101.9 101.9 0 0010.76-6.06zm-12.1 6.75c4.43-.07 15.36 7.88 17.07 9.14-.6 3-1.37 6.25-2.37 9.54a43.43 43.43 0 00-23.38-15c3.15-1.17 6.05-2.4 8.76-3.68z" fill="#fff" opacity=".5"/><path d="M351 362.46l.7-.48a22.3 22.3 0 00-2.17-2.64l-.06-.16c-.87-2.52-.15-8.6 0-9.75 1.35-.7 2.08-1.15 2.11-1.17l-.45-.72c-.2.12-20.52 12.57-50.86 11.25v.86c1.53.06 3 .09 4.51.09h1.19a42.23 42.23 0 0118.41 22.52 79.41 79.41 0 01-8.63 10.06l.6.61a81.41 81.41 0 008.74-10.2c1.44-.3 14.08-2.85 18.55-.13.59 5.46 1.12 11.68 1.53 18.66l.86-.05c-.74-12.51-1.88-22.62-3-30.26 1.06-2.8 4.9-9 6.08-10.83a19.83 19.83 0 011.89 2.34zm-2.62-4.23a23 23 0 00-2.4-1.89v-5.13h-.21c1.07-.48 2-.92 2.78-1.31a36.63 36.63 0 00-.22 8.33zm-7.58 4.53h-4.47c1.45-3.37 2.41-6 2.92-7.58.29 1.45.85 3.98 1.5 7.58zm-5.08-.76a13.3 13.3 0 00-4.07-5.81c2.59-.69 5-1.44 7.08-2.18-.4 1.12-1.37 4.04-3.06 7.99zm-.49 1.14c-1.2 2.72-2.7 5.84-4.55 9.15-1.65-2.33-7.82-10.85-12.17-13.47a105 105 0 0012.06-2.34c.43.31 3.09 2.1 4.61 6.66zm.72.47h5q.53 3 1.1 6.81c-1.62-.06-6.57-.09-10.26 1.63 1.62-3.05 3-5.91 4.11-8.44zm4-9.37a23.69 23.69 0 015.06 2.47l-3.42 5.34c-.84-4.05-1.45-6.62-1.74-7.81zm.36-.79c1.83-.67 3.45-1.34 4.86-1.95v4.28a24.47 24.47 0 00-4.96-2.33zm-32.7 6.25c3.27-.09 6.41-.33 9.39-.68 4.21 1.34 12.05 12.36 13.26 14.1a97.71 97.71 0 01-5.27 8.29 43.58 43.58 0 00-17.48-21.71zm18.21 22c2-2.79 3.72-5.58 5.24-8.26 3.59-2.31 9.65-2.22 11.16-2.16.44 3 .89 6.47 1.31 10.28-4.69-2.16-14.53-.5-17.81.14zm16-18.41l3.91-6.11a23.54 23.54 0 012.79 2.3c-.93 1.45-4.15 6.59-5.71 9.87-.45-2.26-.81-4.28-1.1-6.06z" fill="#263238"/><path d="M351 362.46l.7-.48a22.3 22.3 0 00-2.17-2.64l-.06-.16c-.87-2.52-.15-8.6 0-9.75 1.35-.7 2.08-1.15 2.11-1.17l-.45-.72c-.2.12-20.52 12.57-50.86 11.25v.86c1.53.06 3 .09 4.51.09h1.19a42.23 42.23 0 0118.41 22.52 79.41 79.41 0 01-8.63 10.06l.6.61a81.41 81.41 0 008.74-10.2c1.44-.3 14.08-2.85 18.55-.13.59 5.46 1.12 11.68 1.53 18.66l.86-.05c-.74-12.51-1.88-22.62-3-30.26 1.06-2.8 4.9-9 6.08-10.83a19.83 19.83 0 011.89 2.34zm-2.62-4.23a23 23 0 00-2.4-1.89v-5.13h-.21c1.07-.48 2-.92 2.78-1.31a36.63 36.63 0 00-.22 8.33zm-7.58 4.53h-4.47c1.45-3.37 2.41-6 2.92-7.58.29 1.45.85 3.98 1.5 7.58zm-5.08-.76a13.3 13.3 0 00-4.07-5.81c2.59-.69 5-1.44 7.08-2.18-.4 1.12-1.37 4.04-3.06 7.99zm-.49 1.14c-1.2 2.72-2.7 5.84-4.55 9.15-1.65-2.33-7.82-10.85-12.17-13.47a105 105 0 0012.06-2.34c.43.31 3.09 2.1 4.61 6.66zm.72.47h5q.53 3 1.1 6.81c-1.62-.06-6.57-.09-10.26 1.63 1.62-3.05 3-5.91 4.11-8.44zm4-9.37a23.69 23.69 0 015.06 2.47l-3.42 5.34c-.84-4.05-1.45-6.62-1.74-7.81zm.36-.79c1.83-.67 3.45-1.34 4.86-1.95v4.28a24.47 24.47 0 00-4.96-2.33zm-32.7 6.25c3.27-.09 6.41-.33 9.39-.68 4.21 1.34 12.05 12.36 13.26 14.1a97.71 97.71 0 01-5.27 8.29 43.58 43.58 0 00-17.48-21.71zm18.21 22c2-2.79 3.72-5.58 5.24-8.26 3.59-2.31 9.65-2.22 11.16-2.16.44 3 .89 6.47 1.31 10.28-4.69-2.16-14.53-.5-17.81.14zm16-18.41l3.91-6.11a23.54 23.54 0 012.79 2.3c-.93 1.45-4.15 6.59-5.71 9.87-.45-2.26-.81-4.28-1.1-6.06z" fill="#fff" opacity=".5"/><path fill="#6f9639" d="M309.794 369.937l-46.981 12.203-4.523-17.413 46.981-12.202z"/><path style="isolation:isolate" fill="#fff" opacity=".2" d="M309.804 369.938l-16.347 4.246-4.523-17.413 16.348-4.246z"/><path fill="#6f9639" d="M254.63 378.73l-33.01-5.95-3.71 44.34h32.53l4.19-38.39z"/><path style="isolation:isolate" opacity=".2" d="M234.21 375.05l-12.59-2.27-3.71 44.34h12.37l3.93-42.07z"/><g style="isolation:isolate" opacity=".4" fill="#fff"><path d="M254.63 378.73l-33.01-5.95-3.71 44.34h32.53l4.19-38.39z"/><path style="isolation:isolate" opacity=".2" d="M234.21 375.05l-12.59-2.27-3.71 44.34h12.37l3.93-42.07z"/></g><path fill="#6f9639" d="M269.18 371.98h50.34v45.14h-50.34z"/><path style="isolation:isolate" opacity=".2" d="M269.18 371.98h17.52v45.14h-17.52z"/><path fill="#6f9639" d="M436.692 372.94l-50.003 5.821-4.249-36.503 50.002-5.821z"/><path style="isolation:isolate" fill="#fff" opacity=".2" d="M436.69 372.92l-17.403 2.026-4.25-36.504 17.403-2.025z"/><path fill="#6f9639" d="M352.989 343.378l49.517 9.061-5.088 27.808-49.518-9.061z"/><path style="isolation:isolate" opacity=".2" d="M352.987 343.373l17.234 3.154-5.089 27.808-17.233-3.154z"/><path style="isolation:isolate" fill="#fff" opacity=".4" d="M352.989 343.378l49.517 9.061-5.088 27.808-49.518-9.061z"/><path fill="#6f9639" d="M344.45 372.02h50.34v45.14h-50.34z"/><path style="isolation:isolate" opacity=".2" d="M344.45 372.02h17.52v45.14h-17.52z"/><path fill="#6f9639" d="M441.73 417.2h-50.34v-45.14h50.34z"/><path style="isolation:isolate" opacity=".2" d="M441.73 417.2h-50.34v-45.14h50.34z"/><path style="isolation:isolate" fill="#fff" opacity=".2" d="M441.73 417.2h-17.52v-45.14h17.52z"/><path d="M93.14 181.75s-23 14.54-26.59 19.07S57 243.23 57 243.23s-6.91 7.13-5 10 5 8.16 7 6.09 5.56-10.44 5.56-10.44l-1.08-2.76s10.77-37.18 11.38-38.34 23.92-14 23.92-14z" fill="#b97964"/><path d="M110.43 171.27l-2.38 25.11-8 2.53-11.37 3.58-5-6.94-5-6.9c8.83-6.13 21.66-17.38 31.75-17.38z" fill="#6f9639"/><path d="M101.12 191.6l-1.12 7.31-11.37 3.58-5-6.94c5.88-4.19 17.49-3.95 17.49-3.95z" style="isolation:isolate" opacity=".2"/><path fill="#b97964" d="M152.93 410.34l8.11.85.41-4.7 1.11-12.79-8.11-.86-1.23 14.13-.29 3.37zm-70.48-1.03h7.86l.39-1.78.05-.22 2.45-11.35.05-.22.94-4.36h-7.87l-3.87 17.93z"/><path style="isolation:isolate" opacity=".2" d="M154.45 392.84l-1.23 14.13 8.23-.48 1.11-12.79-8.11-.86zm-71.77 15.47h.01l8.05-1h.01l2.39-10.95h-.01l-8 .63-2.38 10.98-.07.34z"/><path d="M91.4 408.83h-9.55a.69.69 0 00-.67.54l-1.55 7a1.17 1.17 0 00.9 1.38 1.06 1.06 0 00.25 0c3.09 0 5.34-.24 9.22-.24 2.39 0 9.6.25 12.9.25s3.73-3.26 2.38-3.56c-6.06-1.32-10.62-3.15-12.56-4.89a1.89 1.89 0 00-1.32-.48zm70.5-.25h-9.55a.69.69 0 00-.67.54l-1.55 7a1.17 1.17 0 00.9 1.38 1.06 1.06 0 00.25 0c3.09 0 5.34-.24 9.22-.24 2.39 0 9.6.25 12.9.25s3.73-3.26 2.38-3.56c-6.06-1.32-10.62-3.15-12.56-4.89a1.89 1.89 0 00-1.32-.48zm1.4-5.27l-11.6.37c4.22-77.56 6.19-81.52-31.45-118.15-.88 11.08-1.87 22.58-2.84 32.16-.61 5.93-.79 11.11-1.78 14.9-6.7 25.69-22.83 71.16-22.83 71.16l-11.32.5S95.65 342 97.11 321.64c1.89-26.64-4.31-55.48-.77-76.33l39.54 6.7c35.87 52.48 42.43 63.83 27.42 151.3z" fill="#263238"/><path d="M141.45 160.16a9.92 9.92 0 01-.56 1 10.88 10.88 0 01-4.9 4.24 9.91 9.91 0 01-12.68-3.75c-3-4.72-1.94-9.19-.73-16.88a10.47 10.47 0 011.81-4.62 10.64 10.64 0 0114.81-2.67c6.8 4.67 5.38 16.2 2.25 22.68z" fill="#b97964"/><path d="M136 165.42a10.27 10.27 0 01-10-.87 11.57 11.57 0 011.91-2.28 15.36 15.36 0 018.09 3.15z" style="isolation:isolate" opacity=".2"/><path d="M118.57 172c3 4.21 12.45 4.93 12.45 4.93s6.06-.33 5.25-2.38c-3.26-1.28-4.55-3.21-4.79-5.37a10.22 10.22 0 01.49-3.93c.21-.7.47-1.4.75-2.08l-9.52-10.87c.29 5.86-.1 16.45-4.63 19.7z" fill="#b97964"/><path d="M122.08 160.74s-11.65-13.29-.18-25.14a7.42 7.42 0 00-3.33 2.35s0-6.41 11.11-7 14.38 4.62 14.38 4.62l-.66-2.67s8.21 5.56 0 10.75c0 0-2.39-1.78-2.26 1s-1.94 7.25-4.26 9.1-4.94 8.5-4.94 8.5-5.26-2.57-9.86-1.51z" fill="#263238"/><path d="M134.38 152a5.07 5.07 0 001.8 3.93c1.4 1 2.89-1 3.16-3.31.23-2.07-.21-5.15-1.94-5.13s-3.12 2.31-3.02 4.51z" fill="#b97964"/><path d="M120.25 285.49c-.88 11.08-1.87 22.6-2.84 32.18-1.41-13.83-3.16-23.67-3.16-23.67s-1.63-1.34-6.11-8.49 0-20.5 0-20.5c-.14 12.38 12.11 20.48 12.11 20.48z" style="isolation:isolate" opacity=".2"/><path fill="#6f9639" d="M164.6 402.06l-.56 3.25h-13.63v-3l14.19-.25zm-70.45 1.25l-1.31 3H80.43l.23-3h13.49zM140.94 252a4.13 4.13 0 01-4.78 3.5l-40.51-6.7a2.32 2.32 0 01-1.9-2.77c5-24.46 6.25-70.66 12.91-73.85 6.89-3.29 36.37.58 36.37.58a100.35 100.35 0 011.44 10.55c0 .45.08.9.1 1.35.48 5.85.6 12.08.5 18.34v1.26a422 422 0 01-4.13 47.74z"/><path d="M145.1 199.44v4.85c-.07 3.44-.2 6.88-.39 10.25-.85 16-2.74 30.59-3.72 37.49a4.13 4.13 0 01-4.78 3.5l-40.51-6.71a2.31 2.31 0 01-1.9-2.76c5-24.46 6.25-70.66 12.91-73.85 6.89-3.29 36.37.58 36.37.58a100.35 100.35 0 011.44 10.55c0 .45.08.9.1 1.35.38 4.73.49 9.71.48 14.75z" style="isolation:isolate" fill="#fff" opacity=".4"/><path d="M110.43 179.77s-.64-6.14 4-8.88c0 0-9.76-2.18-13.72 8.88zm10.93.23s1.6-4.29 8.06-7.22a15.56 15.56 0 0112.39 0s-9.76 3-10.81 15.27zm6.09 45.06s9 4.27 16.37 1.63v4.62s-2.53 11.87-18.36 9.62 1.99-15.87 1.99-15.87z" fill="#263238"/><path d="M108.58 179s-.13-6.16 6.07-6.18 5.54 6.18 5.54 6.18h-1.62s.11-4.9-4.18-4.62-4 4-4 4z" fill="#263238"/><path d="M108.58 179s-.13-6.16 6.07-6.18 5.54 6.18 5.54 6.18h-1.62s.11-4.9-4.18-4.62-4 4-4 4z" style="isolation:isolate" fill="#fff" opacity=".1"/><path d="M126.16 245.31c-7.57 7.31-44.61 4.06-45.93-3.85s6.2-39.15 11.41-43.84a13.29 13.29 0 01.15-4c.53-3.44 2.17-9.06 6.91-16.67 0 0 18.83-1.81 32.3 2.31 0-.04 2.73 58.74-4.84 66.05z" fill="#263238"/><path d="M131 179.22a23.82 23.82 0 00-6.59 10.94c-1.85 6.86-19.92 12.8-29.28 7.65a6.64 6.64 0 01-3.34-4.23c.53-3.44 2.17-9.06 6.91-16.67 0 0 18.83-1.81 32.3 2.31z" style="isolation:isolate" fill="#fff" opacity=".1"/><path d="M91.79 198.74s11.09 4.61 29.57 2.24c0 0-1.65 40-4.51 43.12s-32.93-1.85-34.25-4 3.83-24.52 3.83-24.52 24.53 3.29 27.16 3.29 5-3.95 5-3.95-3.13 3.29-6.56 2.77l-26.11-4s1.47-10.87 5.87-14.95zm32.09 13.58s.41 22.62-2.52 29.41c0 0 5 .39 6.09-.51s3.68-20.07 3.55-30.35z" style="isolation:isolate" fill="#fff" opacity=".1"/><path d="M438.08 214.92a89.83 89.83 0 01-89.92 89.92c-1.64 0-3.27 0-4.89-.14a89.92 89.92 0 1194.81-89.78z" fill="#6f9639"/><path d="M438.08 214.92a89.83 89.83 0 01-89.92 89.92c-1.64 0-3.27 0-4.89-.14a89.92 89.92 0 1194.81-89.78z" style="isolation:isolate" fill="#fff" opacity=".8"/><path d="M426.34 179.22a2.36 2.36 0 00-2.36-2.36 2.48 2.48 0 00-.68.1 5.68 5.68 0 00.05-.72 5 5 0 00-5-5 5.52 5.52 0 00-.92.09 4.37 4.37 0 00-8.11 2.21h-.07a4 4 0 100 8.06H424a2.35 2.35 0 002.34-2.38z" fill="#6f9639"/><path d="M426.34 179.22a2.36 2.36 0 00-2.36-2.36 2.48 2.48 0 00-.68.1 5.68 5.68 0 00.05-.72 5 5 0 00-5-5 5.52 5.52 0 00-.92.09 4.37 4.37 0 00-8.11 2.21h-.07a4 4 0 100 8.06H424a2.35 2.35 0 002.34-2.38z" style="isolation:isolate" fill="#fff" opacity=".7"/><circle cx="351.63" cy="175.31" r="18.46" fill="#fff"/><path d="M381.17 168.56a2.37 2.37 0 00-2.36-2.37 2.48 2.48 0 00-.68.1 5.68 5.68 0 00.05-.72 5 5 0 00-5-5 5.52 5.52 0 00-.92.08 4.37 4.37 0 00-8.11 2.21h-.07a4 4 0 100 8.06h14.79a2.35 2.35 0 002.3-2.36z" fill="#6f9639"/><path d="M381.17 168.56a2.37 2.37 0 00-2.36-2.37 2.48 2.48 0 00-.68.1 5.68 5.68 0 00.05-.72 5 5 0 00-5-5 5.52 5.52 0 00-.92.08 4.37 4.37 0 00-8.11 2.21h-.07a4 4 0 100 8.06h14.79a2.35 2.35 0 002.3-2.36z" style="isolation:isolate" fill="#fff" opacity=".7"/><path d="M343.3 180.76a3.8 3.8 0 00-3.8-3.8 3.88 3.88 0 00-1.09.16 8.92 8.92 0 00.08-1.16 8 8 0 00-9.52-7.91 7 7 0 00-13 3.55h-.12a6.48 6.48 0 000 13h23.8a3.8 3.8 0 003.65-3.84z" fill="#6f9639"/><path d="M343.3 180.76a3.8 3.8 0 00-3.8-3.8 3.88 3.88 0 00-1.09.16 8.92 8.92 0 00.08-1.16 8 8 0 00-9.52-7.91 7 7 0 00-13 3.55h-.12a6.48 6.48 0 000 13h23.8a3.8 3.8 0 003.65-3.84z" style="isolation:isolate" fill="#fff" opacity=".7"/><path d="M392 208.71a3.8 3.8 0 00-3.8-3.8 3.94 3.94 0 00-1.09.16 7.46 7.46 0 00.09-1.16 8 8 0 00-9.53-7.91 7 7 0 00-13 3.55h-.12a6.48 6.48 0 100 13h23.8a3.79 3.79 0 003.65-3.84z" fill="#6f9639"/><path d="M392 208.71a3.8 3.8 0 00-3.8-3.8 3.94 3.94 0 00-1.09.16 7.46 7.46 0 00.09-1.16 8 8 0 00-9.53-7.91 7 7 0 00-13 3.55h-.12a6.48 6.48 0 100 13h23.8a3.79 3.79 0 003.65-3.84z" style="isolation:isolate" fill="#fff" opacity=".7"/><path d="M284 190.73a2 2 0 00-2-2 2.25 2.25 0 00-.58.08 4.07 4.07 0 00.05-.61 4.26 4.26 0 00-4.26-4.26 4.92 4.92 0 00-.78.07 3.72 3.72 0 00-6.9 1.89h-.06a3.43 3.43 0 000 6.86H282a2 2 0 002-2.03z" fill="#6f9639"/><path d="M284 190.73a2 2 0 00-2-2 2.25 2.25 0 00-.58.08 4.07 4.07 0 00.05-.61 4.26 4.26 0 00-4.26-4.26 4.92 4.92 0 00-.78.07 3.72 3.72 0 00-6.9 1.89h-.06a3.43 3.43 0 000 6.86H282a2 2 0 002-2.03z" style="isolation:isolate" fill="#fff" opacity=".7"/><path d="M324.66 147.68a2 2 0 00-2-2 2.2 2.2 0 00-.58.08 4.18 4.18 0 00.05-.61 4.26 4.26 0 00-4.26-4.26 4 4 0 00-.78.07 3.72 3.72 0 00-6.9 1.88h-.06a3.43 3.43 0 000 6.86h12.57a2 2 0 001.96-2.02z" fill="#6f9639"/><path d="M324.66 147.68a2 2 0 00-2-2 2.2 2.2 0 00-.58.08 4.18 4.18 0 00.05-.61 4.26 4.26 0 00-4.26-4.26 4 4 0 00-.78.07 3.72 3.72 0 00-6.9 1.88h-.06a3.43 3.43 0 000 6.86h12.57a2 2 0 001.96-2.02z" style="isolation:isolate" fill="#fff" opacity=".7"/><path d="M277.15 211.91s2.67 3.78 3.6 5 5.53 8.67 6.16 13.61c.06.53.13 1 .19 1.38-2 13.09-1.67 37-1.6 41.13h6.28c.06-4.62.59-46.88.79-48.17s2.84-6.57 6.89-8.7 7.57-9.21 7.57-9.21h-1.3a22.91 22.91 0 01-5.81 6.73 11.86 11.86 0 01-1.53.91 21.83 21.83 0 00-1.36-7.64l-.7.65a18.12 18.12 0 01.54 7.75 14 14 0 00-3.53 2.36c-3.54-4.6-5.53-15.13-5.53-15.13l-.9.5a52.35 52.35 0 001.17 6.45 105.62 105.62 0 003.52 10.19 24.43 24.43 0 00-2.68 5 1.9 1.9 0 00-.34-.41c-2.3-2.08-6.64-11.93-6.64-11.93-1-2.29.56-8.3.56-8.3h-1.21l-.54 5.26-3.05-3.34-.55.46 3.23 4.15 1.66 5.26-4.34-4.8z" fill="#6f9639"/><path d="M277.15 211.91s2.67 3.78 3.6 5 5.53 8.67 6.16 13.61c.06.53.13 1 .19 1.38-2 13.09-1.67 37-1.6 41.13h6.28c.06-4.62.59-46.88.79-48.17s2.84-6.57 6.89-8.7 7.57-9.21 7.57-9.21h-1.3a22.91 22.91 0 01-5.81 6.73 11.86 11.86 0 01-1.53.91 21.83 21.83 0 00-1.36-7.64l-.7.65a18.12 18.12 0 01.54 7.75 14 14 0 00-3.53 2.36c-3.54-4.6-5.53-15.13-5.53-15.13l-.9.5a52.35 52.35 0 001.17 6.45 105.62 105.62 0 003.52 10.19 24.43 24.43 0 00-2.68 5 1.9 1.9 0 00-.34-.41c-2.3-2.08-6.64-11.93-6.64-11.93-1-2.29.56-8.3.56-8.3h-1.21l-.54 5.26-3.05-3.34-.55.46 3.23 4.15 1.66 5.26-4.34-4.8z" style="isolation:isolate" fill="#fff" opacity=".5"/><path d="M315.37 207c-.33-.29-.76-.66-.61-1.08s.54-.43.77-.69c.49-.53 0-1.4-.53-1.83s-1.3-.77-1.54-1.45a2 2 0 00-.19-.53c-.35-.51-1.14-.17-1.63.19a2.81 2.81 0 01-.59.33 1.35 1.35 0 00-.37-.68c-.34-.28-.77-.66-.62-1.07s.54-.44.78-.7c.48-.53 0-1.39-.54-1.83s-1.3-.77-1.54-1.45a2.1 2.1 0 00-.19-.53c-.35-.5-1.14-.17-1.63.19s-1.3.69-1.63.17c-.2-.29-.09-.71-.27-1-.31-.5-1.11-.26-1.56.12s-1 .89-1.52.76a2.92 2.92 0 00.44-.19c.74-.39.64-1.81.08-2.29-.33-.28-.76-.66-.61-1.07s.53-.44.77-.7c.48-.53 0-1.39-.54-1.83s-1.3-.77-1.53-1.44a2.22 2.22 0 00-.19-.53c-.35-.51-1.14-.18-1.64.19s-1.29.68-1.63.17c-.19-.3-.08-.72-.27-1-.31-.5-1.1-.26-1.55.12s-1 .9-1.53.76-.81-.69-1.32-.75-.95.48-1.09 1a5.8 5.8 0 01-.42 1.56 2.07 2.07 0 01-.85-1 2.1 2.1 0 00-.19-.53c-.35-.5-1.14-.17-1.63.19s-1.3.69-1.63.17c-.2-.29-.09-.71-.27-1-.32-.5-1.11-.26-1.56.12s-.95.89-1.53.76-.81-.69-1.32-.75-1 .48-1.09 1a5.45 5.45 0 01-.42 1.56c-.77-.15-1.84-.12-2 .64a1.15 1.15 0 00.25.91 1.27 1.27 0 00-.27.18c-.45.38-.95.89-1.53.76s-.8-.69-1.31-.76-1 .49-1.09 1a5.77 5.77 0 01-.42 1.57c-.77-.15-1.84-.12-2 .64-.12.51.27 1 .59 1.38s.59 1 .25 1.42a2.69 2.69 0 00-1.53.39 1.13 1.13 0 00-.44 1.4 1.75 1.75 0 001 .68c1.17.47.78 1.51.44 2.34h-.12c-.49-.12-.8-.69-1.31-.76s-1 .49-1.1 1a5.42 5.42 0 01-.41 1.57c-.77-.15-1.84-.12-2 .64-.13.51.27 1 .59 1.38s.58 1 .25 1.42a2.69 2.69 0 00-1.53.38 1.17 1.17 0 00-.45 1.41 1.81 1.81 0 001 .68c2 .82-.63 3.36.37 3.53 1.29.21 2.8 0 2.89 1.54a4.15 4.15 0 00.12.77c.24.88.87 1.25 2.16.64.82-.38 1-.86 1.95-.74.67.08 1.15.54 1.88.48a.73.73 0 00.3-.07.84.84 0 00.22-.24c.65-.93 1.17-.55 2.24-.6a.32.32 0 00.23-.07.36.36 0 00.1-.25 2.36 2.36 0 00-.07-.79.65.65 0 010-.41c.06-.19.28-.26.46-.34a1.42 1.42 0 00.74-1.16c1 .1 1.95.22 2 1.45a4.15 4.15 0 00.12.77c.24.88.87 1.25 2.16.64.82-.38 1-.86 1.95-.74.67.08 1.15.54 1.88.48a.78.78 0 00.3-.07.84.84 0 00.22-.24c.65-.93 1.17-.55 2.24-.6a.32.32 0 00.23-.07.36.36 0 00.1-.25 2.36 2.36 0 00-.07-.79.73.73 0 01-.05-.41c.07-.19.29-.26.47-.34a1.37 1.37 0 00.61-.65 2 2 0 001.41-.25c.82-.39 1-.87 1.95-.75.67.09 1.15.55 1.89.48a.59.59 0 00.29-.07.64.64 0 00.22-.24.56.56 0 01-.11.37 2.13 2.13 0 00-1.21.31.91.91 0 00-.35 1.1 1.43 1.43 0 00.77.54c1.6.64-.5 2.64.29 2.77 1 .17 2.21 0 2.28 1.22a2.53 2.53 0 00.09.6c.19.7.69 1 1.7.51.65-.3.8-.68 1.54-.59.53.07.9.43 1.48.39a.65.65 0 00.24-.06.77.77 0 00.17-.19c.51-.73.92-.43 1.76-.47a.3.3 0 00.19-.05.29.29 0 00.07-.2 1.84 1.84 0 00-.05-.62.63.63 0 010-.33c.05-.14.23-.2.37-.27a1.16 1.16 0 00.58-1.2 1.51 1.51 0 01.69 0c.67.08 1.15.54 1.89.48a.69.69 0 00.29-.07.88.88 0 00.23-.24c.65-.93 1.16-.55 2.23-.6a.34.34 0 00.24-.07.31.31 0 00.09-.25 2.12 2.12 0 00-.07-.79.65.65 0 010-.41c.07-.19.28-.26.46-.34a1.47 1.47 0 00.45-2.19c-.2-.24-.51-.48-.45-.78s.53-.4.85-.56c.48-.47.41-1.89-.15-2.36z" fill="#6f9639"/><path d="M315.37 207c-.33-.29-.76-.66-.61-1.08s.54-.43.77-.69c.49-.53 0-1.4-.53-1.83s-1.3-.77-1.54-1.45a2 2 0 00-.19-.53c-.35-.51-1.14-.17-1.63.19a2.81 2.81 0 01-.59.33 1.35 1.35 0 00-.37-.68c-.34-.28-.77-.66-.62-1.07s.54-.44.78-.7c.48-.53 0-1.39-.54-1.83s-1.3-.77-1.54-1.45a2.1 2.1 0 00-.19-.53c-.35-.5-1.14-.17-1.63.19s-1.3.69-1.63.17c-.2-.29-.09-.71-.27-1-.31-.5-1.11-.26-1.56.12s-1 .89-1.52.76a2.92 2.92 0 00.44-.19c.74-.39.64-1.81.08-2.29-.33-.28-.76-.66-.61-1.07s.53-.44.77-.7c.48-.53 0-1.39-.54-1.83s-1.3-.77-1.53-1.44a2.22 2.22 0 00-.19-.53c-.35-.51-1.14-.18-1.64.19s-1.29.68-1.63.17c-.19-.3-.08-.72-.27-1-.31-.5-1.1-.26-1.55.12s-1 .9-1.53.76-.81-.69-1.32-.75-.95.48-1.09 1a5.8 5.8 0 01-.42 1.56 2.07 2.07 0 01-.85-1 2.1 2.1 0 00-.19-.53c-.35-.5-1.14-.17-1.63.19s-1.3.69-1.63.17c-.2-.29-.09-.71-.27-1-.32-.5-1.11-.26-1.56.12s-.95.89-1.53.76-.81-.69-1.32-.75-1 .48-1.09 1a5.45 5.45 0 01-.42 1.56c-.77-.15-1.84-.12-2 .64a1.15 1.15 0 00.25.91 1.27 1.27 0 00-.27.18c-.45.38-.95.89-1.53.76s-.8-.69-1.31-.76-1 .49-1.09 1a5.77 5.77 0 01-.42 1.57c-.77-.15-1.84-.12-2 .64-.12.51.27 1 .59 1.38s.59 1 .25 1.42a2.69 2.69 0 00-1.53.39 1.13 1.13 0 00-.44 1.4 1.75 1.75 0 001 .68c1.17.47.78 1.51.44 2.34h-.12c-.49-.12-.8-.69-1.31-.76s-1 .49-1.1 1a5.42 5.42 0 01-.41 1.57c-.77-.15-1.84-.12-2 .64-.13.51.27 1 .59 1.38s.58 1 .25 1.42a2.69 2.69 0 00-1.53.38 1.17 1.17 0 00-.45 1.41 1.81 1.81 0 001 .68c2 .82-.63 3.36.37 3.53 1.29.21 2.8 0 2.89 1.54a4.15 4.15 0 00.12.77c.24.88.87 1.25 2.16.64.82-.38 1-.86 1.95-.74.67.08 1.15.54 1.88.48a.73.73 0 00.3-.07.84.84 0 00.22-.24c.65-.93 1.17-.55 2.24-.6a.32.32 0 00.23-.07.36.36 0 00.1-.25 2.36 2.36 0 00-.07-.79.65.65 0 010-.41c.06-.19.28-.26.46-.34a1.42 1.42 0 00.74-1.16c1 .1 1.95.22 2 1.45a4.15 4.15 0 00.12.77c.24.88.87 1.25 2.16.64.82-.38 1-.86 1.95-.74.67.08 1.15.54 1.88.48a.78.78 0 00.3-.07.84.84 0 00.22-.24c.65-.93 1.17-.55 2.24-.6a.32.32 0 00.23-.07.36.36 0 00.1-.25 2.36 2.36 0 00-.07-.79.73.73 0 01-.05-.41c.07-.19.29-.26.47-.34a1.37 1.37 0 00.61-.65 2 2 0 001.41-.25c.82-.39 1-.87 1.95-.75.67.09 1.15.55 1.89.48a.59.59 0 00.29-.07.64.64 0 00.22-.24.56.56 0 01-.11.37 2.13 2.13 0 00-1.21.31.91.91 0 00-.35 1.1 1.43 1.43 0 00.77.54c1.6.64-.5 2.64.29 2.77 1 .17 2.21 0 2.28 1.22a2.53 2.53 0 00.09.6c.19.7.69 1 1.7.51.65-.3.8-.68 1.54-.59.53.07.9.43 1.48.39a.65.65 0 00.24-.06.77.77 0 00.17-.19c.51-.73.92-.43 1.76-.47a.3.3 0 00.19-.05.29.29 0 00.07-.2 1.84 1.84 0 00-.05-.62.63.63 0 010-.33c.05-.14.23-.2.37-.27a1.16 1.16 0 00.58-1.2 1.51 1.51 0 01.69 0c.67.08 1.15.54 1.89.48a.69.69 0 00.29-.07.88.88 0 00.23-.24c.65-.93 1.16-.55 2.23-.6a.34.34 0 00.24-.07.31.31 0 00.09-.25 2.12 2.12 0 00-.07-.79.65.65 0 010-.41c.07-.19.28-.26.46-.34a1.47 1.47 0 00.45-2.19c-.2-.24-.51-.48-.45-.78s.53-.4.85-.56c.48-.47.41-1.89-.15-2.36z" style="isolation:isolate" fill="#fff" opacity=".6"/><path d="M422.71 204.81s-2.67 3.78-3.59 5-5.53 8.67-6.16 13.61c-.07.53-.14 1-.2 1.38 2 13.09 1.67 37 1.6 41.14h-6.28c-.06-4.63-.59-46.89-.79-48.18s-2.83-6.56-6.89-8.7-7.56-9.21-7.56-9.21h1.29a23.2 23.2 0 005.81 6.74 15.8 15.8 0 001.53.91 21.85 21.85 0 011.36-7.65l.7.65a18.29 18.29 0 00-.54 7.75 14.12 14.12 0 013.53 2.36c3.54-4.6 5.53-15.12 5.53-15.12l.91.49a55.09 55.09 0 01-1.17 6.46c-.67 2.72-2.62 7.85-3.52 10.18a24.3 24.3 0 012.67 5 1.73 1.73 0 01.34-.41c2.31-2.09 6.64-11.94 6.64-11.94 1.05-2.28-.55-8.29-.55-8.29h1.21l.54 5.25 3-3.32.55.46-3.22 4.15-1.66 5.26 4.33-4.8z" fill="#6f9639"/><path d="M422.71 204.81s-2.67 3.78-3.59 5-5.53 8.67-6.16 13.61c-.07.53-.14 1-.2 1.38 2 13.09 1.67 37 1.6 41.14h-6.28c-.06-4.63-.59-46.89-.79-48.18s-2.83-6.56-6.89-8.7-7.56-9.21-7.56-9.21h1.29a23.2 23.2 0 005.81 6.74 15.8 15.8 0 001.53.91 21.85 21.85 0 011.36-7.65l.7.65a18.29 18.29 0 00-.54 7.75 14.12 14.12 0 013.53 2.36c3.54-4.6 5.53-15.12 5.53-15.12l.91.49a55.09 55.09 0 01-1.17 6.46c-.67 2.72-2.62 7.85-3.52 10.18a24.3 24.3 0 012.67 5 1.73 1.73 0 01.34-.41c2.31-2.09 6.64-11.94 6.64-11.94 1.05-2.28-.55-8.29-.55-8.29h1.21l.54 5.25 3-3.32.55.46-3.22 4.15-1.66 5.26 4.33-4.8z" style="isolation:isolate" fill="#fff" opacity=".4"/><path d="M384.49 199.89c.34-.28.76-.66.61-1.07s-.53-.44-.77-.7c-.48-.53 0-1.39.54-1.83s1.3-.77 1.53-1.45a2.58 2.58 0 01.19-.53c.35-.5 1.14-.17 1.64.19a2.36 2.36 0 00.58.33 1.37 1.37 0 01.38-.68c.33-.28.76-.65.61-1.07s-.54-.44-.77-.7c-.49-.53 0-1.39.54-1.83s1.3-.77 1.53-1.44a2.22 2.22 0 01.19-.53c.35-.51 1.14-.18 1.64.19s1.29.68 1.63.17c.19-.3.08-.72.27-1 .31-.51 1.1-.27 1.55.11s.95.89 1.53.76c-.15-.06-.31-.11-.45-.18-.74-.39-.64-1.82-.08-2.29.34-.29.76-.66.61-1.08s-.53-.44-.77-.7c-.48-.53 0-1.39.54-1.82s1.3-.78 1.53-1.45a2.24 2.24 0 01.2-.53c.35-.51 1.13-.18 1.63.19s1.29.68 1.63.17c.19-.3.08-.72.27-1 .31-.51 1.1-.27 1.56.11s.95.9 1.53.76.81-.69 1.31-.75 1 .49 1.1 1a5.44 5.44 0 00.41 1.56h.07a2.1 2.1 0 00.84-1 2.22 2.22 0 01.19-.53c.35-.51 1.14-.18 1.64.19s1.29.68 1.63.17c.19-.3.08-.72.27-1 .31-.51 1.1-.27 1.55.11s1 .9 1.53.76.81-.69 1.32-.75.95.48 1.09 1a5.8 5.8 0 00.42 1.56c.77-.15 1.84-.12 2 .64a1.18 1.18 0 01-.24.91l.26.18c.45.38.95.9 1.53.76s.81-.69 1.31-.75 1 .48 1.1 1a5.78 5.78 0 00.41 1.56c.78-.15 1.84-.12 2 .64.12.51-.27 1-.59 1.39s-.59 1-.26 1.41a2.73 2.73 0 011.54.39 1.16 1.16 0 01.44 1.4 1.74 1.74 0 01-1 .68c-1.16.47-.78 1.51-.44 2.34h.12c.5-.12.81-.69 1.31-.75s1 .48 1.1 1a5.45 5.45 0 00.42 1.56c.77-.15 1.83-.12 2 .64.12.51-.27 1-.59 1.38s-.59 1-.26 1.42a2.73 2.73 0 011.54.39 1.15 1.15 0 01.44 1.4 1.74 1.74 0 01-1 .68c-2 .82.64 3.36-.37 3.53-1.28.21-2.8 0-2.89 1.54a3.45 3.45 0 01-.12.77c-.24.88-.86 1.25-2.16.64-.82-.38-1-.86-1.94-.74-.68.08-1.16.54-1.89.48a.78.78 0 01-.3-.07.84.84 0 01-.22-.24c-.65-.93-1.17-.55-2.24-.6a.36.36 0 01-.23-.06.37.37 0 01-.1-.25 2.16 2.16 0 01.08-.8.82.82 0 000-.41c-.07-.19-.29-.26-.46-.34a1.41 1.41 0 01-.75-1.15c-1 .09-2 .21-2 1.44a4.19 4.19 0 01-.11.77c-.25.88-.87 1.25-2.16.64-.82-.38-1-.86-1.95-.74-.67.08-1.15.54-1.89.48a.69.69 0 01-.29-.07.88.88 0 01-.23-.24c-.65-.93-1.16-.55-2.23-.6a.38.38 0 01-.24-.06.32.32 0 01-.09-.25 2 2 0 01.07-.8.65.65 0 000-.41c-.07-.19-.28-.26-.46-.34a1.31 1.31 0 01-.62-.65 2 2 0 01-1.41-.25c-.82-.39-1-.87-1.95-.75-.67.09-1.15.55-1.88.49a.79.79 0 01-.3-.08.69.69 0 01-.22-.23.52.52 0 00.1.38 2 2 0 011.21.3.89.89 0 01.35 1.1 1.35 1.35 0 01-.77.54c-1.6.65.5 2.64-.29 2.78-1 .17-2.2 0-2.28 1.22a2.7 2.7 0 01-.09.6c-.19.69-.68 1-1.7.51-.65-.31-.8-.69-1.53-.59-.53.06-.91.43-1.49.38a.6.6 0 01-.23-.06.55.55 0 01-.18-.19c-.51-.73-.92-.43-1.76-.47a.29.29 0 01-.18-.05.28.28 0 01-.08-.2 1.62 1.62 0 01.06-.62.54.54 0 000-.33c-.05-.14-.22-.2-.36-.26a1.18 1.18 0 01-.59-1.21 1.65 1.65 0 00-.69 0c-.67.08-1.15.54-1.89.48a.73.73 0 01-.29-.07.72.72 0 01-.22-.24c-.66-.93-1.17-.55-2.24-.6a.36.36 0 01-.23-.06.37.37 0 01-.1-.25 2.16 2.16 0 01.07-.8.65.65 0 000-.41c-.06-.19-.28-.26-.46-.34a1.47 1.47 0 01-.45-2.19c.21-.24.52-.47.45-.78s-.53-.39-.84-.56c-.54-.45-.44-1.87.12-2.35z" fill="#6f9639"/><path d="M384.49 199.89c.34-.28.76-.66.61-1.07s-.53-.44-.77-.7c-.48-.53 0-1.39.54-1.83s1.3-.77 1.53-1.45a2.58 2.58 0 01.19-.53c.35-.5 1.14-.17 1.64.19a2.36 2.36 0 00.58.33 1.37 1.37 0 01.38-.68c.33-.28.76-.65.61-1.07s-.54-.44-.77-.7c-.49-.53 0-1.39.54-1.83s1.3-.77 1.53-1.44a2.22 2.22 0 01.19-.53c.35-.51 1.14-.18 1.64.19s1.29.68 1.63.17c.19-.3.08-.72.27-1 .31-.51 1.1-.27 1.55.11s.95.89 1.53.76c-.15-.06-.31-.11-.45-.18-.74-.39-.64-1.82-.08-2.29.34-.29.76-.66.61-1.08s-.53-.44-.77-.7c-.48-.53 0-1.39.54-1.82s1.3-.78 1.53-1.45a2.24 2.24 0 01.2-.53c.35-.51 1.13-.18 1.63.19s1.29.68 1.63.17c.19-.3.08-.72.27-1 .31-.51 1.1-.27 1.56.11s.95.9 1.53.76.81-.69 1.31-.75 1 .49 1.1 1a5.44 5.44 0 00.41 1.56h.07a2.1 2.1 0 00.84-1 2.22 2.22 0 01.19-.53c.35-.51 1.14-.18 1.64.19s1.29.68 1.63.17c.19-.3.08-.72.27-1 .31-.51 1.1-.27 1.55.11s1 .9 1.53.76.81-.69 1.32-.75.95.48 1.09 1a5.8 5.8 0 00.42 1.56c.77-.15 1.84-.12 2 .64a1.18 1.18 0 01-.24.91l.26.18c.45.38.95.9 1.53.76s.81-.69 1.31-.75 1 .48 1.1 1a5.78 5.78 0 00.41 1.56c.78-.15 1.84-.12 2 .64.12.51-.27 1-.59 1.39s-.59 1-.26 1.41a2.73 2.73 0 011.54.39 1.16 1.16 0 01.44 1.4 1.74 1.74 0 01-1 .68c-1.16.47-.78 1.51-.44 2.34h.12c.5-.12.81-.69 1.31-.75s1 .48 1.1 1a5.45 5.45 0 00.42 1.56c.77-.15 1.83-.12 2 .64.12.51-.27 1-.59 1.38s-.59 1-.26 1.42a2.73 2.73 0 011.54.39 1.15 1.15 0 01.44 1.4 1.74 1.74 0 01-1 .68c-2 .82.64 3.36-.37 3.53-1.28.21-2.8 0-2.89 1.54a3.45 3.45 0 01-.12.77c-.24.88-.86 1.25-2.16.64-.82-.38-1-.86-1.94-.74-.68.08-1.16.54-1.89.48a.78.78 0 01-.3-.07.84.84 0 01-.22-.24c-.65-.93-1.17-.55-2.24-.6a.36.36 0 01-.23-.06.37.37 0 01-.1-.25 2.16 2.16 0 01.08-.8.82.82 0 000-.41c-.07-.19-.29-.26-.46-.34a1.41 1.41 0 01-.75-1.15c-1 .09-2 .21-2 1.44a4.19 4.19 0 01-.11.77c-.25.88-.87 1.25-2.16.64-.82-.38-1-.86-1.95-.74-.67.08-1.15.54-1.89.48a.69.69 0 01-.29-.07.88.88 0 01-.23-.24c-.65-.93-1.16-.55-2.23-.6a.38.38 0 01-.24-.06.32.32 0 01-.09-.25 2 2 0 01.07-.8.65.65 0 000-.41c-.07-.19-.28-.26-.46-.34a1.31 1.31 0 01-.62-.65 2 2 0 01-1.41-.25c-.82-.39-1-.87-1.95-.75-.67.09-1.15.55-1.88.49a.79.79 0 01-.3-.08.69.69 0 01-.22-.23.52.52 0 00.1.38 2 2 0 011.21.3.89.89 0 01.35 1.1 1.35 1.35 0 01-.77.54c-1.6.65.5 2.64-.29 2.78-1 .17-2.2 0-2.28 1.22a2.7 2.7 0 01-.09.6c-.19.69-.68 1-1.7.51-.65-.31-.8-.69-1.53-.59-.53.06-.91.43-1.49.38a.6.6 0 01-.23-.06.55.55 0 01-.18-.19c-.51-.73-.92-.43-1.76-.47a.29.29 0 01-.18-.05.28.28 0 01-.08-.2 1.62 1.62 0 01.06-.62.54.54 0 000-.33c-.05-.14-.22-.2-.36-.26a1.18 1.18 0 01-.59-1.21 1.65 1.65 0 00-.69 0c-.67.08-1.15.54-1.89.48a.73.73 0 01-.29-.07.72.72 0 01-.22-.24c-.66-.93-1.17-.55-2.24-.6a.36.36 0 01-.23-.06.37.37 0 01-.1-.25 2.16 2.16 0 01.07-.8.65.65 0 000-.41c-.06-.19-.28-.26-.46-.34a1.47 1.47 0 01-.45-2.19c.21-.24.52-.47.45-.78s-.53-.39-.84-.56c-.54-.45-.44-1.87.12-2.35z" style="isolation:isolate" fill="#fff" opacity=".5"/><path d="M391.78 249.52s-1.5 2.12-2 2.79-3.1 4.86-3.45 7.63c0 .3-.08.55-.11.78 1.11 7.34.93 20.77.9 23.06h-3.53c0-2.59-.33-26.29-.44-27a9 9 0 00-3.86-4.88c-2.28-1.2-4.25-5.16-4.25-5.16h.73a12.84 12.84 0 003.23 3.76 7.56 7.56 0 00.86.52 12.23 12.23 0 01.76-4.29l.39.36a10.16 10.16 0 00-.3 4.35 7.84 7.84 0 012 1.32c2-2.58 3.1-8.48 3.1-8.48l.51.28a31 31 0 01-.66 3.62 59.6 59.6 0 01-2 5.71 14.25 14.25 0 011.5 2.81 1 1 0 01.19-.23c1.29-1.17 3.72-6.69 3.72-6.69.59-1.28-.31-4.65-.31-4.65h.68l.3 2.94 1.71-1.86.31.26-1.76 2.33-.93 2.95 2.43-2.69z" fill="#6f9639"/><path d="M391.78 249.52s-1.5 2.12-2 2.79-3.1 4.86-3.45 7.63c0 .3-.08.55-.11.78 1.11 7.34.93 20.77.9 23.06h-3.53c0-2.59-.33-26.29-.44-27a9 9 0 00-3.86-4.88c-2.28-1.2-4.25-5.16-4.25-5.16h.73a12.84 12.84 0 003.23 3.76 7.56 7.56 0 00.86.52 12.23 12.23 0 01.76-4.29l.39.36a10.16 10.16 0 00-.3 4.35 7.84 7.84 0 012 1.32c2-2.58 3.1-8.48 3.1-8.48l.51.28a31 31 0 01-.66 3.62 59.6 59.6 0 01-2 5.71 14.25 14.25 0 011.5 2.81 1 1 0 01.19-.23c1.29-1.17 3.72-6.69 3.72-6.69.59-1.28-.31-4.65-.31-4.65h.68l.3 2.94 1.71-1.86.31.26-1.76 2.33-.93 2.95 2.43-2.69z" style="isolation:isolate" fill="#fff" opacity=".5"/><path d="M370.34 246.76c.19-.16.43-.37.35-.6s-.3-.25-.44-.39c-.27-.3 0-.78.31-1s.73-.43.86-.81a.91.91 0 01.1-.29c.2-.29.64-.1.92.1a1.32 1.32 0 00.33.18.71.71 0 01.21-.37c.19-.16.43-.37.34-.61s-.3-.24-.43-.39c-.27-.3 0-.78.3-1s.73-.44.86-.81a1.54 1.54 0 01.11-.3c.19-.29.64-.1.92.1s.72.39.91.1.05-.4.15-.57.62-.15.87.06.54.5.86.43l-.25-.11c-.42-.21-.36-1-.05-1.28s.43-.37.35-.6-.3-.25-.44-.39c-.27-.3 0-.79.31-1s.72-.43.86-.81a1.06 1.06 0 01.1-.3c.2-.28.64-.1.92.11s.73.38.91.09.05-.4.15-.57.62-.15.88.07.53.5.86.42.45-.38.73-.42.54.27.62.57a2.79 2.79 0 00.23.87 1.18 1.18 0 00.48-.54.92.92 0 01.11-.29c.19-.29.63-.1.91.1s.73.39.92.1 0-.41.15-.58.62-.14.87.07.54.5.86.42.45-.38.74-.42.53.28.61.57a3.26 3.26 0 00.23.88c.44-.09 1-.07 1.14.36a.69.69 0 01-.14.51l.15.1c.25.21.53.5.85.42s.46-.39.74-.42.54.27.62.56a2.86 2.86 0 00.23.88c.43-.08 1-.07 1.13.36s-.15.55-.33.78-.33.57-.14.79a1.52 1.52 0 01.86.22.64.64 0 01.25.79 1 1 0 01-.55.38c-.65.26-.44.84-.25 1.31h.07c.28-.06.45-.39.74-.42s.53.27.61.57a3.19 3.19 0 00.23.87c.44-.08 1-.07 1.14.36s-.15.55-.33.78-.33.57-.15.79a1.5 1.5 0 01.86.22.64.64 0 01.25.79 1 1 0 01-.55.38c-1.13.46.36 1.88-.2 2-.73.12-1.57 0-1.63.87a1.86 1.86 0 01-.06.43c-.14.49-.49.7-1.21.36-.46-.21-.57-.48-1.09-.42s-.65.31-1.06.27a.33.33 0 01-.17 0 .37.37 0 01-.12-.13c-.37-.52-.66-.31-1.26-.34a.21.21 0 01-.13 0 .19.19 0 01-.05-.14 1.15 1.15 0 010-.45.36.36 0 000-.23c0-.1-.16-.14-.26-.19a.82.82 0 01-.42-.65c-.56.06-1.09.13-1.13.82a2.49 2.49 0 01-.06.42c-.14.5-.49.71-1.21.37-.46-.22-.57-.49-1.1-.42-.37.05-.64.3-1 .27a.47.47 0 01-.17 0 .37.37 0 01-.12-.13c-.37-.53-.66-.31-1.26-.34a.22.22 0 01-.13 0 .17.17 0 01-.05-.14 1.08 1.08 0 010-.44.37.37 0 000-.23c0-.11-.16-.15-.26-.2a.7.7 0 01-.34-.36 1.12 1.12 0 01-.79-.14c-.46-.22-.57-.48-1.1-.42-.37.05-.64.31-1.05.27a.33.33 0 01-.17 0 .37.37 0 01-.12-.13.31.31 0 00.06.21 1.3 1.3 0 01.68.17.52.52 0 01.2.62.83.83 0 01-.44.31c-.89.36.28 1.48-.16 1.55s-1.23 0-1.28.69a1.14 1.14 0 010 .33c-.1.39-.38.56-1 .29-.36-.17-.45-.38-.86-.33s-.51.24-.83.21a.25.25 0 01-.13 0 .26.26 0 01-.1-.11c-.29-.41-.52-.24-1-.26a.15.15 0 01-.1 0 .22.22 0 01-.05-.11 1 1 0 010-.35.28.28 0 000-.18c0-.08-.12-.11-.2-.15a.68.68 0 01-.33-.68.94.94 0 00-.39 0c-.37.05-.64.3-1 .27a.47.47 0 01-.17 0 .37.37 0 01-.12-.13c-.37-.53-.66-.31-1.26-.34a.22.22 0 01-.13 0 .17.17 0 01-.05-.14 1.08 1.08 0 010-.44.37.37 0 000-.23c0-.11-.16-.15-.26-.2a.82.82 0 01-.25-1.22c.11-.14.29-.27.25-.44s-.3-.22-.47-.31c-.25-.71-.25-1.54.09-1.78z" fill="#6f9639"/><path d="M370.34 246.76c.19-.16.43-.37.35-.6s-.3-.25-.44-.39c-.27-.3 0-.78.31-1s.73-.43.86-.81a.91.91 0 01.1-.29c.2-.29.64-.1.92.1a1.32 1.32 0 00.33.18.71.71 0 01.21-.37c.19-.16.43-.37.34-.61s-.3-.24-.43-.39c-.27-.3 0-.78.3-1s.73-.44.86-.81a1.54 1.54 0 01.11-.3c.19-.29.64-.1.92.1s.72.39.91.1.05-.4.15-.57.62-.15.87.06.54.5.86.43l-.25-.11c-.42-.21-.36-1-.05-1.28s.43-.37.35-.6-.3-.25-.44-.39c-.27-.3 0-.79.31-1s.72-.43.86-.81a1.06 1.06 0 01.1-.3c.2-.28.64-.1.92.11s.73.38.91.09.05-.4.15-.57.62-.15.88.07.53.5.86.42.45-.38.73-.42.54.27.62.57a2.79 2.79 0 00.23.87 1.18 1.18 0 00.48-.54.92.92 0 01.11-.29c.19-.29.63-.1.91.1s.73.39.92.1 0-.41.15-.58.62-.14.87.07.54.5.86.42.45-.38.74-.42.53.28.61.57a3.26 3.26 0 00.23.88c.44-.09 1-.07 1.14.36a.69.69 0 01-.14.51l.15.1c.25.21.53.5.85.42s.46-.39.74-.42.54.27.62.56a2.86 2.86 0 00.23.88c.43-.08 1-.07 1.13.36s-.15.55-.33.78-.33.57-.14.79a1.52 1.52 0 01.86.22.64.64 0 01.25.79 1 1 0 01-.55.38c-.65.26-.44.84-.25 1.31h.07c.28-.06.45-.39.74-.42s.53.27.61.57a3.19 3.19 0 00.23.87c.44-.08 1-.07 1.14.36s-.15.55-.33.78-.33.57-.15.79a1.5 1.5 0 01.86.22.64.64 0 01.25.79 1 1 0 01-.55.38c-1.13.46.36 1.88-.2 2-.73.12-1.57 0-1.63.87a1.86 1.86 0 01-.06.43c-.14.49-.49.7-1.21.36-.46-.21-.57-.48-1.09-.42s-.65.31-1.06.27a.33.33 0 01-.17 0 .37.37 0 01-.12-.13c-.37-.52-.66-.31-1.26-.34a.21.21 0 01-.13 0 .19.19 0 01-.05-.14 1.15 1.15 0 010-.45.36.36 0 000-.23c0-.1-.16-.14-.26-.19a.82.82 0 01-.42-.65c-.56.06-1.09.13-1.13.82a2.49 2.49 0 01-.06.42c-.14.5-.49.71-1.21.37-.46-.22-.57-.49-1.1-.42-.37.05-.64.3-1 .27a.47.47 0 01-.17 0 .37.37 0 01-.12-.13c-.37-.53-.66-.31-1.26-.34a.22.22 0 01-.13 0 .17.17 0 01-.05-.14 1.08 1.08 0 010-.44.37.37 0 000-.23c0-.11-.16-.15-.26-.2a.7.7 0 01-.34-.36 1.12 1.12 0 01-.79-.14c-.46-.22-.57-.48-1.1-.42-.37.05-.64.31-1.05.27a.33.33 0 01-.17 0 .37.37 0 01-.12-.13.31.31 0 00.06.21 1.3 1.3 0 01.68.17.52.52 0 01.2.62.83.83 0 01-.44.31c-.89.36.28 1.48-.16 1.55s-1.23 0-1.28.69a1.14 1.14 0 010 .33c-.1.39-.38.56-1 .29-.36-.17-.45-.38-.86-.33s-.51.24-.83.21a.25.25 0 01-.13 0 .26.26 0 01-.1-.11c-.29-.41-.52-.24-1-.26a.15.15 0 01-.1 0 .22.22 0 01-.05-.11 1 1 0 010-.35.28.28 0 000-.18c0-.08-.12-.11-.2-.15a.68.68 0 01-.33-.68.94.94 0 00-.39 0c-.37.05-.64.3-1 .27a.47.47 0 01-.17 0 .37.37 0 01-.12-.13c-.37-.53-.66-.31-1.26-.34a.22.22 0 01-.13 0 .17.17 0 01-.05-.14 1.08 1.08 0 010-.44.37.37 0 000-.23c0-.11-.16-.15-.26-.2a.82.82 0 01-.25-1.22c.11-.14.29-.27.25-.44s-.3-.22-.47-.31c-.25-.71-.25-1.54.09-1.78z" style="isolation:isolate" fill="#fff" opacity=".6"/><path d="M337.22 241.61s-1.93 2.72-2.59 3.59-4 6.25-4.44 9.81c-.05.38-.1.71-.15 1 1.43 9.44 1.21 26.71 1.16 29.67h-4.53c0-3.33-.43-33.82-.57-34.75a11.6 11.6 0 00-5-6.27c-2.93-1.55-5.46-6.64-5.46-6.64h.94a16.55 16.55 0 004.19 4.85 9.42 9.42 0 001.1.66 15.62 15.62 0 011-5.51l.5.46a13.14 13.14 0 00-.38 5.59 10.21 10.21 0 012.54 1.71c2.56-3.32 4-10.91 4-10.91l.66.35a40.13 40.13 0 01-.85 4.66 76.87 76.87 0 01-2.54 7.34 17.48 17.48 0 011.93 3.62 1.16 1.16 0 01.25-.29c1.66-1.51 4.79-8.61 4.79-8.61.75-1.65-.4-6-.4-6h.87l.39 3.8 2.19-2.4.4.33-2.32 3-1.2 3.79 3.12-3.46z" fill="#6f9639"/><path d="M337.22 241.61s-1.93 2.72-2.59 3.59-4 6.25-4.44 9.81c-.05.38-.1.71-.15 1 1.43 9.44 1.21 26.71 1.16 29.67h-4.53c0-3.33-.43-33.82-.57-34.75a11.6 11.6 0 00-5-6.27c-2.93-1.55-5.46-6.64-5.46-6.64h.94a16.55 16.55 0 004.19 4.85 9.42 9.42 0 001.1.66 15.62 15.62 0 011-5.51l.5.46a13.14 13.14 0 00-.38 5.59 10.21 10.21 0 012.54 1.71c2.56-3.32 4-10.91 4-10.91l.66.35a40.13 40.13 0 01-.85 4.66 76.87 76.87 0 01-2.54 7.34 17.48 17.48 0 011.93 3.62 1.16 1.16 0 01.25-.29c1.66-1.51 4.79-8.61 4.79-8.61.75-1.65-.4-6-.4-6h.87l.39 3.8 2.19-2.4.4.33-2.32 3-1.2 3.79 3.12-3.46z" style="isolation:isolate" fill="#fff" opacity=".6"/><path d="M309.65 238.06c.24-.21.55-.48.44-.78s-.38-.31-.55-.5c-.35-.38 0-1 .38-1.32s.94-.56 1.11-1a1.82 1.82 0 01.14-.39c.25-.36.82-.12 1.18.14a1.91 1.91 0 00.42.24.94.94 0 01.27-.49c.24-.21.55-.48.44-.78s-.38-.31-.56-.5c-.34-.38 0-1 .39-1.32s.94-.55 1.11-1a1.57 1.57 0 01.14-.38c.25-.37.82-.13 1.18.13s.93.5 1.17.13c.14-.22.06-.52.2-.74s.79-.19 1.12.08.69.64 1.1.55l-.32-.13c-.54-.28-.46-1.31-.06-1.65.24-.21.55-.48.44-.78s-.38-.32-.55-.5c-.35-.39 0-1 .38-1.32s.94-.56 1.11-1a1.74 1.74 0 01.14-.38c.25-.36.82-.13 1.18.14s.93.49 1.17.12c.14-.21.06-.52.2-.73.22-.37.79-.2 1.12.08s.69.64 1.11.55.58-.5.94-.55.69.35.79.73a4.18 4.18 0 00.3 1.13 1.47 1.47 0 00.61-.7 2.13 2.13 0 01.14-.38c.25-.37.82-.13 1.18.14s.93.49 1.18.12c.14-.21.06-.52.19-.74s.8-.19 1.12.09.69.64 1.11.54.58-.49 1-.54.69.35.79.73a3.85 3.85 0 00.3 1.13c.55-.11 1.32-.09 1.46.46a.9.9 0 01-.18.66l.19.13c.32.27.68.64 1.1.54s.58-.5.95-.54.69.35.79.73a3.93 3.93 0 00.3 1.13c.56-.11 1.33-.09 1.46.46.08.36-.2.7-.43 1s-.42.73-.18 1a1.91 1.91 0 011.1.28.81.81 0 01.32 1 1.27 1.27 0 01-.7.49c-.84.34-.57 1.09-.32 1.69h.09c.36-.09.58-.5.95-.54s.68.35.78.72a3.86 3.86 0 00.31 1.13c.55-.11 1.32-.09 1.45.46.09.37-.19.71-.42 1s-.43.73-.19 1a2 2 0 011.11.28.84.84 0 01.32 1 1.31 1.31 0 01-.71.49c-1.46.59.46 2.42-.26 2.54-.93.15-2 0-2.09 1.12a3 3 0 01-.08.55c-.18.63-.63.9-1.56.46-.59-.28-.73-.62-1.41-.54-.48.06-.83.4-1.36.35a.41.41 0 01-.21-.05.65.65 0 01-.16-.17c-.47-.67-.84-.4-1.61-.43a.31.31 0 01-.17-.05.29.29 0 01-.07-.18 1.56 1.56 0 01.05-.57.45.45 0 000-.3c0-.14-.2-.19-.33-.25a1 1 0 01-.54-.83c-.73.07-1.4.16-1.46 1.05a2.27 2.27 0 01-.08.55c-.17.63-.63.9-1.56.46-.59-.28-.73-.62-1.4-.54-.49.07-.83.4-1.36.35a.42.42 0 01-.22-.05.87.87 0 01-.16-.17c-.47-.67-.84-.4-1.61-.43a.34.34 0 01-.17 0 .27.27 0 01-.07-.18 1.56 1.56 0 01.05-.57.45.45 0 000-.3c0-.13-.2-.18-.33-.25a.92.92 0 01-.44-.47 1.46 1.46 0 01-1-.17c-.59-.28-.73-.63-1.41-.54-.48.06-.83.39-1.36.35a.51.51 0 01-.21-.06.44.44 0 01-.16-.17.38.38 0 00.08.27 1.64 1.64 0 01.87.22.65.65 0 01.25.8 1.05 1.05 0 01-.55.39c-1.15.46.36 1.9-.21 2-.73.12-1.59 0-1.65.88a1.86 1.86 0 01-.06.43c-.14.5-.49.71-1.23.37-.46-.22-.58-.49-1.1-.43s-.66.31-1.08.28a.47.47 0 01-.16 0 .44.44 0 01-.13-.14c-.37-.53-.66-.31-1.27-.34a.18.18 0 01-.13 0 .22.22 0 01-.06-.14 1.38 1.38 0 010-.45.46.46 0 000-.23c0-.11-.16-.15-.27-.2a.84.84 0 01-.42-.86 1.26 1.26 0 00-.5 0c-.48.07-.83.4-1.36.35a.38.38 0 01-.21-.05.65.65 0 01-.16-.17c-.47-.67-.84-.4-1.61-.43a.31.31 0 01-.17 0 .23.23 0 01-.07-.18 1.56 1.56 0 01.05-.57.52.52 0 000-.3c0-.13-.21-.18-.33-.25a1.06 1.06 0 01-.33-1.58c.15-.17.38-.34.33-.56s-.39-.28-.61-.4c-.44-.59-.36-1.62.04-1.96z" fill="#6f9639"/><path d="M309.65 238.06c.24-.21.55-.48.44-.78s-.38-.31-.55-.5c-.35-.38 0-1 .38-1.32s.94-.56 1.11-1a1.82 1.82 0 01.14-.39c.25-.36.82-.12 1.18.14a1.91 1.91 0 00.42.24.94.94 0 01.27-.49c.24-.21.55-.48.44-.78s-.38-.31-.56-.5c-.34-.38 0-1 .39-1.32s.94-.55 1.11-1a1.57 1.57 0 01.14-.38c.25-.37.82-.13 1.18.13s.93.5 1.17.13c.14-.22.06-.52.2-.74s.79-.19 1.12.08.69.64 1.1.55l-.32-.13c-.54-.28-.46-1.31-.06-1.65.24-.21.55-.48.44-.78s-.38-.32-.55-.5c-.35-.39 0-1 .38-1.32s.94-.56 1.11-1a1.74 1.74 0 01.14-.38c.25-.36.82-.13 1.18.14s.93.49 1.17.12c.14-.21.06-.52.2-.73.22-.37.79-.2 1.12.08s.69.64 1.11.55.58-.5.94-.55.69.35.79.73a4.18 4.18 0 00.3 1.13 1.47 1.47 0 00.61-.7 2.13 2.13 0 01.14-.38c.25-.37.82-.13 1.18.14s.93.49 1.18.12c.14-.21.06-.52.19-.74s.8-.19 1.12.09.69.64 1.11.54.58-.49 1-.54.69.35.79.73a3.85 3.85 0 00.3 1.13c.55-.11 1.32-.09 1.46.46a.9.9 0 01-.18.66l.19.13c.32.27.68.64 1.1.54s.58-.5.95-.54.69.35.79.73a3.93 3.93 0 00.3 1.13c.56-.11 1.33-.09 1.46.46.08.36-.2.7-.43 1s-.42.73-.18 1a1.91 1.91 0 011.1.28.81.81 0 01.32 1 1.27 1.27 0 01-.7.49c-.84.34-.57 1.09-.32 1.69h.09c.36-.09.58-.5.95-.54s.68.35.78.72a3.86 3.86 0 00.31 1.13c.55-.11 1.32-.09 1.45.46.09.37-.19.71-.42 1s-.43.73-.19 1a2 2 0 011.11.28.84.84 0 01.32 1 1.31 1.31 0 01-.71.49c-1.46.59.46 2.42-.26 2.54-.93.15-2 0-2.09 1.12a3 3 0 01-.08.55c-.18.63-.63.9-1.56.46-.59-.28-.73-.62-1.41-.54-.48.06-.83.4-1.36.35a.41.41 0 01-.21-.05.65.65 0 01-.16-.17c-.47-.67-.84-.4-1.61-.43a.31.31 0 01-.17-.05.29.29 0 01-.07-.18 1.56 1.56 0 01.05-.57.45.45 0 000-.3c0-.14-.2-.19-.33-.25a1 1 0 01-.54-.83c-.73.07-1.4.16-1.46 1.05a2.27 2.27 0 01-.08.55c-.17.63-.63.9-1.56.46-.59-.28-.73-.62-1.4-.54-.49.07-.83.4-1.36.35a.42.42 0 01-.22-.05.87.87 0 01-.16-.17c-.47-.67-.84-.4-1.61-.43a.34.34 0 01-.17 0 .27.27 0 01-.07-.18 1.56 1.56 0 01.05-.57.45.45 0 000-.3c0-.13-.2-.18-.33-.25a.92.92 0 01-.44-.47 1.46 1.46 0 01-1-.17c-.59-.28-.73-.63-1.41-.54-.48.06-.83.39-1.36.35a.51.51 0 01-.21-.06.44.44 0 01-.16-.17.38.38 0 00.08.27 1.64 1.64 0 01.87.22.65.65 0 01.25.8 1.05 1.05 0 01-.55.39c-1.15.46.36 1.9-.21 2-.73.12-1.59 0-1.65.88a1.86 1.86 0 01-.06.43c-.14.5-.49.71-1.23.37-.46-.22-.58-.49-1.1-.43s-.66.31-1.08.28a.47.47 0 01-.16 0 .44.44 0 01-.13-.14c-.37-.53-.66-.31-1.27-.34a.18.18 0 01-.13 0 .22.22 0 01-.06-.14 1.38 1.38 0 010-.45.46.46 0 000-.23c0-.11-.16-.15-.27-.2a.84.84 0 01-.42-.86 1.26 1.26 0 00-.5 0c-.48.07-.83.4-1.36.35a.38.38 0 01-.21-.05.65.65 0 01-.16-.17c-.47-.67-.84-.4-1.61-.43a.31.31 0 01-.17 0 .23.23 0 01-.07-.18 1.56 1.56 0 01.05-.57.52.52 0 000-.3c0-.13-.21-.18-.33-.25a1.06 1.06 0 01-.33-1.58c.15-.17.38-.34.33-.56s-.39-.28-.61-.4c-.44-.59-.36-1.62.04-1.96z" style="isolation:isolate" fill="#fff" opacity=".7"/><path d="M379 293.86l-8.34 8.14a90.2 90.2 0 01-22.5 2.84c-1.64 0-3.27 0-4.89-.14A90 90 0 01266 251.52a12 12 0 015.84-2.69c9.09-1.43 15.82 1.06 20.57 4.76s6.72 5.82 12.66 6.14 7.51-1.9 8.7 0 6.72 3.49 6.72 3.49.4 4.18 4.75 8.62 5.54 3.07 8.71 5.73a25 25 0 006.72 3.95H345l13.85 6.7 3.95 2.9 1.84.14 6.47.49z" fill="#6f9639"/><path d="M379 293.86l-8.34 8.14a90.2 90.2 0 01-22.5 2.84c-1.64 0-3.27 0-4.89-.14A90 90 0 01266 251.52a12 12 0 015.84-2.69c9.09-1.43 15.82 1.06 20.57 4.76s6.72 5.82 12.66 6.14 7.51-1.9 8.7 0 6.72 3.49 6.72 3.49.4 4.18 4.75 8.62 5.54 3.07 8.71 5.73a25 25 0 006.72 3.95H345l13.85 6.7 3.95 2.9 1.84.14 6.47.49z" style="isolation:isolate" fill="#fff" opacity=".4"/><path d="M432.8 245.33a89.81 89.81 0 01-84.64 59.51c-1.64 0-3.27 0-4.89-.14a26.43 26.43 0 004.89-4.57c1.56-2.25 11.1-5.66 12.29-5.64s3.59-2.58 4.21-3.23l.14-.14 8.31-5.64 9.1-4 3.56-6.69s7.91-4.88 7.91-6.07 4.35-12.27 5.94-13.17 8.3-5 8.3-6.76 7.12-7.37 9.5-10 5.93.21 8.7 2.34a53.68 53.68 0 006.68 4.2z" fill="#6f9639"/><path d="M432.8 245.33a89.81 89.81 0 01-84.64 59.51c-1.64 0-3.27 0-4.89-.14a26.43 26.43 0 004.89-4.57c1.56-2.25 11.1-5.66 12.29-5.64s3.59-2.58 4.21-3.23l.14-.14 8.31-5.64 9.1-4 3.56-6.69s7.91-4.88 7.91-6.07 4.35-12.27 5.94-13.17 8.3-5 8.3-6.76 7.12-7.37 9.5-10 5.93.21 8.7 2.34a53.68 53.68 0 006.68 4.2z" style="isolation:isolate" fill="#fff" opacity=".3"/><path d="M145.1 199.44v4.85c-.07 3.44-.2 6.88-.39 10.25-3.31-6.25-2.71-13.64-2.71-13.64z" style="isolation:isolate" opacity=".2"/><path fill="#6f9639" d="M233.39 210.76l43.47-50.62 3.7 114.06-46.51-52.54-.66-10.9z"/><path style="isolation:isolate" fill="#fff" opacity=".85" d="M233.39 210.76l43.47-50.62 3.7 114.06-46.51-52.54-.66-10.9z"/><path d="M233.83 221.36c-.6 0-1.22-2.24-1.39-5.07s.17-5.16.77-5.2 1.23 2.23 1.4 5.07-.18 5.16-.78 5.2z" fill="#6f9639"/><path d="M233.83 221.36c-.6 0-1.22-2.24-1.39-5.07s.17-5.16.77-5.2 1.23 2.23 1.4 5.07-.18 5.16-.78 5.2z" style="isolation:isolate" fill="#fff" opacity=".4"/><path d="M228.36 220.19l-33.76 2a1.32 1.32 0 01-1.4-1.25l-.28-4.63a1.32 1.32 0 011.24-1.41l33.76-2z" fill="#6f9639"/><path fill="#6f9639" d="M226.76 220.24l6.4 1.42-.65-10.79-6.18 2.18.43 7.19z"/><path style="isolation:isolate" opacity=".2" d="M226.76 220.24l6.4 1.42-.65-10.79-6.18 2.18.43 7.19z"/><rect x="227" y="215.36" width="11.64" height="1.81" rx=".36" transform="rotate(86.54 232.818 216.277)" fill="#6f9639"/><path d="M195.07 222.2h-.47a1.32 1.32 0 01-1.4-1.25l-.28-4.63a1.32 1.32 0 011.24-1.41h.47zm21.83-4.97a.73.73 0 01.68-.77l5.27-.32a.73.73 0 01.77.68.73.73 0 01-.68.77l-5.27.32a.73.73 0 01-.77-.68z" style="isolation:isolate" opacity=".2"/><path d="M152.68 184.49s17.48 20.77 20.85 23.15 32.83 4.36 32.83 4.36 6.15-2.31 7.34-1.12 7.69 8.52 8.28 9.71-9.36 4.37-11.34 4-4.28-3.81-4.28-3.81-31.25-1.43-37.78-3.41-23.48-17.6-23.48-17.6z" fill="#b97964"/><path d="M143 172.79c8.94 2.74 23.14 25 23.14 25s-3.13 6.38-12 12.65L142 200.9a141 141 0 01-1.49-16.61c-.15-7.71 2.49-11.5 2.49-11.5z" fill="#6f9639"/></svg>